<?xml version="1.0" encoding="UTF-8" standalone="no"?>
<!-- Created with Inkscape (http://www.inkscape.org/) -->

<svg
   xmlns:dc="http://purl.org/dc/elements/1.1/"
   xmlns:cc="http://creativecommons.org/ns#"
   xmlns:rdf="http://www.w3.org/1999/02/22-rdf-syntax-ns#"
   xmlns:svg="http://www.w3.org/2000/svg"
   xmlns="http://www.w3.org/2000/svg"
   version="1.1"
   width="153.63158"
   height="77.566406"
   id="svg2">
  <defs
     id="defs4" />
  <metadata
     id="metadata7">
    <rdf:RDF>
      <cc:Work
         rdf:about="">
        <dc:format>image/svg+xml</dc:format>
        <dc:type
           rdf:resource="http://purl.org/dc/dcmitype/StillImage" />
        <dc:title></dc:title>
      </cc:Work>
    </rdf:RDF>
  </metadata>
  <g
     transform="translate(-236.96992,-498.92426)"
     id="layer1">
    <g
       id="text2985"
       style="font-size:40px;font-style:normal;font-variant:normal;font-weight:bold;font-stretch:normal;line-height:125%;letter-spacing:0.15000001px;word-spacing:0px;fill:#000000;fill-opacity:1;stroke:none;font-family:Verdana;-inkscape-font-specification:Verdana Bold">
      <path
         d="m 278.90985,536.57269 -7.75391,0 -2.01171,-5.8789 -10.78125,0 -2.01172,5.8789 -7.5586,0 10.74219,-29.08203 8.63281,0 10.74219,29.08203 m -11.58203,-11.21093 -3.57422,-10.42969 -3.57422,10.42969 7.14844,0"
         id="path4094"
         style="letter-spacing:2.57999992px" />
      <path
         d="m 298.85313,537.1391 c -2.16147,0 -4.16016,-0.31901 -5.99609,-0.95703 -1.82293,-0.63802 -3.39193,-1.58854 -4.70703,-2.85156 -1.31511,-1.26302 -2.33724,-2.83854 -3.06641,-4.72657 -0.71615,-1.88801 -1.07422,-4.069 -1.07422,-6.54297 0,-2.30467 0.34505,-4.39451 1.03516,-6.26953 0.6901,-1.87497 1.6927,-3.48305 3.00781,-4.82422 1.26302,-1.28903 2.82551,-2.28512 4.6875,-2.98828 1.87499,-0.70309 3.91926,-1.05465 6.13282,-1.05468 1.22394,3e-5 2.32419,0.0716 3.30078,0.21484 0.98956,0.13024 1.90102,0.30602 2.73437,0.52734 0.87237,0.24743 1.66013,0.52737 2.36328,0.83985 0.71612,0.2995 1.34112,0.57945 1.875,0.83984 l 0,7.05078 -0.85937,0 c -0.36461,-0.31248 -0.82685,-0.68357 -1.38672,-1.11328 -0.5469,-0.42967 -1.1719,-0.85284 -1.875,-1.26953 -0.71617,-0.41664 -1.49091,-0.76821 -2.32422,-1.05469 -0.83335,-0.28643 -1.72528,-0.42966 -2.67578,-0.42969 -1.05471,3e-5 -2.05731,0.1693 -3.00781,0.50782 -0.95054,0.32554 -1.82944,0.87242 -2.63672,1.64062 -0.76824,0.74221 -1.39324,1.72528 -1.875,2.94922 -0.46876,1.22398 -0.70314,2.70835 -0.70313,4.45313 -10e-6,1.82292 0.2539,3.34636 0.76172,4.57031 0.52082,1.22396 1.17186,2.18751 1.95313,2.89062 0.79425,0.71616 1.67967,1.23048 2.65625,1.54297 0.97654,0.29949 1.94008,0.44923 2.89062,0.44922 0.91144,10e-6 1.80988,-0.13671 2.69531,-0.41016 0.89842,-0.27343 1.72524,-0.64452 2.48047,-1.11328 0.638,-0.37759 1.23045,-0.78124 1.77735,-1.21093 0.54685,-0.42968 0.99606,-0.80078 1.34765,-1.11329 l 0.78125,0 0,6.95313 c -0.72919,0.32552 -1.4258,0.63151 -2.08984,0.91797 -0.66409,0.28646 -1.3607,0.53385 -2.08984,0.74219 -0.95055,0.27343 -1.84247,0.48177 -2.67579,0.625 -0.83335,0.14322 -1.97918,0.21484 -3.4375,0.21484"
         id="path4096"
         style="letter-spacing:2.57999992px" />
      <path
         d="m 347.76126,536.57269 -7.46094,0 0,-19.47265 -5.39062,12.63672 -5.17578,0 -5.39063,-12.63672 0,19.47265 -7.07031,0 0,-29.08203 8.71094,0 6.54297,14.58985 6.52343,-14.58985 8.71094,0 0,29.08203"
         id="path4098"
         style="letter-spacing:2.57999992px" />
      <path
         d="m 378.77876,536.57269 -21.03516,0 0,-29.08203 21.03516,0 0,5.625 -13.57422,0 0,5.01953 12.59765,0 0,5.625 -12.59765,0 0,7.1875 13.57422,0 0,5.625"
         id="path4100"
         style="letter-spacing:2.57999992px" />
    </g>
    <g
       id="text2991"
       style="font-size:27px;font-style:normal;font-variant:normal;font-weight:normal;font-stretch:normal;line-height:125%;letter-spacing:0px;word-spacing:0px;fill:#000000;fill-opacity:1;stroke:none;font-family:Iowan Old Style;-inkscape-font-specification:Iowan Old Style">
      <path
         d="m 262.34332,557.60101 0.90967,1.75342 c -1.20411,0.87891 -2.30275,1.52051 -3.2959,1.92481 -0.99317,0.3955 -1.96436,0.59326 -2.91357,0.59326 -1.96876,0 -3.58155,-0.62403 -4.83838,-1.87207 -1.25684,-1.24805 -1.88526,-2.86523 -1.88525,-4.85157 -10e-6,-2.11815 0.76904,-3.89793 2.30712,-5.33935 1.53809,-1.44139 3.4541,-2.1621 5.74805,-2.16211 1.4414,1e-5 2.57079,0.23732 3.38818,0.71191 0.81737,0.47463 1.22607,1.12502 1.22608,1.95118 -1e-5,0.62403 -0.19777,1.14258 -0.59326,1.55566 -0.38673,0.40431 -0.88332,0.60645 -1.48975,0.60645 -0.31642,0 -0.59327,-0.0659 -0.83057,-0.19776 -0.23731,-0.14061 -0.53614,-0.43505 -0.89648,-0.8833 -0.36915,-0.46581 -0.66798,-0.76464 -0.89648,-0.89648 -0.21974,-0.14062 -0.47023,-0.21093 -0.75147,-0.21094 -0.66798,10e-6 -1.17335,0.31202 -1.51611,0.93603 -0.33399,0.62404 -0.50098,1.5381 -0.50098,2.74219 0,1.42384 0.32958,2.54883 0.98877,3.375 0.66796,0.82618 1.56884,1.23926 2.70264,1.23926 0.43065,0 0.90087,-0.0791 1.41064,-0.23731 0.51855,-0.1582 1.09423,-0.40429 1.72705,-0.73828"
         id="path4079" />
      <path
         d="m 272.70563,549.96771 c -0.84376,10e-6 -1.48536,0.34718 -1.92481,1.04151 -0.43946,0.68555 -0.65918,1.69629 -0.65918,3.03222 0,1.78419 0.2373,3.1377 0.71192,4.06055 0.4746,0.91406 1.18212,1.3711 2.12256,1.37109 0.87889,10e-6 1.53807,-0.35156 1.97753,-1.05468 0.43945,-0.71191 0.65917,-1.77539 0.65918,-3.19043 -10e-6,-1.72265 -0.2461,-3.02783 -0.73828,-3.91553 -0.48341,-0.89647 -1.19971,-1.34472 -2.14892,-1.34473 m 0.14502,-2.32031 c 2.3994,1e-5 4.33299,0.66359 5.80078,1.99072 1.47654,1.31837 2.21483,3.02784 2.21484,5.12842 -10e-6,2.07422 -0.75148,3.7793 -2.25439,5.11523 -1.49416,1.32715 -3.42335,1.99073 -5.7876,1.99073 -2.35548,0 -4.27149,-0.63721 -5.74805,-1.91162 -1.46777,-1.2832 -2.20166,-2.93994 -2.20166,-4.97022 0,-2.14452 0.74707,-3.90233 2.24121,-5.27344 1.49414,-1.37987 3.40576,-2.06981 5.73487,-2.06982"
         id="path4081" />
      <path
         d="m 288.81598,547.67377 c -0.044,0.53614 -0.0791,0.9712 -0.10547,1.30517 -0.0264,0.334 -0.0527,0.64162 -0.0791,0.92285 0.93163,-0.74705 1.77099,-1.28758 2.51807,-1.62158 0.75584,-0.33397 1.49852,-0.50096 2.22802,-0.50097 0.80858,1e-5 1.51171,0.18897 2.10938,0.56689 0.59764,0.36915 1.07225,0.91847 1.42383,1.64795 0.89646,-0.74706 1.74461,-1.30077 2.54443,-1.66113 0.79979,-0.36913 1.56443,-0.5537 2.29394,-0.55371 1.26561,1e-5 2.28074,0.41309 3.04541,1.23925 0.77342,0.82619 1.16014,1.92482 1.16016,3.2959 -2e-5,0.50099 -0.004,0.93605 -0.0132,1.30518 -3e-5,0.36036 -0.004,0.72071 -0.0132,1.08105 l -0.0264,1.55567 c -3e-5,0.18457 -0.004,0.50098 -0.0132,0.94922 -0.009,0.44824 -0.0132,0.8042 -0.0132,1.06787 -2e-5,0.65918 0.10105,1.11181 0.30322,1.35791 0.20213,0.2373 0.57127,0.35596 1.10742,0.35595 0.0264,10e-6 0.0835,-0.004 0.17139,-0.0132 0.0967,-0.0176 0.17136,-0.0264 0.22412,-0.0264 l 0,1.43701 c -0.76467,-0.0615 -1.47659,-0.10546 -2.13574,-0.13183 -0.6592,-0.0352 -1.25246,-0.0527 -1.77979,-0.0527 -0.46584,0 -1.01515,0.0176 -1.64794,0.0527 -0.63284,0.0264 -1.33157,0.0703 -2.0962,0.13183 l 0,-1.42382 c 0.0351,0 0.0791,0.004 0.13184,0.0132 0.0615,0.009 0.14061,0.0132 0.2373,0.0132 0.43065,1e-5 0.72069,-0.17138 0.87012,-0.51416 0.15818,-0.35156 0.23729,-1.16454 0.23731,-2.43896 l 0,-1.5293 0,-0.92285 c -2e-5,-1.65234 -0.13186,-2.69384 -0.39551,-3.12451 -0.26369,-0.43944 -0.7427,-0.65917 -1.43701,-0.65918 -0.33401,10e-6 -0.69436,0.0659 -1.08106,0.19775 -0.37794,0.13185 -0.79982,0.33839 -1.26562,0.61963 l 0,6.34131 c -2e-5,0.90528 0.0703,1.47217 0.21093,1.70068 0.1494,0.21973 0.43065,0.3296 0.84375,0.32959 0.10546,1e-5 0.18456,1e-5 0.23731,0 0.0527,-0.009 0.10545,-0.0176 0.1582,-0.0264 l 0,1.42382 c -1.17775,-0.0791 -2.01271,-0.12744 -2.50488,-0.14501 -0.48341,-0.0264 -0.88771,-0.0396 -1.21289,-0.0396 -0.334,0 -0.75587,0.0132 -1.26563,0.0396 -0.50977,0.0176 -1.34034,0.0659 -2.4917,0.14501 l 0,-1.42382 c 0.0527,0.009 0.10546,0.0176 0.15821,0.0264 0.0527,1e-5 0.12743,1e-5 0.22412,0 0.46581,1e-5 0.78221,-0.17138 0.94922,-0.51416 0.17577,-0.35156 0.26366,-1.13818 0.26367,-2.35986 l 0,-1.64795 0,-0.69873 c -1e-5,-1.73144 -0.13185,-2.82567 -0.39551,-3.28271 -0.26368,-0.45703 -0.74268,-0.68554 -1.43701,-0.68555 -0.33399,10e-6 -0.69434,0.0659 -1.08105,0.19775 -0.37794,0.12306 -0.78224,0.31202 -1.2129,0.5669 -0.0176,0.94044 -0.0352,1.84131 -0.0527,2.70263 -0.009,0.85255 -0.0132,1.72267 -0.0132,2.61036 l 0,1.10742 c -1e-5,0.86133 0.0747,1.41064 0.22412,1.64795 0.15819,0.2373 0.44384,0.35596 0.85693,0.35595 0.0967,1e-5 0.17138,1e-5 0.22412,0 0.0527,-0.009 0.10546,-0.0176 0.15821,-0.0264 l 0,1.42382 c -0.84376,-0.0615 -1.59523,-0.10546 -2.2544,-0.13183 -0.6504,-0.0352 -1.18653,-0.0527 -1.6084,-0.0527 -0.58008,0 -1.21289,0.0176 -1.89843,0.0527 -0.67676,0.0264 -1.39307,0.0659 -2.14893,0.11865 l 0,-1.42383 0.30322,0 c 0.67676,0 1.13379,-0.1538 1.3711,-0.46142 0.2373,-0.31641 0.35595,-1.11621 0.35595,-2.39942 l 0,-0.8833 0,-2.29394 c 0,-0.14941 -0.004,-0.42187 -0.0132,-0.81739 -0.009,-0.3955 -0.0132,-0.7163 -0.0132,-0.9624 -10e-6,-0.64159 -0.10108,-1.08983 -0.30323,-1.34472 -0.19336,-0.26367 -0.52734,-0.3955 -1.00195,-0.39551 -0.0352,10e-6 -0.13623,0.009 -0.30322,0.0264 -0.15821,0.0176 -0.29004,0.0308 -0.39551,0.0396 l 0,-1.41065 c 1.17773,-0.15819 2.30713,-0.35155 3.38818,-0.58008 1.08105,-0.2285 2.14013,-0.49217 3.17725,-0.79101"
         id="path4083" />
      <path
         d="m 315.1568,558.60297 c 0.36034,0.29004 0.72069,0.50537 1.08105,0.64599 0.36035,0.13184 0.73828,0.19776 1.13379,0.19776 0.94921,0 1.6831,-0.35596 2.20166,-1.06787 0.52733,-0.7207 0.79101,-1.73584 0.79102,-3.04541 -1e-5,-1.48535 -0.28566,-2.65869 -0.85693,-3.52002 -0.5713,-0.87011 -1.34035,-1.30517 -2.30713,-1.30518 -0.31642,10e-6 -0.63722,0.0571 -0.96241,0.17139 -0.31641,0.10548 -0.66797,0.28126 -1.05468,0.52734 -0.009,0.5713 -0.022,1.40626 -0.0396,2.50488 -0.009,1.09864 -0.0132,1.81056 -0.0132,2.13575 l 0,1.41064 c 0,0.14063 0.004,0.36036 0.0132,0.65918 0.009,0.29883 0.0132,0.52735 0.0132,0.68555 m 0.2373,-11.39063 c -0.0264,0.2549 -0.0659,0.63722 -0.11865,1.14697 -0.0439,0.50099 -0.0747,0.85256 -0.0923,1.05469 0.791,-0.58006 1.5161,-1.00194 2.17529,-1.26562 0.65917,-0.26366 1.31835,-0.3955 1.97754,-0.39551 1.74022,10e-6 3.17284,0.61964 4.29785,1.85889 1.13377,1.23926 1.70067,2.8125 1.70068,4.71972 -10e-6,2.12696 -0.68995,3.87598 -2.06982,5.24707 -1.37111,1.36231 -3.12013,2.04346 -5.24707,2.04346 -0.46583,0 -0.93605,-0.0396 -1.41065,-0.11865 -0.46582,-0.0791 -0.95801,-0.19776 -1.47656,-0.35596 l -0.0659,3.01904 0,0.5669 c 0,0.84374 0.10547,1.37109 0.31641,1.58203 0.21093,0.21972 0.66357,0.32958 1.35791,0.32959 0.0791,-10e-6 0.20653,-0.004 0.38232,-0.0132 0.18457,-0.009 0.32959,-0.0132 0.43506,-0.0132 l 0,1.56885 c -0.97559,-0.0527 -1.86768,-0.0923 -2.67627,-0.11865 -0.8086,-0.0264 -1.53809,-0.0396 -2.18847,-0.0396 -0.56251,-1e-5 -1.2085,0.0132 -1.93799,0.0396 -0.7295,0.0264 -1.55127,0.0659 -2.46533,0.11865 l 0,-1.56885 0.59326,0 c 0.42187,0 0.72949,-0.0483 0.92285,-0.14502 0.19336,-0.0967 0.34717,-0.27246 0.46143,-0.52734 0.12304,-0.28126 0.21093,-0.95801 0.26367,-2.03028 0.0615,-1.07226 0.0923,-2.71582 0.0923,-4.93066 l 0,-2.16211 0,-4.02099 c 0,-1.10742 -0.0967,-1.81494 -0.29004,-2.12256 -0.19336,-0.3164 -0.57568,-0.4746 -1.14697,-0.47461 -0.10547,1e-5 -0.21973,0.004 -0.34277,0.0132 -0.12305,10e-6 -0.25049,0.004 -0.38233,0.0132 l -0.0527,-1.42382 c 1.14258,-0.14941 2.29394,-0.35595 3.4541,-0.61963 1.16894,-0.26366 2.34667,-0.58886 3.5332,-0.97559"
         id="path4085" />
      <path
         d="m 341.66901,558.5766 0.64599,1.31836 c -1.2129,0.71191 -2.21486,1.22607 -3.00586,1.54248 -0.79102,0.32519 -1.44581,0.48779 -1.96435,0.48779 -0.76466,0 -1.34474,-0.17139 -1.74024,-0.51416 -0.38672,-0.33398 -0.59327,-0.83496 -0.61963,-1.50293 -1.0459,0.7295 -1.90723,1.24805 -2.58398,1.55567 -0.67676,0.30761 -1.2876,0.46142 -1.83252,0.46142 -1.03711,0 -1.92481,-0.39111 -2.66309,-1.17334 -0.72949,-0.78222 -1.09423,-1.72265 -1.09423,-2.82129 0,-1.76659 2.04345,-3.10692 6.13037,-4.02099 0.85253,-0.19335 1.5205,-0.34716 2.0039,-0.46143 0.009,-0.26366 0.0176,-0.54491 0.0264,-0.84375 0.0176,-0.30761 0.0264,-0.48778 0.0264,-0.54053 -1e-5,-0.65038 -0.14942,-1.12938 -0.44824,-1.43701 -0.29884,-0.31639 -0.76466,-0.4746 -1.39747,-0.47461 -0.63281,10e-6 -1.13379,0.11427 -1.50292,0.34278 -0.36036,0.22852 -0.54054,0.53614 -0.54053,0.92285 l 0,0.27685 c -1e-5,0.38673 -0.18458,0.67677 -0.55371,0.87012 -0.36915,0.19337 -0.93165,0.29005 -1.6875,0.29004 -0.50098,10e-6 -0.87891,-0.0923 -1.13379,-0.27686 -0.25489,-0.19335 -0.38233,-0.47899 -0.38233,-0.85693 0,-0.29003 0.11426,-0.60643 0.34278,-0.94922 0.2373,-0.34276 0.57568,-0.69432 1.01513,-1.05469 0.78223,-0.6328 1.70068,-1.13377 2.75537,-1.50293 1.05469,-0.37791 2.0874,-0.56688 3.09815,-0.56689 1.72265,1e-5 3.01024,0.39552 3.86279,1.18652 0.86132,0.79103 1.29198,1.98634 1.29199,3.58594 -1e-5,0.36915 -0.0352,1.13819 -0.10546,2.30713 -0.0703,1.16895 -0.10549,2.15332 -0.10547,2.95312 -2e-5,0.44825 0.0747,0.78663 0.22412,1.01514 0.15819,0.22852 0.3867,0.34278 0.68554,0.34277 0.13183,1e-5 0.29003,-0.0351 0.47461,-0.10546 0.18456,-0.0703 0.44384,-0.18897 0.77784,-0.35596 m -6.73682,-3.32227 c -0.19337,0.0615 -0.47901,0.14942 -0.85693,0.26368 -1.88966,0.5625 -2.83448,1.23926 -2.83448,2.03027 0,0.43946 0.14941,0.81738 0.44825,1.13379 0.30761,0.30762 0.68114,0.46143 1.1206,0.46142 0.24609,10e-6 0.52734,-0.0659 0.84375,-0.19775 0.32519,-0.13183 0.74706,-0.36474 1.26563,-0.69873 l 0.0132,-2.99268"
         id="path4087" />
      <path
         d="m 349.51324,547.6474 -0.27685,2.26758 c 0.97558,-0.73827 1.87206,-1.28319 2.68945,-1.63477 0.81737,-0.35155 1.59521,-0.52733 2.3335,-0.52734 1.45897,10e-6 2.5576,0.43946 3.2959,1.31836 0.73826,0.87013 1.1074,2.16651 1.10742,3.88916 -2e-5,0.33399 -0.0176,1.07667 -0.0527,2.22803 -0.0352,1.14258 -0.0528,2.11816 -0.0527,2.92675 -2e-5,0.72071 0.11424,1.2085 0.34277,1.46338 0.23729,0.2461 0.68114,0.36914 1.33155,0.36914 l 0.2373,0 -0.0264,1.43701 c -0.90529,-0.0527 -1.71827,-0.0923 -2.43896,-0.11865 -0.71193,-0.0264 -1.30959,-0.0395 -1.79297,-0.0395 -0.39552,0 -0.91847,0.0132 -1.56885,0.0395 -0.64161,0.0264 -1.39747,0.0659 -2.26758,0.11865 l 0,-1.43701 0.13184,0 c 0.61522,0 1.02391,-0.17578 1.22607,-0.52734 0.21093,-0.36035 0.3164,-1.40625 0.31641,-3.1377 l 0,-1.43701 c -1e-5,-1.62597 -0.16261,-2.70702 -0.48779,-3.24316 -0.31642,-0.53612 -0.86574,-0.80419 -1.64795,-0.8042 -0.29005,10e-6 -0.62403,0.0571 -1.00195,0.17139 -0.36915,0.11426 -0.8174,0.29883 -1.34473,0.55371 -0.044,0.52735 -0.0747,1.12501 -0.0923,1.79297 -0.009,0.65918 -0.0132,1.73584 -0.0132,3.22998 l 0,1.1997 c -10e-6,0.95801 0.10546,1.56446 0.31641,1.81934 0.21972,0.25488 0.64598,0.38232 1.27881,0.38232 l 0,1.43701 c -0.71193,-0.0527 -1.41066,-0.0923 -2.0962,-0.11865 -0.67676,-0.0264 -1.3667,-0.0395 -2.06982,-0.0395 -0.64161,0 -1.30079,0.0132 -1.97754,0.0395 -0.66797,0.0264 -1.35791,0.0659 -2.06982,0.11865 l 0,-1.43701 0.3164,0 c 1.13379,0 1.70947,-1.17773 1.72705,-3.5332 0,-0.13183 0.004,-0.22851 0.0132,-0.29004 l 0.0264,-1.89844 0,-1.62158 c 0,-0.83495 -0.10986,-1.40184 -0.32959,-1.70068 -0.21094,-0.29882 -0.59765,-0.44823 -1.16015,-0.44824 -0.14063,10e-6 -0.25489,0.004 -0.34278,0.0132 -0.0879,10e-6 -0.17138,10e-6 -0.25048,0 l 0,-1.42383 c 1.06347,-0.12303 2.14013,-0.29881 3.22998,-0.52734 1.09862,-0.23729 2.2456,-0.52733 3.44091,-0.87012"
         id="path4089" />
      <path
         d="m 360.62701,548.12201 c 1.25684,0.0791 2.1753,0.13185 2.75538,0.1582 0.58886,0.0264 1.08105,0.0396 1.47656,0.0395 0.58886,2e-5 1.25243,-0.0176 1.99072,-0.0527 0.74706,-0.0351 1.53368,-0.0791 2.35986,-0.13184 l 0,1.50293 -0.29004,0 c -0.44825,10e-6 -0.76905,0.0703 -0.9624,0.21094 -0.19336,0.13185 -0.29004,0.35157 -0.29004,0.65918 0,0.20216 0.36474,1.27442 1.09424,3.2168 0.48339,1.28321 0.8745,2.3335 1.17334,3.15088 1.08105,-2.62793 1.7578,-4.30664 2.03027,-5.03614 0.27245,-0.73827 0.40868,-1.20848 0.4087,-1.41064 -2e-5,-0.29882 -0.0835,-0.50976 -0.25049,-0.63281 -0.15822,-0.12304 -0.42628,-0.18456 -0.8042,-0.18457 -0.0879,10e-6 -0.15821,0.004 -0.21094,0.0132 -0.0439,10e-6 -0.0923,0.004 -0.14502,0.0132 l 0,-1.51611 c 0.80858,0.0791 1.4414,0.13185 1.89844,0.1582 0.45702,0.0264 0.86131,0.0396 1.21289,0.0395 0.37792,2e-5 1.05907,-0.0395 2.04346,-0.11865 0.49217,-0.0351 0.8701,-0.0615 1.13379,-0.0791 l 0,1.51611 c -0.044,10e-6 -0.11428,-0.004 -0.21094,-0.0132 -0.0967,-0.009 -0.15822,-0.0132 -0.18457,-0.0132 -0.74709,1e-5 -1.71388,1.31837 -2.90039,3.95507 -0.44826,1.00196 -0.813,1.79737 -1.09424,2.38623 -0.46583,0.97559 -1.08986,2.28956 -1.87207,3.9419 -1.88087,3.98144 -2.98829,6.23144 -3.32227,6.75 -0.4043,0.64159 -0.82178,1.10741 -1.25244,1.39746 -0.42188,0.29882 -0.8833,0.44823 -1.38428,0.44824 -0.62402,-10e-6 -1.14697,-0.19776 -1.56884,-0.59326 -0.41309,-0.38672 -0.61963,-0.87452 -0.61963,-1.46338 0,-0.50977 0.1582,-0.90528 0.47461,-1.18652 0.32519,-0.27247 0.78662,-0.4087 1.38427,-0.40869 0.83496,-10e-6 1.61719,-0.76026 2.34668,-2.28077 0.0967,-0.19336 0.17138,-0.34277 0.22413,-0.44824 -1.66114,-3.91113 -3.2168,-7.5498 -4.667,-10.91601 l -0.22412,-0.52735 c -0.17578,-0.41307 -0.36475,-0.68993 -0.56689,-0.83056 -0.19336,-0.14941 -0.46582,-0.22411 -0.81739,-0.22412 -0.0967,1e-5 -0.17138,0.004 -0.22412,0.0132 -0.0527,10e-6 -0.10107,0.004 -0.14502,0.0132 l 0,-1.51611"
         id="path4091" />
    </g>
    <path
       d="m 237.46992,541.98384 152.63158,0"
       style="fill:none;stroke:#e80000;stroke-width:1px;stroke-linecap:butt;stroke-linejoin:miter;stroke-opacity:1" />
  </g>
</svg>
