<?xml version="1.0"?><!DOCTYPE svg PUBLIC "-//W3C//DTD SVG 1.1//EN" "http://www.w3.org/Graphics/SVG/1.1/DTD/svg11.dtd"><svg id="svg" xmlns="http://www.w3.org/2000/svg" xmlns:xlink="http://www.w3.org/1999/xlink" width="1276" height="706"><rect width="1276" height="706" style="fill:#000000;stroke-width:0;stroke:rgb(0,0,0)"/><path style="fill:#FFFFFF;fill-rule:evenodd;stroke:#73CCFF;stroke-width:2px;stroke-linecap:butt;stroke-linejoin:miter;opacity:1" d=" M -1116.365204915477,-607.3138694103488 C -665.6889110990851,57.91865383413449 822.6766919220527,-294.512391571393 648,353 363.2576112145094,967.7311587858712 1545.3923974706508,1334.4870425992601 -1116.365204915477,1313.3138694103488  Z M -792.2190030266554,-1045.024893691611 C -537.7325953937834,-282.869988210149 990.5251317380246,-220.67570043611408 647.629172873478,355.69796771157024 207.59332249878685,870.8106504699806 1246.9417909012257,1542.902379639517 -1310.3981653483334,804.380758636485  Z M -362.0000001829303,-1379.0508074632626 C -322.5775718121341,-576.4990620271125 1132.2283952594319,-104.29210697000286 646.5441940454649,358.19583950035434 83.85032807486812,735.4864950335453 903.3287574987266,1663.068100604682 -1359.9273472821603,261.97080148617437  Z M 142.3844280440709,-1584.6184363374532 C -36.18090393556815,-801.1914427625939 1237.2769996220495,46.0067500713223 644.8255314321865,360.3083596427812 1.2060797593192092,571.795066037338 540.037503880924,1686.0720637429536 -1261.2793976470318,-273.6879364352948  Z M 683.5263955194946,-1646.4817696870864 C 300.216677436339,-940.2827242237604 1297.8799704482667,219.07389209354184 642.6006503773115,361.87885218402374 -34.21007664099989,391.8766078777301 184.0116804519173,1610.2081703089927 -1021.7705838492946,-762.8680965905294  Z M 1221.291878511385,-1560.0526873201009 C 661.6661025205724,-983.4571423615735 1309.5426626071821,402.0737208313548 640.0345601305263,362.7908408768232 -19.771486809481644,209.07484959805797 -138.3439062367804,1441.1028981795769 -659.164178892768,-1169.2894248458313  Z M 1715.7972716843226,-1331.7412386327553 C 1021.3603208969398,-927.5126481763359 1271.400107579363,581.433976229958 637.3175758663533,362.9766876919054 43.45100510407542,36.947361273436684 -403.12161681303905,1191.2980119160375 -200.3530405745014,-1462.8095107580773  Z M 2130.3673717404804,-978.4802393443213 C 1352.6224582495345,-776.5983887838943 1186.2811641962926,743.8523285914205 634.6512038782902,362.4226092211882 150.76847607215944,-111.73994864733959 -590.6840999148594,879.3203970911528 320.63490714820074,-1621.6593118406954  Z M 2434.255410658863,-526.4694421517767 C 1630.8843169776599,-541.9069844836296 1060.4987150609393,877.2829518014419 632.2331967788514,361.1696989301044 294.22168026132516,-225.9596226468916 -687.1207042376784,528.3080060305772 865.1603724025298,-1634.0576652955858  Z M 2604.9234031987617,-9.232419792876215 C 1835.5084880565944,-240.84442306902815 903.3814690608616,971.8299068862757 630.2428870929558,359.31087944326055 463.1713497127482,-297.2405099780507 -685.2791679061213,164.29382213753436 1392.8383915792615,-1499.0850419454375  Z M 2629.713685075555,534.8697244808851 C 1951.3189327957195,104.26086247216824 726.5820935240587,1020.4810787465609 628.8278869849455,356.98401089846243 645.0872603854051,-320.29603334492265 -585.2960693082102,-185.72488766796323 1864.5335008217783,-1226.751743585641  Z M 2506.787674449937,1065.4834228415389 C 1969.72652034834,467.8139920858067 543.2129893464692,1019.6282325173044 628.0931405396367,354.3616664909625 826.4775413773177,-293.416270041325 -394.5866974922285,-495.7888370730792 2245.2622312456497,-837.2554851842758  Z M 2245.262231257854,1543.2554851677958 C 1889.36604411238,822.851893068774 366.87380412756755,969.3346199018201 628.0931405396367,351.6383335090375 993.8893053521842,-218.59476914481775 -127.29509399534868,-742.9020014966793 2506.787674442632,-359.48342286070033  Z M 1864.5335008379764,1932.751743573065 C 1716.1974730462086,1143.043028508288 210.64280855252827,873.3302880823935 628.8278869849455,349.01598910153757 1134.9063876202076,-101.38069910595209 196.7549456570108,-908.7371278501835 2629.7136850736906,171.13027549869304  Z M 1392.8383915982517,2205.085041937698 C 1463.0639277994,1404.640286800579 86.10694082121188,738.7354391393878 630.2428870929558,346.68912055673945 1239.0701963293022,49.532708743707076 553.5301122878423,-980.9949834417193 2604.9234032024756,715.2324197727087  Z M 865.160372422904,2340.057665293257 C 1148.7391654419741,1588.2421959524427 2.5024565478120167,575.5323572966686 632.2331967788514,344.8303010698956 1298.6553782883373,222.95289731611973 916.5700240638182,-954.3165337709386 2434.2554106678813,1232.4694421333588  Z M 320.63490762820885,2327.6593119178415 C 796.5352155814021,1680.2318422937026 -33.97008213397112,395.82506853049665 634.6512038782902,343.5773907788118 1309.242773135332,406.0180845690114 1258.9496716738977,-830.6803973310768 2130.367371444123,1684.4802396764883  Z M -200.35304055588324,2168.809510766673 C 432.573434179896,1673.7867745526285 -20.605673884857538,212.94164036213164 637.3175758663533,343.0233123080946 1270.0471622353239,585.1511630124905 1555.2763227140122,-619.2561008119399 1715.7972717015966,2037.7412386217045  Z M -659.1641788771592,1875.2894248591315 C 83.84720132451707,1569.3849939463685 41.604504285309076,40.445699967180474 640.0345601305263,343.2091591231768 1183.9755047211067,747.0666517510845 1783.5727850759217,-335.72401720222706 1221.2918785310003,2266.0526873141202  Z M -1021.7705838378531,1468.8680966075478 C -223.78005353209005,1374.769502927155 148.04660802875196,-108.86951780091124 642.6006503773115,344.12114781597626 1057.4113417141907,879.7560196326948 1926.9073547464723,-1.1124237558306618 683.5263950744553,2352.4817696972195  Z M -1261.2793976406062,979.6879364547688 C -467.4930242412295,1104.374042093389 290.82631349418426,-223.9299863724707 644.8255314321865,345.6916403572188 899.7413581409835,973.3783033087884 1974.6495622305868,359.76206821599345 142.38442761280106,2290.6184362271406  Z M -1359.9273472812272,444.02919853431115 C -629.2166345494877,778.2526059871323 459.3543030423455,-296.2021971129577 646.5441940454649,347.80416049964566 722.6592154556182,1020.9899662541472 1923.2585864463572,720.1350483727881 -362.00000016517095,2085.0508074735158  Z M -1310.3981653529615,-98.38075861650736 C -696.9565842402164,420.59212950833216 641.1316267210046,-320.32605080440635 647.629172873478,350.30203228842976 539.298286012399,1019.059869256276 1776.5458610093663,1053.2793015334796 -792.2190030123209,1751.0248937062754  Z" /></svg>