<?xml version="1.0" encoding="UTF-8" standalone="no"?>
<!-- Created with Inkscape (http://www.inkscape.org/) -->

<svg
   xmlns:dc="http://purl.org/dc/elements/1.1/"
   xmlns:cc="http://creativecommons.org/ns#"
   xmlns:rdf="http://www.w3.org/1999/02/22-rdf-syntax-ns#"
   xmlns:svg="http://www.w3.org/2000/svg"
   xmlns="http://www.w3.org/2000/svg"
   version="1.1"
   width="990.42902"
   height="590"
   id="svg2">
  <defs
     id="defs4">
    <marker
       refX="0"
       refY="0"
       orient="auto"
       id="DotS"
       style="overflow:visible">
      <path
         d="m -2.5,-1 c 0,2.76 -2.24,5 -5,5 -2.76,0 -5,-2.24 -5,-5 0,-2.76 2.24,-5 5,-5 2.76,0 5,2.24 5,5 z"
         transform="matrix(0.2,0,0,0.2,1.48,0.2)"
         id="path8449"
         style="fill-rule:evenodd;stroke:#000000;stroke-width:1pt;marker-start:none;marker-end:none" />
    </marker>
    <marker
       refX="0"
       refY="0"
       orient="auto"
       id="InfiniteLineEnd"
       style="overflow:visible">
      <g
         id="g8617">
        <circle
           cx="3"
           cy="0"
           r="0.80000001"
           id="circle8619" />
        <circle
           cx="6.5"
           cy="0"
           r="0.80000001"
           id="circle8621" />
        <circle
           cx="10"
           cy="0"
           r="0.80000001"
           id="circle8623" />
      </g>
    </marker>
    <marker
       refX="0"
       refY="0"
       orient="auto"
       id="RazorWire">
       style=&quot;overflow:visible&quot;&gt;
      <path
   d="m 0.02272727,-0.74009011 0,1.4375 -7.78124997,2.31250001 18.4374997,0 -7.1874997,-2.31250001 0,-1.4375 7.2499997,-2.15624999 -18.4687497,0 7.74999997,2.15624999 z"
   transform="scale(0.8,0.8)"
   id="path8614"
   style="fill:#808080;fill-opacity:1;fill-rule:evenodd;stroke:#000000;stroke-width:0.1pt" />
</marker>
    <marker
       refX="0"
       refY="0"
       orient="auto"
       id="Torso"
       style="overflow:visible">
      <g
         transform="scale(0.7,0.7)"
         id="g8594">
        <path
           d="m -4.7792281,-3.239542 c 2.350374,0.3659393 5.30026732,1.9375477 5.03715532,3.62748546 C -0.00518779,2.0778819 -2.2126741,2.6176539 -4.5630471,2.2517169 -6.9134221,1.8857769 -8.521035,0.75201414 -8.257922,-0.93792336 -7.994809,-2.6278615 -7.1296041,-3.6054813 -4.7792281,-3.239542 z"
           id="path8596"
           style="fill:none;stroke:#000000;stroke-width:1.25;marker-start:none;marker-mid:none;marker-end:none" />
        <path
           d="M 4.4598789,0.08866574 C -2.5564571,-4.378332 5.2248769,-3.9061806 -0.84829578,-8.7197331"
           id="path8598"
           style="fill:none;stroke:#000000;stroke-width:1pt;marker-end:none" />
        <path
           d="M 4.9298719,0.05752074 C -1.3872731,1.7494689 1.8027579,5.4782079 -4.9448731,7.5462725"
           id="path8600"
           style="fill:none;stroke:#000000;stroke-width:1pt;marker-start:none;marker-end:none" />
        <rect
           width="2.6366582"
           height="2.7608147"
           x="-10.391706"
           y="-1.7408575"
           transform="matrix(0.527536,-0.849533,0.887668,0.460484,0,0)"
           id="rect8602"
           style="fill-rule:evenodd;stroke-width:1pt;marker-end:none" />
        <rect
           width="2.7327356"
           height="2.8614161"
           x="4.9587269"
           y="-7.9629307"
           transform="matrix(0.671205,-0.741272,0.790802,0.612072,0,0)"
           id="rect8604"
           style="fill-rule:evenodd;stroke-width:1pt;marker-end:none" />
        <path
           d="m 16.779951,-28.685045 a 0.60731727,0.60731727 0 1 1 -1.214634,0 0.60731727,0.60731727 0 1 1 1.214634,0 z"
           transform="matrix(0,-1.109517,1.109517,0,25.96648,19.71619)"
           id="path8606"
           style="fill:#ff0000;fill-opacity:0.75;fill-rule:evenodd;stroke:#000000;stroke-width:1pt;marker-start:none;marker-end:none" />
        <path
           d="m 16.779951,-28.685045 a 0.60731727,0.60731727 0 1 1 -1.214634,0 0.60731727,0.60731727 0 1 1 1.214634,0 z"
           transform="matrix(0,-1.109517,1.109517,0,26.8245,16.99126)"
           id="path8608"
           style="fill:#ff0000;fill-opacity:0.75;fill-rule:evenodd;stroke:#000000;stroke-width:1pt;marker-start:none;marker-end:none" />
      </g>
    </marker>
    <marker
       refX="0"
       refY="0"
       orient="auto"
       id="EmptyTriangleOutL"
       style="overflow:visible">
      <path
         d="m 5.77,0 -8.65,5 0,-10 8.65,5 z"
         transform="matrix(0.8,0,0,0.8,-4.8,0)"
         id="path8542"
         style="fill:#ffffff;fill-rule:evenodd;stroke:#000000;stroke-width:1pt;marker-start:none" />
    </marker>
    <marker
       refX="0"
       refY="0"
       orient="auto"
       id="SquareS"
       style="overflow:visible">
      <path
         d="M -5,-5 -5,5 5,5 5,-5 -5,-5 z"
         transform="scale(0.2,0.2)"
         id="path8458"
         style="fill-rule:evenodd;stroke:#000000;stroke-width:1pt;marker-start:none" />
    </marker>
    <marker
       refX="0"
       refY="0"
       orient="auto"
       id="SquareM"
       style="overflow:visible">
      <path
         d="M -5,-5 -5,5 5,5 5,-5 -5,-5 z"
         transform="scale(0.4,0.4)"
         id="path8455"
         style="fill-rule:evenodd;stroke:#000000;stroke-width:1pt;marker-start:none" />
    </marker>
    <marker
       refX="0"
       refY="0"
       orient="auto"
       id="Tail"
       style="overflow:visible">
      <g
         transform="scale(-1.2,-1.2)"
         id="g8417">
        <path
           d="M -3.8048674,-3.9585227 0.54352094,0"
           id="path8419"
           style="fill:none;stroke:#000000;stroke-width:0.80000001;stroke-linecap:round;marker-start:none;marker-end:none" />
        <path
           d="M -1.2866832,-3.9585227 3.0617053,0"
           id="path8421"
           style="fill:none;stroke:#000000;stroke-width:0.80000001;stroke-linecap:round;marker-start:none;marker-end:none" />
        <path
           d="M 1.3053582,-3.9585227 5.6537466,0"
           id="path8423"
           style="fill:none;stroke:#000000;stroke-width:0.80000001;stroke-linecap:round;marker-start:none;marker-end:none" />
        <path
           d="M -3.8048674,4.1775838 0.54352094,0.21974226"
           id="path8425"
           style="fill:none;stroke:#000000;stroke-width:0.80000001;stroke-linecap:round;marker-start:none;marker-end:none" />
        <path
           d="M -1.2866832,4.1775838 3.0617053,0.21974226"
           id="path8427"
           style="fill:none;stroke:#000000;stroke-width:0.80000001;stroke-linecap:round;marker-start:none;marker-end:none" />
        <path
           d="M 1.3053582,4.1775838 5.6537466,0.21974226"
           id="path8429"
           style="fill:none;stroke:#000000;stroke-width:0.80000001;stroke-linecap:round;marker-start:none;marker-end:none" />
      </g>
    </marker>
    <marker
       refX="0"
       refY="0"
       orient="auto"
       id="Arrow1Send"
       style="overflow:visible">
      <path
         d="M 0,0 5,-5 -12.5,0 5,5 0,0 z"
         transform="matrix(-0.2,0,0,-0.2,-1.2,0)"
         id="path8396"
         style="fill-rule:evenodd;stroke:#000000;stroke-width:1pt;marker-start:none" />
    </marker>
    <marker
       refX="0"
       refY="0"
       orient="auto"
       id="Arrow1Lstart"
       style="overflow:visible">
      <path
         d="M 0,0 5,-5 -12.5,0 5,5 0,0 z"
         transform="matrix(0.8,0,0,0.8,10,0)"
         id="path8381"
         style="fill-rule:evenodd;stroke:#000000;stroke-width:1pt;marker-start:none" />
    </marker>
  </defs>
  <metadata
     id="metadata7">
    <rdf:RDF>
      <cc:Work
         rdf:about="">
        <dc:format>image/svg+xml</dc:format>
        <dc:type
           rdf:resource="http://purl.org/dc/dcmitype/StillImage" />
        <dc:title></dc:title>
      </cc:Work>
    </rdf:RDF>
  </metadata>
  <g
     transform="translate(-1038.3424,-59.696836)"
     id="layer4"
     style="display:inline">
    <g
       transform="translate(-21.110689,2.4358488)"
       id="g4176"
       style="display:inline">
      <path
         d="m 1059.4531,364.23361 0,-306.972623 495.2145,0 495.2145,0 0,306.972623 0,283.02738 -495.2145,0 -495.2145,0 z"
         id="path4182"
         style="fill:#ddddd1;fill-opacity:1" />
      <path
         d="m 1059.4531,364.23361 0,-306.972623 495.2145,0 495.2145,0 0,306.972623 0,283.02738 -495.2145,0 -495.2145,0 z m 85.2314,249.08586 c 1.4704,-3.83178 -0.132,-7.82632 -4.01,-9.99658 -5.8318,-3.26366 -6.4587,-19.62645 -6.4558,-168.51524 l 0,-164.90061 420.4926,0 420.4925,0 0,165.19483 c 0,143.21427 -0.7845,165.49589 -5.8954,167.45714 -5.9102,2.26792 -8.4861,17.1953 -2.9478,17.08222 13.1492,-0.26843 13.3426,-3.5286 13.1642,-221.97235 -0.097,-118.42762 -0.8137,-215.96087 -1.5934,-216.74052 -2.2727,-2.27282 -844.6548,-1.87907 -846.9298,0.39588 -3.1851,3.18516 -2.4379,428.62785 0.7619,433.80532 4.0181,6.5013 10.053,5.6557 12.9179,-1.81009 z m -3.6782,-350.20566 c -5.9141,-1.41332 -6.878,-6.56071 -6.878,-36.72796 l 0,-35.08428 74.6752,0 74.6752,0 0.06,16.70366 c 0.033,9.18702 1.4716,18.92691 3.1967,21.6442 2.4788,3.90431 59.1398,4.72865 270.1462,3.93028 l 267.0095,-1.01027 -0.3561,-20.63393 -0.356,-20.63394 76.0138,0 76.0139,0 0,37.3376 c 0,30.5688 -1.0688,37.3376 -5.8954,37.3376 -3.2425,0 -5.8955,-1.58237 -5.8955,-3.51637 0,-1.96289 -5.8451,-2.19808 -13.2306,-0.53237 -7.2769,1.6412 -16.12,1.36706 -19.6514,-0.6092 -3.5314,-1.97626 -6.4204,-2.17885 -6.4201,-0.4502 4e-4,1.72865 -12.3795,3.143 -27.5109,3.143 -15.1314,0 -27.512,-1.38869 -27.5126,-3.08599 -5e-4,-1.69729 -3.096,-1.69729 -6.8789,0 -3.7829,1.6973 -12.1839,2.88209 -18.6688,2.63287 -6.485,-0.24922 -48.4898,-0.69138 -93.344,-0.98257 -78.7565,-0.51129 -81.5532,-0.799 -81.5532,-8.38999 0,-7.35698 2.7067,-7.87718 42.2505,-8.12016 23.2377,-0.14278 57.558,-0.04 76.2672,0.22835 20.2139,0.28998 35.0597,-1.19947 36.587,-3.67066 1.798,-2.90932 -78.9682,-4.15863 -268.8507,-4.15863 -185.5126,0 -271.4208,1.29543 -271.4208,4.09281 0,2.68723 22.6083,3.97849 65.8321,3.75994 215.1534,-1.08786 228.9384,-0.61408 228.9384,7.86835 0,7.72144 -2.73,7.86638 -154.2632,8.19008 -84.8448,0.18122 -163.1064,0.17096 -173.9146,-0.0228 -29.605,-0.53079 -72.9564,0.12113 -88.4312,1.32983 -7.5658,0.59094 -16.851,0.33478 -20.6339,-0.56924 z m -0.1327,-39.38748 c -0.9005,-5.94454 -1.6373,-1.08083 -1.6373,10.80825 0,11.88908 0.7368,16.75279 1.6373,10.80825 0.9006,-5.94454 0.9006,-15.67196 0,-21.6165 z m 713.7512,7.83833 c 1.1276,-7.23204 0.4338,-11.83064 -1.5958,-10.5763 -1.975,1.22062 -3.5909,7.71556 -3.5909,14.43322 0,15.0894 2.5252,13.21157 5.1867,-3.85692 z m 116.6518,10.83047 c 0,-2.16165 -1.7686,-3.93028 -3.9303,-3.93028 -2.1616,0 -3.9303,1.76863 -3.9303,3.93028 0,2.16165 1.7687,3.93027 3.9303,3.93027 2.1617,0 3.9303,-1.76862 3.9303,-3.93027 z m -61.4793,-31.01969 c -1.8288,-2.32174 -13.1959,7.88561 -13.1959,11.84956 0,1.89697 3.2425,0.35396 7.2055,-3.42895 3.963,-3.78289 6.6587,-7.57216 5.9904,-8.42061 z m -700.9938,5.47291 c -5.4267,-6.53875 -17.6277,-8.22976 -13.7163,-1.90103 1.3577,2.19691 3.9928,3.05237 5.8558,1.90103 1.8629,-1.15135 4.498,-0.29587 5.8557,1.90102 1.3578,2.19692 3.4652,3.99439 4.6831,3.99439 1.218,0 0.013,-2.65294 -2.6783,-5.89541 z m 51.0936,-4.71633 c 0,-7.29905 -1.2672,-9.3446 -4.0592,-6.55262 -2.2325,2.23251 -2.9276,7.0078 -1.5446,10.61174 3.6406,9.48722 5.6038,8.06518 5.6038,-4.05912 z m 604.0555,-4.05199 c -0.9965,-3.82403 -1.8774,-1.64691 -1.9575,4.83804 -0.08,6.48496 0.7352,9.6137 1.8118,6.95278 1.0766,-2.66092 1.1421,-7.96679 0.1459,-11.79082 z m 103.7088,-7.81186 c -3.5482,-5.99487 -3.9108,-5.58883 -2.5216,2.82422 2.8537,17.2825 3.0873,17.80454 4.892,10.93174 0.9754,-3.71497 -0.091,-9.90515 -2.3704,-13.75596 z m -824.5338,2.82422 c 1.1306,-4.3233 0.4526,-7.86055 -1.5067,-7.86055 -1.9593,0 -3.5623,3.53725 -3.5623,7.86055 0,4.3233 0.678,7.86055 1.5067,7.86055 0.8287,0 2.4318,-3.53725 3.5623,-7.86055 z m 815.1127,-0.73693 c -1.2546,-3.13531 -2.1859,-2.204 -2.3745,2.37454 -0.1706,4.14317 0.7582,6.46448 2.0642,5.15849 1.306,-1.306 1.4456,-4.69586 0.3101,-7.53303 z m -372.1305,49.86535 c 0,-4.58532 5.2403,-5.89541 23.5816,-5.89541 16.2131,0 23.6004,1.53513 23.6418,4.91284 0.046,3.72251 0.7805,3.78002 3.033,0.23735 4.1408,-6.51247 28.349,-5.36536 28.349,1.34333 0,4.08973 -8.9594,5.2973 -39.3027,5.2973 -32.3156,0 -39.3027,-1.04807 -39.3027,-5.89541 z m -193.3204,-32.16188 c 2.8372,-1.13534 6.2271,-0.99571 7.5331,0.3103 1.306,1.306 -1.0154,2.23491 -5.1585,2.06426 -4.5786,-0.18858 -5.5099,-1.1199 -2.3746,-2.37456 z m 215.8376,397.26792 c -1.3061,-1.30599 -4.6959,-1.44559 -7.5331,-0.3101 -3.1353,1.25463 -2.204,2.18594 2.3746,2.37452 4.1431,0.17057 6.4645,-0.75827 5.1585,-2.06426 z m -2.8659,-12.03646 c 0,-2.88219 -2.6529,-5.24035 -5.8954,-5.24035 -3.2424,0 -5.8954,2.35816 -5.8954,5.24035 0,2.88223 2.653,5.24039 5.8954,5.24039 3.2425,0 5.8954,-2.35816 5.8954,-5.24039 z M 1401.8794,595.1372 c 0.2709,-2.70207 0.083,-13.75596 -0.4182,-24.56422 -2.0824,-44.93776 -1.6547,-159.21122 0.694,-185.38311 3.8866,-43.31045 12.1437,-40.91418 -136.7341,-39.6811 l -125.3974,1.03861 0,31.44219 c 0,17.29321 1.3352,39.29126 2.967,48.88455 2.1091,12.39899 1.5409,18.45169 -1.9651,20.93315 -3.9402,2.78876 -3.9441,3.89172 -0.019,5.48422 2.7021,1.09643 4.9129,3.71906 4.9129,5.82817 0,2.1091 -1.7687,2.74164 -3.9303,1.40566 -2.1916,-1.35449 -3.9037,1.58551 -3.8701,6.64601 0.049,7.37748 0.799,7.97229 4.0101,3.17967 2.8177,-4.20566 3.7509,1.42689 3.2558,19.65137 -0.3818,14.05073 -2.6285,26.84617 -4.9927,28.43432 -2.9042,1.95087 -2.6297,2.90702 0.8463,2.9477 2.8296,0.0314 4.2525,1.50384 3.162,3.26834 -2.8399,4.59512 -6.3161,68.32883 -3.9367,72.17869 1.094,1.77023 60.2494,3.21862 131.4563,3.21862 100.6908,0 129.5765,-1.09195 129.9595,-4.91284 z m -158.7496,-4.46987 c -10.3029,-2.83553 -19.8829,-6.306 -21.289,-7.7121 -5.5876,-5.58755 1.815,-5.84938 16.5902,-0.58686 16.7449,5.96407 37.13,6.83384 52.9082,2.25739 6.3532,-1.84271 -0.1602,-2.88899 -18.4301,-2.96052 -37.4325,-0.1466 -65.9656,-13.55795 -87.9108,-41.3207 -8.5236,-10.78321 -15.4975,-18.28748 -15.4975,-16.67619 0,1.61133 4.8575,9.28677 10.7946,17.0566 5.937,7.7698 10.2111,15.89556 9.4981,18.05721 -0.713,2.16165 -0.022,2.65608 1.5352,1.09871 3.4368,-3.43687 25.3353,11.52254 25.3353,17.30716 0,2.26309 -4.6383,1.07552 -10.3074,-2.63902 -8.875,-5.81512 -11.6648,-6.02735 -20.0736,-1.52711 -8.822,4.7214 -10.4948,4.32656 -17.306,-4.08485 -6.871,-8.48538 -6.9937,-9.91506 -1.3828,-16.11503 5.615,-6.20453 5.4235,-8.04712 -2.1754,-20.92631 -4.583,-7.76748 -7.0347,-16.22283 -5.4484,-18.78962 1.7128,-2.77135 1.2086,-3.63122 -1.2414,-2.11704 -6.2252,3.84743 -8.8854,-7.01707 -8.8259,-36.04666 0.061,-29.70171 3.4436,-47.02364 7.8052,-39.96656 2.0027,3.24051 3.5411,2.75988 5.2268,-1.63287 1.3138,-3.42374 0.7135,-6.22497 -1.334,-6.22497 -2.1548,0 -1.8608,-4.08622 0.6981,-9.70243 2.4314,-5.33637 5.5691,-8.99274 6.9726,-8.12529 4.7,2.90475 2.2583,-17.0902 -2.6912,-22.03838 -3.8935,-3.89239 -3.1982,-6.67989 3.4244,-13.72935 7.779,-8.2803 8.9114,-8.45119 17.7275,-2.67467 7.3276,4.80122 8.4313,7.35908 4.9733,11.52576 -2.4444,2.94527 -6.2858,4.21695 -8.5365,2.82595 -2.3765,-1.46874 -2.9165,-0.62668 -1.2879,2.00841 1.5424,2.49564 0.9314,4.53754 -1.3579,4.53754 -2.2892,0 -4.1622,2.81726 -4.1622,6.26061 0,4.31642 3.9667,2.18052 12.7734,-6.87798 7.0254,-7.22624 11.2593,-14.24319 9.4089,-15.59328 -1.8505,-1.35009 6.9824,-7.517 19.6287,-13.70426 19.1789,-9.38338 27.9614,-11.24954 52.9423,-11.24954 25.8243,0 33.2199,1.68681 53.6962,12.24727 21.598,11.13898 24.3064,11.6878 29.9292,6.06507 5.6227,-5.62276 7.0781,-5.3405 16.083,3.11911 8.9667,8.42379 9.3345,9.92712 3.8981,15.93419 -5.4232,5.99261 -4.9597,8.6775 4.8019,27.8149 15.1531,29.70741 16.8669,71.18948 4.2039,101.75267 -4.926,11.88908 -11.1514,21.83758 -13.8344,22.10779 -8.8283,0.88914 -8.8804,1.40177 -0.9478,9.3344 9.4665,9.4665 9.8367,14.30643 1.7154,22.42771 -4.7542,4.75418 -8.0903,5.20518 -14.7385,1.99249 -10.5224,-5.08487 -22.1852,-4.84645 -21.1484,0.43226 1.0245,5.21649 -32.2098,17.13552 -55.317,19.83872 -10.4172,1.21866 -26.8317,-0.092 -37.3264,-2.98033 z m 111.0938,-29.92003 c 0,-2.16165 -0.7799,-3.93027 -1.7332,-3.93027 -0.9532,0 -2.8262,1.76862 -4.1622,3.93027 -1.336,2.16165 -0.556,3.93027 1.7332,3.93027 2.2892,0 4.1622,-1.76862 4.1622,-3.93027 z m -169.0017,-3.93027 c 0,-2.16165 -1.873,-3.93028 -4.1623,-3.93028 -2.2892,0 -3.0691,1.76863 -1.7332,3.93028 1.336,2.16165 3.209,3.93027 4.1623,3.93027 0.9532,0 1.7332,-1.76862 1.7332,-3.93027 z m 178.6596,0.27158 c 1.2436,-2.0123 0.4637,-4.76962 -1.7332,-6.12738 -2.1969,-1.35775 -3.9944,0.28864 -3.9944,3.6587 0,6.90364 2.3584,7.92013 5.7276,2.46868 z m -69.5945,-64.29279 c 12.5566,-11.49287 11.5116,-28.24146 -2.6454,-42.3985 -12.4645,-12.46447 -19.7143,-13.98454 -32.9855,-6.91626 -11.6557,6.20791 -18.1355,15.31596 -18.2854,25.70246 -0.4544,31.47524 30.5097,45.03582 53.9163,23.6123 z m -38.3202,-2.79345 c -15.1057,-15.10569 -5.8845,-43.23301 14.1735,-43.23301 22.9632,0 35.8194,31.83726 14.9693,37.0703 -14.6479,3.67638 -24.1185,-0.5296 -28.565,-12.68602 l -3.8875,-10.62832 -0.3103,10.1991 c -0.1707,5.60952 3.2341,13.40679 7.5662,17.32728 6.5627,5.93911 9.5437,6.36854 17.8712,2.57425 13.6223,-6.20673 16.5983,-5.71933 7.4283,1.21658 -10.5727,7.99673 -20.0021,7.40341 -29.2457,-1.84016 z m 132.8201,-2.53023 c -1.1454,-5.40342 -2.1337,-4.41511 -3.8108,3.81079 -1.4623,7.17205 -0.9145,9.75636 1.5463,7.29546 2.096,-2.09594 3.115,-7.09375 2.2645,-11.10625 z m -0.4118,-31.85966 c -0.9886,-3.78289 -1.7975,-0.6878 -1.7975,6.87798 0,7.56577 0.8089,10.66086 1.7975,6.87798 0.9885,-3.78289 0.9885,-9.97307 0,-13.75596 z m -19.9148,-44.722 c -4.1577,-5.93585 -4.874,-10.67765 -2.3309,-15.42947 2.6432,-4.93882 2.0537,-7.48076 -2.1049,-9.07657 -3.177,-1.21913 -5.3554,-0.95376 -4.8409,0.5897 0.5145,1.54342 -0.8212,2.80625 -2.9682,2.80625 -2.1469,0 -3.3997,-2.65293 -2.7838,-5.89541 0.9243,-4.86607 0.4801,-4.94711 -2.5441,-0.4642 -2.913,4.31803 -5.0485,3.31801 -10.4195,-4.87908 -3.7156,-5.67068 -8.2788,-9.36891 -10.1405,-8.21832 -1.8617,1.15062 -8.6549,-0.63321 -15.096,-3.964 -6.4411,-3.33083 -15.7783,-5.9983 -20.7494,-5.92773 -5.4463,0.0773 -0.9669,2.91756 11.2716,7.1469 25.9817,8.97863 46.1169,24.40504 57.309,43.90694 4.866,8.47866 9.4215,13.74145 10.1235,11.69508 0.702,-2.04634 -1.4247,-7.5769 -4.7259,-12.29009 z m -140.0054,-40.34096 c 0,-0.84956 -2.7448,-2.59791 -6.0996,-3.88527 -3.4976,-1.34215 -5.0752,-0.68328 -3.6983,1.54464 2.3081,3.73458 9.7979,5.5238 9.7979,2.34063 z m 5.8954,-6.31591 c -1.336,-2.16165 -4.5355,-3.90319 -7.11,-3.87009 -2.8125,0.0362 -2.3278,1.58087 1.2146,3.87009 7.5505,4.87956 8.9111,4.87956 5.8954,0 z m 15.7211,-3.93027 c -10.818,-4.64866 -14.6639,-4.64866 -11.7908,0 1.3359,2.16165 6.304,3.80597 11.0402,3.65403 8.3021,-0.26633 8.3291,-0.39744 0.7506,-3.65403 z m 34.9423,-3.23432 c 1.0994,-1.77887 -4.0969,-3.10534 -11.5473,-2.9477 -7.4504,0.15764 -13.5514,1.61308 -13.5578,3.23431 -0.016,4.01602 22.6056,3.75776 25.1051,-0.28659 z m 134.0594,222.30955 c 0,-15.51531 0.8142,-16.78498 11.7909,-18.38716 11.3165,-1.65178 11.1584,-1.82699 -3.9303,-4.3551 -8.6466,-1.44877 34.6847,-2.57983 96.2917,-2.51349 61.607,0.0664 100.5167,1.27876 86.466,2.69421 -29.429,2.96464 -27.521,4.88949 3.9303,3.96497 11.8891,-0.3494 22.206,-2.26886 22.9266,-4.26532 0.7205,-1.99647 14.8695,-3.31763 31.4422,-2.93588 l 30.1321,0.69401 -27.5119,2.42914 -27.512,2.42911 23.5817,1.78969 23.5816,1.78969 0.063,17.68623 c 0.035,9.72743 1.8031,17.2458 3.9303,16.70751 2.4028,-0.60805 4.2573,-46.65073 4.8968,-121.58066 0.8686,-101.77624 1.9687,-121.64006 7.0476,-127.25216 5.4149,-5.9834 5.378,-6.8959 -0.3682,-9.10092 -10.0514,-3.85706 -303.7246,-2.86495 -306.1344,1.0342 -1.1846,1.91672 0.4797,5.67053 3.6984,8.34179 4.5767,3.79842 5.8521,14.94981 5.8521,51.17096 0,43.42701 0.4615,46.19337 7.4039,44.3779 8.023,-2.09806 7.1662,-16.92934 -0.9844,-17.03947 -3.2552,-0.044 -3.2356,-0.83754 0.073,-2.9477 2.49,-1.58815 49.8006,-2.38714 105.1348,-1.77558 l 100.6075,1.11199 0,11.6614 0,11.66143 37.3376,0 37.3376,0 -0.3101,18.6688 c -0.1705,10.26784 -1.2023,16.45802 -2.2926,13.75596 -1.3779,-3.41474 -12.6688,-4.91284 -37.0273,-4.91284 -39.6332,0 -36.7207,-3.16199 -35.2966,38.32017 0.5295,15.42506 -0.7291,24.56421 -3.3829,24.56421 -2.3887,0 -4.2262,-7.69029 -4.2262,-17.68623 0,-16.809 -0.5536,-17.68624 -11.1599,-17.68624 -8.0289,0 -12.3908,2.70132 -15.5469,9.62815 l -4.3869,9.62815 -68.7412,-0.72006 c -67.2937,-0.70494 -68.8268,-0.90766 -72.8001,-9.62815 -3.0994,-6.8024 -7.3303,-8.90809 -17.899,-8.90809 l -13.8402,0 0,20.63394 0,20.63394 143.4565,-1.07764 c 94.8354,-0.7124 143.4566,0.27001 143.4566,2.89865 0,2.5895 -49.6907,4.33616 -142.4724,5.00796 l -142.4724,1.03158 -1.1688,24.51229 c -0.8972,18.81713 0.016,24.05909 3.9303,22.56154 3.0702,-1.17456 5.099,-8.58203 5.099,-18.61688 z m 233.8513,-62.65348 c 0,-8.80672 1.7643,-10.98963 8.8431,-10.94145 10.9027,0.0743 16.3804,3.86067 17.7579,12.27487 0.7716,4.71362 -2.652,6.87228 -12.7734,8.05392 -12.9078,1.50691 -13.8276,0.8825 -13.8276,-9.38734 z m -10.8082,-92.49601 c 10.2678,-0.80963 27.0697,-0.80963 37.3376,0 10.2678,0.80964 1.8668,1.47205 -18.6688,1.47205 -20.5357,0 -28.9367,-0.66241 -18.6688,-1.47205 z m -228.9385,-40.56997 0,-27.28604 141.4899,0 141.4898,0 0,26.97496 0,26.97496 -141.4898,0.31088 -141.4899,0.31089 0,-27.28604 z m 86.228,1.90418 c -2.4029,-2.89532 -3.228,-7.11034 -1.8335,-9.36671 1.4428,-2.3345 -0.8988,-4.10242 -5.4337,-4.10242 -5.469,0 -7.2594,1.84959 -5.7069,5.89541 1.4326,3.73313 -0.054,5.89541 -4.0536,5.89541 -9.5982,0 -7.5419,7.11545 2.5272,8.7449 13.6421,2.20767 19.7337,-0.76098 14.5005,-7.06659 z m 122.5227,-1.40256 c -2.9609,-1.82994 -4.1682,-5.29353 -2.6829,-7.69689 1.6988,-2.74872 -0.6658,-4.25456 -6.3744,-4.05938 -4.9913,0.17057 -6.8643,1.20234 -4.1623,2.29264 7.5762,3.05705 5.8389,7.97268 -3.9302,11.12075 -8.3792,2.70018 -8.2246,2.99731 2.9477,5.66392 13.1471,3.13797 22.9494,-1.91495 14.2021,-7.32104 z m 347.3831,187.40119 c 0,-14.58764 -1.3265,-26.52585 -2.9478,-26.52935 -1.6212,-0.003 -2.9477,-1.87938 -2.9477,-4.1686 0,-2.28923 2.2108,-2.83404 4.9129,-1.21068 3.7164,2.23274 3.6765,1.42519 -0.1639,-3.31613 -4.149,-5.12213 -4.149,-6.69668 0,-8.61497 4.0113,-1.85465 4.0457,-2.82858 0.1639,-4.64 -6.2394,-2.91174 -6.3491,-14.35041 -0.1965,-20.50294 3.6682,-3.66824 3.6576,-4.71633 -0.048,-4.71633 -3.4552,0 -4.6522,-11.33982 -4.3572,-41.27786 0.2237,-22.70283 1.9627,-40.31627 3.8644,-39.141 1.9016,1.17527 3.222,-4.12608 2.9343,-11.78084 -0.2879,-7.65472 -2.0676,-13.91769 -3.9551,-13.91769 -1.8875,0 -1.6009,-3.42099 0.6368,-7.60217 5.1606,-9.64254 5.2975,-34.40739 0.208,-37.55306 -2.1235,-1.31237 -58.9465,-2.36967 -126.2734,-2.34957 -141.3963,0.0422 -136.6914,-1.10314 -135.1766,32.90706 0.502,11.27123 2.2709,27.31917 3.9309,35.66208 2.2321,11.21838 1.6037,16.06472 -2.4129,18.60859 -3.922,2.48401 -4.0659,3.45644 -0.5181,3.49991 3.5987,0.044 4.9128,10.57298 4.9128,39.36291 0,21.6165 -1.6121,39.30274 -3.5825,39.30274 -3.9958,0 -3.3993,10.04935 0.8486,14.29723 3.6826,3.68263 3.5003,25.00495 -0.2138,25.0077 -2.3603,0.002 -3.3627,31.13449 -1.4253,44.26636 0.2433,1.65036 59.2494,2.53468 131.1243,1.96514 l 130.6815,-1.03555 0,-26.52298 z m -150.333,21.78413 c -17.7957,-3.42763 -8.1763,-8.1045 15.7211,-7.64344 32.983,0.63631 67.4523,-12.66071 83.5183,-32.21846 l 11.7908,-14.35336 -14.7916,12.6999 c -28.5582,24.5198 -62.8458,35.01158 -94.8683,29.02912 -13.9491,-2.60597 -16.9846,-2.19541 -15.3457,2.07542 2.4373,6.3516 -2.4241,6.7394 -16.6556,1.32859 -9.2777,-3.52738 -9.8831,-4.79348 -5.1687,-10.80825 4.7986,-6.12207 4.6601,-6.28042 -1.3658,-1.56166 -7.3564,5.76072 -16.6151,2.65152 -12.4023,-4.16491 1.45,-2.34626 1.0367,-3.46713 -0.9185,-2.49077 -26.3711,13.16834 -25.1606,12.92541 -31.7203,6.36574 -3.4999,-3.49983 -5.2269,-9.15745 -3.8726,-12.68653 1.983,-5.16768 4.124,-5.55508 11.3457,-2.05309 8.0225,3.89038 8.2222,3.76728 2.0234,-1.24637 -7.4509,-6.02629 -9.6546,-16.70201 -2.54,-12.30494 2.3859,1.47452 1.2981,-1.95834 -2.4172,-7.62862 -7.9418,-12.12073 -11.9178,-13.78497 -5.851,-2.44904 2.3137,4.32331 3.2962,7.86055 2.1833,7.86055 -1.113,0 -5.9814,-7.51665 -10.8188,-16.70366 -12.0851,-22.95186 -13.1259,-84.08542 -1.6475,-96.76896 4.0718,-4.49926 8.9355,-7.23351 10.8082,-6.07609 1.8728,1.15743 3.405,0.4804 3.405,-1.50447 0,-1.9849 7.0079,-11.57025 15.573,-21.30078 17.5472,-19.93455 43.1767,-32.64639 74.0894,-36.7471 11.3089,-1.50019 21.5107,-4.26312 22.6706,-6.13985 2.9241,-4.73126 17.3661,-4.30044 17.3661,0.51805 0,2.16165 -3.832,3.93027 -8.5156,3.93027 -10.9303,0 -8.387,2.12063 6.5504,5.4619 8.2994,1.85647 10.0778,1.50085 6.0056,-1.20082 -4.9765,-3.30161 -4.8459,-4.19871 0.9341,-6.41667 4.0534,-1.55545 13.8736,1.61423 24.7515,7.9891 16.5746,9.71339 18.5885,10.06401 24.9156,4.33804 6.3311,-5.72959 7.5795,-5.48879 15.5546,3.00037 7.7477,8.24709 8.0199,9.77034 2.556,14.30498 -3.9273,3.25937 -5.1774,8.02931 -3.4942,13.33247 2.4195,7.6232 2.049,7.80698 -4.8241,2.39283 -6.8428,-5.39026 -7.0171,-5.31845 -2.1552,0.88773 2.9094,3.71379 7.331,6.36673 9.8257,5.89541 2.4948,-0.47132 4.4049,3.03456 4.2448,7.79078 -0.1599,4.75622 0.9941,7.85344 2.5649,6.88266 1.5708,-0.97078 4.7048,3.5387 6.9646,10.0211 2.4949,7.15703 2.6453,11.78614 0.3828,11.78614 -2.0492,0 -3.7258,1.87301 -3.7258,4.16224 0,2.28923 1.7686,3.06915 3.9303,1.73317 5.3381,-3.29919 5.0707,35.03725 -0.3813,54.67412 -3.2877,11.84125 -5.1662,14.09777 -8.1796,9.82568 -2.976,-4.21918 -3.4671,-3.50317 -2.0531,2.99338 1.0223,4.69652 -1.5373,14.12328 -5.6879,20.94836 -4.1506,6.82511 -6.0719,11.4979 -4.2694,10.38394 1.8023,-1.11392 5.2877,1.19433 7.7453,5.12952 3.6493,5.84341 2.821,8.70233 -4.5189,15.59776 -7.9749,7.49208 -9.5504,7.76426 -13.9885,2.41665 -6.3292,-7.62623 -13.4963,-7.67827 -19.7497,-0.14346 -10.4976,12.6488 -60.4822,23.67267 -85.4938,18.85525 z m -23.4001,-17.28562 c -2.9894,-2.98944 -5.0802,-2.7947 -7.2232,0.67279 -1.9441,3.14571 -1.4034,3.88334 1.5215,2.07561 2.4957,-1.54239 4.5376,-0.63658 4.5376,2.01293 0,2.64952 1.2085,3.6087 2.6856,2.13159 1.4772,-1.47712 0.7925,-4.57893 -1.5215,-6.89292 z m 141.8254,-48.92459 c 1.3421,-3.49763 0.6832,-5.07525 -1.5447,-3.69831 -2.1369,1.32065 -3.8852,4.06547 -3.8852,6.09955 0,5.65342 2.8171,4.40764 5.4299,-2.40124 z m -77.4462,-35.36948 c 4.705,-5.16536 9.1667,-7.55481 9.9151,-5.3098 0.7483,2.24497 1.3605,-2.96928 1.3605,-11.5872 0,-8.66193 -1.635,-14.6585 -3.6561,-13.40934 -2.0435,1.26299 -2.6941,-1.41915 -1.475,-6.08116 1.1997,-4.58741 1.0361,-8.11562 -0.3635,-7.84046 -1.3995,0.27512 -7.7815,-1.65201 -14.182,-4.28262 -13.0392,-5.35901 -26.1759,-3.30985 -34.9353,5.44952 -3.9548,3.95483 -6.3365,4.40788 -7.3404,1.39623 -0.8174,-2.45202 -1.7706,2.42749 -2.1184,10.84335 -0.8713,21.08556 5.7491,35.82126 18.1071,40.30315 13.636,4.9453 24.1697,2.06602 34.688,-9.48167 z m -37.1569,-0.0236 c -12.0353,-8.42989 -12.0353,-30.42716 0,-38.85705 18.7193,-13.11151 38.4282,-2.59873 38.4282,20.49772 0,12.66015 -11.3849,24.47758 -23.5816,24.47758 -3.3613,0 -10.0423,-2.75323 -14.8466,-6.11825 z m 25.7629,-3.93028 c 5.5519,-3.88869 8.622,-9.97574 8.4248,-16.70366 l -0.3101,-10.58541 -3.9502,10.81623 c -4.5194,12.37479 -19.9952,18.13806 -28.8877,10.75791 -3.2145,-2.66583 -5.8445,-3.50046 -5.8445,-1.85285 0,3.85222 12.5264,13.39988 17.7943,13.56294 2.2211,0.0688 7.9691,-2.62825 12.7734,-5.99327 z m 101.8162,-53.57277 c -1.2547,-3.1353 -2.186,-2.20402 -2.3746,2.37455 -0.1705,4.14314 0.7583,6.46448 2.0643,5.15849 1.306,-1.30603 1.4456,-4.6959 0.3101,-7.53304 z m -23.6463,-44.28833 c 0,-3.1474 -1.4739,-4.81164 -3.2753,-3.69831 -1.8013,1.11329 -3.2752,0.34036 -3.2752,-1.71753 0,-2.05797 -3.0534,-4.91347 -6.7855,-6.34558 -4.9312,-1.89227 -4.2069,0.14109 2.6503,7.44004 11.0778,11.79185 10.6857,11.63326 10.6857,4.32138 z m -22.2716,-15.75384 c 0,-1.00477 -3.9794,-3.75525 -8.8431,-6.1122 -8.4918,-4.11516 -8.54,-4.04259 -1.2139,1.82683 8.0188,6.42439 10.057,7.2929 10.057,4.28537 z m -176.8623,42.55992 c 0,-1.52707 2.8861,-5.96553 6.4134,-9.86326 5.856,-6.47076 5.8753,-7.9081 0.2217,-16.53635 -5.7933,-8.84162 -5.6369,-9.968 2.4297,-17.50556 7.5558,-7.06026 9.5385,-7.38086 16.0422,-2.59418 5.8453,4.30204 9.1833,4.48228 15.7211,0.84875 4.5651,-2.53715 9.6267,-4.23723 11.2479,-3.77798 1.6213,0.45925 2.9477,-0.79647 2.9477,-2.79049 0,-1.99401 5.7481,-5.51179 12.7734,-7.8173 18.595,-6.1023 54.0413,-9.41196 54.0413,-5.04588 0,3.12121 -18.3177,6.79389 -48.1459,9.6532 -3.7829,0.3626 -6.8779,1.92976 -6.8779,3.48254 0,2.61646 -16.2806,9.30862 -18.8174,7.7349 -0.6221,-0.38596 -5.647,4.66515 -11.1665,11.22466 -5.5194,6.55951 -11.4541,11.04953 -13.1882,9.97783 -1.734,-1.07167 -4.2466,2.40977 -5.5835,7.73658 -2.1768,8.67357 -18.059,22.10508 -18.059,15.27254 z m 35.4472,-34.9276 c 4.1534,-5.00461 3.9103,-5.57973 -1.484,-3.50977 -3.5482,1.36156 -6.4513,4.05498 -6.4513,5.98537 0,5.05418 2.2752,4.34437 7.9353,-2.4756 z m -278.1416,176.07426 c -7.0253,-0.87181 -18.5214,-0.87181 -25.5468,0 -7.0253,0.87185 -1.2773,1.5852 12.7734,1.5852 14.0508,0 19.7988,-0.71335 12.7734,-1.5852 z m 52.9711,-0.0236 c -8.1544,-0.85079 -20.5348,-0.83652 -27.5119,0.0314 -6.9772,0.86824 -0.3054,1.56437 14.8261,1.54692 15.1316,-0.0157 20.8401,-0.72781 12.6858,-1.57864 z m 39.3904,0.15917 c -3.7829,-0.98854 -9.9731,-0.98854 -13.756,0 -3.7829,0.98859 -0.6878,1.79744 6.878,1.79744 7.5658,0 10.6608,-0.80885 6.878,-1.79744 z m -124.7862,-75.8979 c 0,-30.91817 -0.1638,-31.44219 -9.8257,-31.44219 -9.0933,0 -9.8302,1.39163 -9.8859,18.6688 -0.039,12.16875 -1.2546,16.78293 -3.4908,13.25241 -4.1228,-6.50897 -12.1701,-2.47097 -12.1701,6.10674 0,4.00212 2.4958,5.46917 7.208,4.23691 4.8316,-1.26346 9.6907,1.82106 14.7385,9.35598 4.1418,6.18252 8.857,11.24601 10.4783,11.25222 1.6212,0.006 2.9477,-14.13767 2.9477,-31.43087 z m 141.4024,-8.84312 c 0.077,-20.00804 -0.8138,-22.59907 -7.7731,-22.59907 -7.2324,0 -7.8536,2.59103 -7.7732,32.42475 l 0.087,32.42476 7.6859,-9.82568 c 5.5639,-7.11305 7.7099,-16.06476 7.7731,-32.42476 z m -23.4959,-3.71493 0,-22.38374 -18.6688,-1.19791 c -10.2679,-0.65883 -35.9129,-0.63827 -56.989,0.0456 l -38.3202,1.24362 -7e-4,22.33803 -8e-4,22.33806 56.988,0 56.9881,0 0,-22.38373 z m -90.3946,13.40612 c -8.998,-3.09332 -11.6563,-9.47672 -7.3204,-17.57846 5.2656,-9.83882 20.6976,-7.53713 22.2486,3.31837 1.3743,9.61875 -6.513,17.15309 -14.9282,14.26009 z m 53.8307,-6.14887 c -1.2085,-3.14929 0.2307,-8.99298 3.198,-12.98598 4.2948,-5.77912 6.8452,-6.37094 12.5034,-2.90137 10.9665,6.72446 9.0441,18.99851 -3.1979,20.4182 -6.2789,0.72813 -11.1649,-1.04234 -12.5035,-4.53085 z m 78.0451,12.8189 c 4.0502,-6.55342 -5.0591,-14.06846 -10.4809,-8.6466 -4.5353,4.53522 -1.6968,12.91932 4.3738,12.91932 1.9065,0 4.6547,-1.92273 6.1071,-4.27272 z m -199.8057,-30.11718 c -0.9005,-5.94454 -1.6373,-1.08082 -1.6373,10.80825 0,11.88908 0.7368,16.7528 1.6373,10.80826 0.9006,-5.94454 0.9006,-15.67197 0,-21.61651 z m 294.6403,-17.44059 c -1.2546,-3.1353 -2.186,-2.20402 -2.3745,2.37456 -0.1706,4.14313 0.7582,6.46447 2.0642,5.15848 1.306,-1.30603 1.4456,-4.69589 0.3101,-7.53304 z m -93.0811,-5.15848 c 0,-3.24248 -0.6951,-5.89541 -1.5447,-5.89541 -0.8495,0 -2.5626,2.65293 -3.8069,5.89541 -1.2442,3.24247 -0.5491,5.89541 1.5446,5.89541 2.0939,0 3.807,-2.65294 3.807,-5.89541 z M 1890.3629,333.0163 c -6.6736,-1.59543 -14.6324,-4.19849 -17.6862,-5.78456 -3.0538,-1.58608 -2.1192,-0.0997 2.0768,3.30309 4.196,3.40277 12.1549,6.00583 17.6862,5.78456 9.2465,-0.36988 9.0791,-0.63611 -2.0768,-3.30309 z m 29.8201,-22.70891 c 0,-21.13761 -16.0069,-34.82805 -35.6713,-30.50903 -11.2243,2.46528 -23.4187,18.35232 -23.1797,30.19881 0.057,2.80941 3.1518,-1.08216 6.878,-8.64794 3.7262,-7.56577 9.0559,-14.22153 11.8439,-14.79057 3.0476,-0.62205 1.7164,3.4999 -3.3383,10.33683 -6.8749,9.29882 -7.5991,12.88161 -3.973,19.657 10.4003,19.43313 38.8633,11.70985 40.1688,-10.89956 0.575,-9.9583 0.6283,-9.93571 2.2597,0.95672 1.0589,7.07031 -0.9559,14.26708 -5.5017,19.65136 l -7.1726,8.49555 8.8431,-7.48712 c 4.8637,-4.11792 8.8431,-11.75084 8.8431,-16.96205 z m -17.3067,-12.2744 c -1.3601,-2.20064 -0.5577,-5.18478 1.783,-6.63143 6.0427,-3.73461 9.9415,1.38091 4.8971,6.42536 -2.8227,2.82264 -5.021,2.89046 -6.6801,0.20606 z m -184.995,23.14137 c -1.0923,-1.76736 0.4649,-5.24743 3.4605,-7.73349 3.0044,-2.49347 4.5032,-8.1267 3.3428,-12.56409 -3.6447,-13.9374 -28.5272,-18.09841 -28.5272,-4.77051 0,3.13878 -1.7686,4.6138 -3.9302,3.27783 -5.718,-3.53393 -4.8242,0.87748 2.4171,11.9291 3.4911,5.32807 9.7857,9.6874 13.9879,9.6874 4.7745,0 6.5886,1.70204 4.8362,4.53753 -1.7515,2.83389 -1.0767,3.46975 1.7972,1.69357 2.5309,-1.56419 3.708,-4.28999 2.6157,-6.05734 z m -481.5659,-4.10403 c 0,-4.36697 -2.6202,-7.86055 -5.8954,-7.86055 -3.2752,0 -5.8954,3.49358 -5.8954,7.86055 0,4.36697 2.6202,7.86055 5.8954,7.86055 3.2752,0 5.8954,-3.49358 5.8954,-7.86055 z m 57.8588,-2.81457 c 1.7928,-4.67212 2.7909,-4.75589 5.5124,-0.46268 2.402,3.78934 3.3398,2.86913 3.3833,-3.32 0.1184,-16.84061 -22.8907,-27.83389 -34.3248,-16.39974 -3.3998,3.39971 -3.1472,7.15982 1.0223,15.22279 3.0455,5.88934 4.6623,11.58287 3.5928,12.6523 -1.0694,1.06943 2.6837,1.05971 8.3402,-0.0216 5.6565,-1.08131 11.2697,-4.53329 12.4738,-7.67107 z m 50.2237,6.74484 c -1.3359,-2.16165 -0.556,-3.93027 1.7332,-3.93027 2.2892,0 4.1623,-6.33757 4.1623,-14.08348 0,-9.50697 -1.5965,-13.55927 -4.9129,-12.47029 -8.0687,2.64945 -8.8754,34.41432 -0.874,34.41432 1.2763,0 1.2274,-1.76863 -0.1086,-3.93028 z m 44.4616,-15.45351 c 0.9137,-12.50039 -0.093,-16.37329 -3.9303,-15.11253 -6.2426,2.05132 -9.3852,22.70549 -3.4547,22.70549 2.3052,0 4.1913,1.87301 4.1913,4.16223 0,2.28922 -1.7686,3.06916 -3.9303,1.73318 -2.1616,-1.33597 -3.9302,-0.40865 -3.9302,2.06071 0,2.46936 2.2107,3.76275 4.9128,2.8742 2.7021,-0.88856 5.4657,-9.17903 6.1414,-18.42328 z m 79.3421,1.69755 c 0,-13.10091 -1.5285,-17.68623 -5.8955,-17.68623 -3.2424,0 -5.8954,1.87301 -5.8954,4.16223 0,2.28922 1.7687,3.06916 3.9303,1.73318 2.1617,-1.33597 3.9303,-0.55604 3.9303,1.73319 0,2.28922 -1.7686,4.16222 -3.9303,4.16222 -2.1616,0 -3.9303,3.53725 -3.9303,7.86055 0,4.3233 2.2108,7.88763 4.9129,7.92073 3.2752,0.0401 2.9477,1.33015 -0.9826,3.87009 -5.0382,3.25594 -4.8953,3.81866 0.9826,3.87009 5.5404,0.0485 6.878,-3.37927 6.878,-17.62605 z m 64.3326,5.4406 c 2.8337,-4.04565 6.6778,-6.04051 8.5424,-4.43303 1.8646,1.60749 0.6059,-1.49885 -2.7971,-6.90298 -4.264,-6.77149 -9.7032,-9.82568 -17.4986,-9.82568 -10.5453,0 -11.3406,1.08737 -11.7418,16.05307 -0.3991,14.8905 0.2496,15.92313 8.9564,14.25871 5.1626,-0.98691 11.7051,-5.10445 14.5387,-9.15009 z m 60.4535,7.33279 c -0.5404,-2.70206 0.8666,-4.59124 3.1266,-4.19817 4.7808,0.83149 5.1638,-14.15391 0.5456,-21.34861 -3.9639,-6.17545 -24.8576,-6.44952 -28.6117,-0.3753 -1.5514,2.51035 -1.0949,3.48103 1.0221,2.17271 2.2647,-1.39971 3.1597,2.17719 2.1929,8.76441 -1.5828,10.78413 0.8807,13.00526 21.7245,19.58753 0.5405,0.17065 0.5405,-1.9005 0,-4.60256 z m 69.4893,-17.62446 c -2.9311,-8.38633 -6.7015,-11.15143 -16.5015,-12.1016 -9.6028,-0.93106 -12.7024,0.32437 -12.7024,5.14479 0,3.50701 -1.3265,5.55658 -2.9478,4.55459 -1.6212,-1.00198 -2.9477,2.26201 -2.9477,7.25329 0,4.99129 1.2043,8.3308 2.6762,7.42113 1.4719,-0.90966 3.8756,0.28684 5.3416,2.65891 1.4981,2.42397 6.9252,3.24371 12.3917,1.87171 7.2489,-1.81936 9.0008,-1.14968 6.8781,2.62925 -1.5664,2.7887 0.4052,2.00308 4.3814,-1.74583 5.8108,-5.47863 6.484,-8.9493 3.4304,-17.68624 z m 104.4254,4.52355 c 0,-23.19653 -9.306,-21.83402 -11.0343,1.61556 -0.9391,12.74235 0.1562,16.3982 4.9129,16.3982 4.6512,0 6.1214,-4.32616 6.1214,-18.01376 z m -7.24,-5.56789 c 0,-5.40412 0.8921,-7.6149 1.9824,-4.91284 1.0902,2.70206 1.0902,7.12362 0,9.82569 -1.0903,2.70206 -1.9824,0.49128 -1.9824,-4.91285 z m -562.6497,13.75596 c 0,-3.24247 -1.7686,-5.89541 -3.9303,-5.89541 -2.1616,0 -3.9303,2.65294 -3.9303,5.89541 0,3.24248 1.7687,5.89541 3.9303,5.89541 2.1617,0 3.9303,-2.65293 3.9303,-5.89541 z m 231.8861,-1.96514 c 0,-4.36697 -2.6202,-7.86054 -5.8954,-7.86054 -3.2752,0 -5.8954,3.49357 -5.8954,7.86054 0,4.36697 2.6202,7.86055 5.8954,7.86055 3.2752,0 5.8954,-3.49358 5.8954,-7.86055 z m 389.0971,-7.86054 c 0,-6.48495 -1.603,-11.79082 -3.5623,-11.79082 -1.9593,0 -2.6902,3.9794 -1.6242,8.84311 1.5571,7.10456 1.1102,7.68408 -2.2729,2.94771 -4.6829,-6.55601 -5.5964,-3.93928 -1.9458,5.57396 3.939,10.26485 9.4052,7.02532 9.4052,-5.57396 z m -252.783,-0.73693 c -1.2546,-3.13531 -2.1859,-2.204 -2.3745,2.37454 -0.1706,4.14316 0.7583,6.46448 2.0643,5.15849 1.306,-1.306 1.4456,-4.69586 0.3101,-7.53303 z m -368.2002,-5.15848 c 0,-3.24248 -1.7686,-5.89541 -3.9303,-5.89541 -2.1616,0 -3.9303,2.65293 -3.9303,5.89541 0,3.24247 1.7687,5.89541 3.9303,5.89541 2.1617,0 3.9303,-2.65294 3.9303,-5.89541 z m 39.3027,-1.96514 c 0,-4.98426 -2.5167,-7.74701 -6.878,-7.55026 -4.1088,0.18535 -4.9,1.1084 -1.9651,2.29266 2.7021,1.0903 4.9128,4.48792 4.9128,7.55026 0,3.06234 0.8844,5.56789 1.9652,5.56789 1.0808,0 1.9651,-3.53725 1.9651,-7.86055 z m 189.0687,0.53785 c 2.6564,4.19279 3.4074,3.86224 3.4545,-1.52042 0.033,-3.78289 -2.5927,-6.87798 -5.8352,-6.87798 -3.2425,0 -5.7558,3.09509 -5.5851,6.87798 0.2163,4.79542 0.9554,5.25578 2.4409,1.52042 1.7988,-4.52324 2.6592,-4.52324 5.5249,0 z m 416.1935,-130.20437 c 0,-4.076 95.2235,-2.31396 116.9763,2.16456 10.691,2.20109 12.4267,1.60491 10.4354,-3.58442 -1.3137,-3.42357 -3.5473,-6.07114 -4.9635,-5.8835 -7.7343,1.02474 -12.5682,-1.06903 -10.4354,-4.51998 1.6119,-2.60815 -113.0041,-3.99608 -340.7193,-4.1259 -488.3463,-0.27842 -449.866,-1.04403 -463.8003,9.22785 -9.4827,6.9904 -10.437,8.91742 -4.9639,10.02425 3.7266,0.75363 11.0798,-0.93326 16.3404,-3.74864 8.0341,-4.29972 10.1431,-4.20452 13.1792,0.5949 2.6602,4.20534 3.6303,4.36628 3.6746,0.6096 0.045,-3.79809 5.6902,-4.62139 22.062,-3.21747 12.101,1.03769 22.9921,2.87707 24.2026,4.08751 1.2104,1.21044 4.7091,0.11908 7.7748,-2.42522 4.3383,-3.60048 6.3656,-3.3751 9.1446,1.01667 1.9637,3.10348 3.5976,3.80828 3.6307,1.56622 0.078,-5.25697 16.0374,-6.49911 21.8219,-1.69838 8.596,7.13404 575.6399,7.0473 575.6399,-0.088 z m 3.9302,-25.57929 c 0,-3.24248 -1.7686,-5.89541 -3.9302,-5.89541 -2.1617,0 -3.9303,2.65293 -3.9303,5.89541 0,3.24247 1.7686,5.89541 3.9303,5.89541 2.1616,0 3.9302,-2.65294 3.9302,-5.89541 z m -578.9007,-34.34408 c -0.9401,-4.88891 -1.745,-1.81444 -1.7886,6.83216 -0.044,8.6466 0.7255,12.64663 1.7092,8.88894 0.9838,-3.75768 1.0195,-10.83218 0.079,-15.7211 z m 578.9007,16.65784 c 0,-2.16165 -0.7799,-3.93027 -1.7331,-3.93027 -0.9533,0 -2.8263,1.76862 -4.1623,3.93027 -1.336,2.16165 -0.556,3.93028 1.7332,3.93028 2.2892,0 4.1622,-1.76863 4.1622,-3.93028 z m -1.2454,-16.45802 c -1.2547,-3.13531 -2.186,-2.204 -2.3745,2.37454 -0.1706,4.14317 0.7582,6.46448 2.0642,5.15849 1.306,-1.306 1.4456,-4.69586 0.3101,-7.53303 z m -104.872,-26.592045 c 35.8672,-1.593777 -40.0969,-2.66851 -184.7228,-2.613435 -135.1032,0.05145 -223.5343,1.145172 -196.5137,2.430493 69.2898,3.295994 308.5946,3.410829 381.2365,0.182954 z"
         id="path4180"
         style="fill:#ffcb41;fill-opacity:1" />
      <path
         d="m 1149.6773,623.31018 c -2.067,-3.86224 -3.7582,-9.60228 -3.7582,-12.75558 0,-3.1533 -2.6333,-6.7438 -5.8518,-7.97885 -5.0539,-1.93935 -5.8514,-24.77684 -5.8487,-167.4898 l 0,-165.24426 412.357,0.10128 c 387.7817,0.0953 412.4634,0.50712 414.1412,6.91066 1.677,6.40019 1.8116,6.39606 2.2401,-0.0686 0.2508,-3.78289 3.1089,-6.87798 6.3514,-6.87798 5.1466,0 5.8954,20.93976 5.8954,164.8762 0,128.5554 -1.0939,165.56856 -4.9656,168.0192 -2.731,1.72865 -6.7454,8.44887 -8.9208,14.93382 -3.708,11.05398 -5.3656,11.86456 -26.5242,12.97093 -17.5206,0.91615 -23.0919,-0.18276 -24.907,-4.91284 -2.9265,-7.62621 -9.3576,-7.98733 -9.3576,-0.52539 0,4.76597 -53.7831,5.53131 -373.5481,5.31554 -354.516,-0.23935 -373.7395,-0.60982 -377.3063,-7.27431 z m 451.171,-3.28908 87.4486,-0.31969 0,-10.19246 0,-10.1925 -38.3202,2.83695 c -21.0761,1.56028 -39.6195,4.82044 -41.2077,7.24475 -1.8133,2.76802 -2.9099,1.84908 -2.9477,-2.47013 -0.056,-6.35364 -7.1014,-6.87798 -92.4216,-6.87798 l -92.3614,0 0.01,10.80825 0.01,10.80825 46.1744,-0.66288 c 25.396,-0.36473 85.5264,-0.80676 133.6231,-0.98256 z m -144.4376,-10.43355 c 0,-3.66002 2.6741,-5.66501 6.5523,-4.91284 9.8602,1.91228 11.2141,11.09642 1.6358,11.09642 -4.8277,0 -8.1881,-2.53774 -8.1881,-6.18358 z m 62.8844,2.48527 c 0,-2.03407 1.7686,-4.79139 3.9303,-6.12737 2.1616,-1.33598 3.9303,0.32818 3.9303,3.69831 0,3.37005 -1.7687,6.12737 -3.9303,6.12737 -2.1617,0 -3.9303,-1.66423 -3.9303,-3.69831 z M 1401.8794,595.1372 c 0.2709,-2.70207 0.083,-13.75596 -0.4182,-24.56422 -2.0824,-44.93776 -1.6547,-159.21122 0.694,-185.38311 3.8866,-43.31045 12.1437,-40.91418 -136.7341,-39.6811 l -125.3974,1.03861 0,47.76501 c 0,26.27078 1.2994,45.72563 2.8875,43.23301 1.8918,-2.9692 2.9083,-2.27319 2.9477,2.01847 0.033,3.60273 -2.1506,7.58213 -4.8526,8.84312 -3.9303,1.8341 -3.9303,2.75119 0,4.58529 2.702,1.26099 4.9128,4.01827 4.9128,6.12738 0,2.1091 -1.7686,2.74164 -3.9303,1.40566 -2.1916,-1.35449 -3.9036,1.58551 -3.87,6.64601 0.049,7.37748 0.799,7.97229 4.01,3.17967 2.8178,-4.20566 3.751,1.42689 3.2558,19.65137 -0.3817,14.05073 -2.6284,26.84617 -4.9926,28.43432 -2.9042,1.95087 -2.6297,2.90702 0.8462,2.9477 2.8297,0.0314 4.2526,1.50384 3.1621,3.26834 -2.84,4.59512 -6.3161,68.32883 -3.9368,72.17869 1.0941,1.77023 60.2494,3.21862 131.4563,3.21862 100.6908,0 129.5766,-1.09195 129.9596,-4.91284 z m -158.7496,-4.46987 c -10.3029,-2.83553 -19.8829,-6.306 -21.289,-7.7121 -5.5876,-5.58755 1.815,-5.84938 16.5902,-0.58686 16.7449,5.96407 37.13,6.83384 52.9082,2.25739 6.3532,-1.84271 -0.1602,-2.88899 -18.4301,-2.96052 -37.4325,-0.1466 -65.9656,-13.55795 -87.9108,-41.3207 -8.5236,-10.78321 -15.4975,-18.28748 -15.4975,-16.67619 0,1.61133 4.8575,9.28677 10.7946,17.0566 5.937,7.7698 10.2111,15.89556 9.4981,18.05721 -0.713,2.16165 -0.022,2.65608 1.5352,1.09871 3.4368,-3.43687 25.3353,11.52254 25.3353,17.30716 0,2.26309 -4.6383,1.07552 -10.3074,-2.63902 -8.875,-5.81512 -11.6648,-6.02735 -20.0736,-1.52711 -8.822,4.7214 -10.4948,4.32656 -17.306,-4.08485 -6.7972,-8.39424 -6.9477,-9.96588 -1.5276,-15.95507 5.4423,-6.01363 4.8997,-8.66236 -5.7226,-27.93363 -9.8729,-17.91175 -11.7378,-25.65557 -11.7525,-48.80194 -0.02,-30.78646 3.2919,-48.45795 7.734,-41.27058 2.0027,3.24051 3.5411,2.75988 5.2268,-1.63287 1.3138,-3.42374 0.7135,-6.22497 -1.334,-6.22497 -2.1548,0 -1.8608,-4.08622 0.6981,-9.70243 2.4314,-5.33637 5.5691,-8.99274 6.9726,-8.12529 4.7,2.90475 2.2583,-17.0902 -2.6912,-22.03838 -3.8935,-3.89239 -3.1982,-6.67989 3.4244,-13.72935 7.779,-8.2803 8.9114,-8.45119 17.7275,-2.67467 11.2962,7.40157 6.2307,17.11748 -7.568,14.51584 -8.187,-1.54362 -8.2362,-1.4204 -0.8381,2.09464 4.3233,2.05408 5.6498,3.85902 2.9478,4.01092 -2.7021,0.1521 -4.9129,3.09352 -4.9129,6.53687 0,4.31642 3.9667,2.18052 12.7734,-6.87798 7.0254,-7.22624 11.2593,-14.24319 9.4089,-15.59328 -1.8505,-1.35009 6.9824,-7.517 19.6287,-13.70426 19.1789,-9.38338 27.9614,-11.24954 52.9423,-11.24954 25.8243,0 33.2199,1.68681 53.6962,12.24727 21.598,11.13898 24.3064,11.6878 29.9292,6.06507 5.6227,-5.62276 7.0781,-5.3405 16.083,3.11911 8.9667,8.42379 9.3345,9.92712 3.8981,15.93419 -5.4232,5.99261 -4.9597,8.6775 4.8019,27.8149 15.1531,29.70741 16.8669,71.18948 4.2039,101.75267 -4.926,11.88908 -11.1514,21.83758 -13.8344,22.10779 -8.8283,0.88914 -8.8804,1.40177 -0.9478,9.3344 9.4665,9.4665 9.8367,14.30643 1.7154,22.42771 -4.7542,4.75418 -8.0903,5.20518 -14.7385,1.99249 -10.5224,-5.08487 -22.1852,-4.84645 -21.1484,0.43226 1.0245,5.21649 -32.2098,17.13552 -55.317,19.83872 -10.4172,1.21866 -26.8317,-0.092 -37.3264,-2.98033 z m 73.7562,-23.66354 c 24.0808,-11.50384 38.5442,-25.00578 50.0287,-46.70309 7.1211,-13.45365 8.8204,-23.31781 9.1008,-52.83 0.1897,-19.9582 -0.504,-35.43873 -1.5416,-34.40113 -1.0376,1.03763 -6.4606,-5.9638 -12.051,-15.5587 -17.5832,-30.17817 -56.9611,-53.27726 -90.8237,-53.27726 -9.7285,0 -35.1772,6.74577 -52.6322,13.95145 -5.0953,2.10341 -6.6599,1.70936 -4.8487,-1.22113 1.4707,-2.37967 0.5979,-5.60968 -1.9395,-7.1779 -3.1814,-1.96624 -3.9381,-0.26844 -2.4377,5.4689 1.6228,6.20578 -1.113,10.82865 -10.7654,18.19091 -7.1177,5.42889 -17.5456,19.11053 -23.1732,30.40366 -26.0735,52.32275 -2.0417,120.04223 51.459,145.00694 23.0522,10.75665 65.0468,9.88857 89.6245,-1.85265 z m -70.4794,-65.95039 c -8.4367,-7.25698 -10.7424,-12.64585 -10.6515,-24.89494 0.1511,-20.36134 1.8072,-33.38257 3.9706,-31.21919 0.9492,0.94924 7.3823,-1.76996 14.2957,-6.04268 11.9163,-7.36466 13.52,-7.44488 30.8423,-1.54259 10.0498,3.42433 17.3757,7.67688 16.2797,9.45014 -1.0959,1.77327 -0.1736,3.83045 2.0496,4.5715 5.8869,1.96231 8.6169,21.89159 4.1437,30.24979 -2.6434,4.93921 -2.3662,8.7636 0.8902,12.28171 3.7203,4.01933 3.6253,4.48295 -0.4455,2.17368 -3.0845,-1.7498 -7.187,-0.18276 -10.1577,3.87984 -2.9964,4.09787 -12.0539,7.52078 -22.7165,8.5849 -14.5202,1.44905 -19.6839,0.0916 -28.5006,-7.49216 z m 47.8804,-8.25758 c 12.5566,-11.49287 11.5116,-28.24146 -2.6454,-42.3985 -12.4645,-12.46447 -19.7143,-13.98454 -32.9855,-6.91626 -11.6557,6.20791 -18.1355,15.31596 -18.2854,25.70246 -0.4544,31.47524 30.5097,45.03582 53.9163,23.6123 z m -38.3202,-2.79345 c -15.1057,-15.10569 -5.8845,-43.23301 14.1735,-43.23301 22.9632,0 35.8194,31.83726 14.9693,37.0703 -14.6479,3.67638 -24.1185,-0.5296 -28.565,-12.68602 l -3.8875,-10.62832 -0.3103,10.1991 c -0.1707,5.60952 3.2341,13.40679 7.5662,17.32728 6.5627,5.93911 9.5437,6.36854 17.8712,2.57425 13.6223,-6.20673 16.5983,-5.71933 7.4283,1.21658 -10.5727,7.99673 -20.0021,7.40341 -29.2457,-1.84016 z m 98.2568,70.74493 c 0,-2.16165 -0.7799,-3.93027 -1.7332,-3.93027 -0.9532,0 -2.8262,1.76862 -4.1622,3.93027 -1.336,2.16165 -0.556,3.93027 1.7332,3.93027 2.2892,0 4.1622,-1.76862 4.1622,-3.93027 z m -169.0017,-3.93027 c 0,-2.16165 -1.873,-3.93028 -4.1623,-3.93028 -2.2892,0 -3.0691,1.76863 -1.7332,3.93028 1.336,2.16165 3.209,3.93027 4.1623,3.93027 0.9532,0 1.7332,-1.76862 1.7332,-3.93027 z m 178.6596,0.27158 c 1.2436,-2.0123 0.4637,-4.76962 -1.7332,-6.12738 -2.1969,-1.35775 -3.9944,0.28864 -3.9944,3.6587 0,6.90364 2.3584,7.92013 5.7276,2.46868 z m -200.1506,-58.83007 c -3.0507,-9.61211 -9.9512,-11.08828 -9.9512,-2.12879 0,3.47935 1.8804,4.96515 4.3513,3.43808 2.9807,-1.84215 3.4605,0.25154 1.5234,6.64602 -2.1914,7.2341 -1.756,8.31858 1.9345,4.81808 2.7116,-2.57201 3.634,-8.07247 2.142,-12.77339 z m 225.056,-10.7864 c -1.1454,-5.40342 -2.1337,-4.41511 -3.8108,3.81079 -1.4623,7.17205 -0.9145,9.75636 1.5463,7.29546 2.096,-2.09594 3.115,-7.09375 2.2645,-11.10625 z m -0.4118,-31.85966 c -0.9886,-3.78289 -1.7975,-0.6878 -1.7975,6.87798 0,7.56577 0.8089,10.66086 1.7975,6.87798 0.9885,-3.78289 0.9885,-9.97307 0,-13.75596 z m -231.9925,-9.82569 c -1.0903,-2.70206 -1.9824,-0.49128 -1.9824,4.91285 0,5.40412 0.8921,7.6149 1.9824,4.91284 1.0903,-2.70207 1.0903,-7.12362 0,-9.82569 z m 211.8308,-35.44655 c -3.3862,-5.16807 -5.2108,-10.34247 -4.0546,-11.49868 1.1562,-1.15621 2.8098,-5.77672 3.6747,-10.2678 1.108,-5.75353 -0.053,-7.542 -3.9292,-6.05439 -3.026,1.16116 -5.1156,3.26995 -4.6436,4.68614 0.4721,1.4162 -0.8983,2.57488 -3.0453,2.57488 -2.1469,0 -3.3997,-2.65293 -2.7838,-5.89541 0.9243,-4.86607 0.4801,-4.94711 -2.5441,-0.4642 -2.913,4.31803 -5.0485,3.31801 -10.4195,-4.87908 -3.7156,-5.67068 -8.2788,-9.36891 -10.1405,-8.21832 -1.8617,1.15062 -8.6549,-0.63321 -15.096,-3.964 -6.4411,-3.33083 -15.7783,-5.9983 -20.7494,-5.92773 -5.4463,0.0773 -0.9669,2.91756 11.2716,7.1469 25.9817,8.97863 46.1169,24.40504 57.309,43.90694 4.866,8.47866 9.4007,13.80375 10.0774,11.8335 0.6766,-1.97021 -1.5404,-7.81067 -4.9267,-12.97875 z m -139.7585,-39.79072 c 0,-0.84956 -2.7448,-2.59791 -6.0996,-3.88527 -3.4976,-1.34215 -5.0752,-0.68328 -3.6983,1.54464 2.3081,3.73458 9.7979,5.5238 9.7979,2.34063 z m 22.9205,-6.59215 c 5.2394,-0.22075 4.9775,-0.95477 -1.304,-3.65403 -11.0722,-4.75788 -14.6506,-4.62721 -11.5306,0.42107 1.8292,2.95968 -0.2964,3.50583 -6.646,1.70767 -7.2186,-2.04421 -7.9986,-1.70345 -3.4399,1.50279 3.2424,2.28054 8.2508,3.28072 11.1297,2.22261 2.8788,-1.05815 8.1847,-2.04817 11.7908,-2.20011 z m 33.5826,-6.79825 c 1.0688,-1.72932 -4.1327,-3.14422 -11.5588,-3.14422 -7.4262,0 -13.5021,1.4149 -13.5021,3.14422 0,1.72932 5.2014,3.14422 11.5588,3.14422 6.3574,0 12.4333,-1.4149 13.5021,-3.14422 z m 134.1151,222.21945 c 0,-15.51531 0.8142,-16.78498 11.7909,-18.38716 11.3165,-1.65178 11.1584,-1.82699 -3.9303,-4.3551 -8.6466,-1.44877 34.6847,-2.57983 96.2917,-2.51349 61.607,0.0664 101.4011,1.14187 88.4311,2.39 -19.5555,1.8819 -23.8131,3.61137 -24.9378,10.12989 -1.7579,10.18884 -4.5392,12.99836 -4.5392,4.58533 0,-4.65812 -3.4063,-6.55047 -11.7908,-6.55047 -8.0589,0 -11.7908,1.93936 -11.7908,6.12738 0,3.37005 -1.7975,5.01644 -3.9944,3.65869 -2.1969,-1.35775 -2.9769,-4.11507 -1.7332,-6.12737 1.341,-2.16983 -14.6265,-3.6587 -39.2386,-3.6587 -34.9668,0 -41.4999,0.96461 -41.4999,6.12738 0,3.37005 -1.7974,5.01644 -3.9943,3.65869 -2.1969,-1.35775 -2.9769,-4.11507 -1.7332,-6.12737 1.2436,-2.01226 -3.1491,-3.6587 -9.7616,-3.6587 -8.0667,0 -12.0228,1.93987 -12.0228,5.89541 0,3.24248 -1.7686,5.89542 -3.9303,5.89542 -2.1616,0 -3.4881,-2.21078 -2.9477,-4.91285 0.5405,-2.70206 -2.5546,-4.91284 -6.8779,-4.91284 -5.9955,0 -8.1528,3.03071 -9.0922,12.77339 -0.9149,9.48921 0.3483,12.77339 4.9129,12.77339 3.3794,0 6.1715,-2.21078 6.2046,-4.91284 0.045,-3.69815 0.8777,-3.6234 3.3665,0.30224 4.6337,7.30889 248.0143,6.93929 253.0062,-0.38399 2.3023,-3.37764 2.948,-2.83935 2.1465,1.7893 -0.6306,3.64116 0.6221,6.73798 2.7838,6.88187 2.5197,0.16782 4.2997,-43.02365 4.9596,-120.34039 0.8686,-101.77625 1.9688,-121.64007 7.0477,-127.25216 5.4149,-5.98341 5.3779,-6.8959 -0.3683,-9.10092 -10.0513,-3.85706 -303.7245,-2.86495 -306.1343,1.0342 -1.1846,1.91672 0.4796,5.67053 3.6983,8.34179 4.5693,3.7922 5.8509,14.87436 5.8465,50.5563 l -0.01,45.69949 61.9074,-0.26097 c 34.0491,-0.14345 44.6634,0.36277 23.5873,1.12489 l -38.3201,1.38581 -8e-4,22.45676 -8e-4,22.45676 56.988,0 56.9881,0 0,-22.38374 0,-22.38373 -18.6688,-1.47205 c -10.2678,-0.80963 -0.7467,-1.79086 21.1581,-2.18047 36.2068,-0.64406 40.0138,-1.42292 41.8825,-8.56898 2.0166,-7.71147 0.1061,-7.86169 -100.7462,-7.92072 -56.5409,-0.0314 -100.7644,-1.35956 -98.2744,-2.94771 2.49,-1.58814 49.8006,-2.38713 105.1348,-1.77558 l 100.6075,1.112 0,11.66139 0,11.66144 37.3376,0 37.3376,0 -0.31,18.6688 c -0.1706,10.26784 -1.2024,16.45802 -2.2927,13.75596 -1.3779,-3.41474 -12.6688,-4.91284 -37.0273,-4.91284 -39.6332,0 -36.7207,-3.16199 -35.2966,38.32016 0.5295,15.42507 -0.7291,24.56422 -3.3828,24.56422 -2.3889,-1.2e-4 -4.2264,-7.69041 -4.2264,-17.68635 0,-16.809 -0.5536,-17.68624 -11.1599,-17.68624 -8.09,0 -12.3916,2.70297 -15.6369,9.82569 -3.2847,7.2091 -7.5273,9.82568 -15.9315,9.82568 -6.3,0 -12.3852,-2.42533 -13.5228,-5.38966 -2.2429,-5.84491 -21.7922,-12.20374 -25.652,-8.34385 -1.3036,1.30355 0.2314,4.01548 3.4114,6.02648 3.8706,2.44786 -3.3119,3.58496 -21.7303,3.44033 -16.7409,-0.13127 -24.5366,-1.38118 -19.9123,-3.19209 5.1195,-2.0048 6.108,-3.89797 3.029,-5.80093 -2.5139,-1.55368 -7.912,-1.03669 -11.9958,1.14886 -4.0837,2.18559 -8.5418,2.85692 -9.9069,1.49185 -1.365,-1.36506 -2.5089,0.90797 -2.542,5.05111 -0.05,6.30251 -0.6826,6.57 -3.8701,1.63763 -2.0955,-3.24248 -3.837,-3.91503 -3.8701,-1.49453 -0.1073,7.84974 -17.6,3.71671 -22.7848,-5.38345 -3.7046,-6.50221 -8.6466,-8.84312 -18.6688,-8.84312 l -13.6304,0 0,20.63394 0,20.63394 143.4565,-1.07764 c 94.8354,-0.7124 143.4566,0.27001 143.4566,2.89865 0,2.5895 -49.6907,4.33616 -142.4724,5.00796 l -142.4724,1.03158 -1.1688,24.51229 c -0.8972,18.81713 0.016,24.05909 3.9303,22.56154 3.0702,-1.17456 5.099,-8.58203 5.099,-18.61688 z m 63.0523,5.22195 c -1.2437,-2.0123 -0.4638,-4.76962 1.7332,-6.12737 2.1969,-1.35775 3.9943,0.28848 3.9943,3.65869 0,6.90365 -2.3584,7.92013 -5.7275,2.46868 z m 29.6195,-2.56422 c 0.1886,-4.57858 1.1199,-5.50985 2.3745,-2.37456 1.1353,2.83715 0.9957,6.22701 -0.3101,7.53304 -1.306,1.30599 -2.2349,-1.01535 -2.0643,-5.15848 z m 25.4043,2.56422 c -1.2437,-2.0123 -0.4637,-4.76962 1.7332,-6.12737 2.1969,-1.35775 3.9944,0.28848 3.9944,3.65869 0,6.90365 -2.3584,7.92013 -5.7276,2.46868 z m 29.3092,1.74033 c 0,-1.41533 2.8437,-5.41706 6.3193,-8.89268 5.8055,-5.80552 6.205,-5.72931 4.9128,0.93765 -1.3009,6.71247 -11.2321,13.74613 -11.2321,7.95503 z m 60.006,-3.65134 c 0.5023,-4.1442 3.5662,-8.25825 6.8087,-9.14233 3.7918,-1.03394 4.3527,-0.44895 1.5718,1.63944 -2.3779,1.78579 -5.4418,5.89985 -6.8086,9.14232 -1.7462,4.14232 -2.2136,3.6548 -1.5719,-1.63943 z m 9.7564,2.96677 c 2.702,-1.0903 7.1236,-1.0903 9.8256,0 2.7021,1.09029 0.4913,1.98239 -4.9128,1.98239 -5.4041,0 -7.6149,-0.8921 -4.9128,-1.98239 z m 16.7036,-1.18907 c 0,-5.61609 15.1251,-12.69168 22.8051,-10.66837 5.0127,1.32061 4.5774,1.87112 -1.7506,2.21364 -4.6325,0.25076 -9.4407,3.10885 -10.685,6.35133 -2.498,6.50994 -10.3695,8.10662 -10.3695,2.1034 z m -200.4439,-4.30051 c 0,-2.28922 1.7686,-3.06915 3.9302,-1.73317 2.1617,1.33598 3.9303,3.20899 3.9303,4.16224 0,0.95325 -1.7686,1.73317 -3.9303,1.73317 -2.1616,0 -3.9302,-1.87301 -3.9302,-4.16224 z m 236.1267,-6.64601 c -0.3027,-8.63033 -1.4688,-8.861 -48.4562,-9.58625 -26.4802,-0.40875 -37.9762,-1.38134 -25.5467,-2.1613 12.4294,-0.77996 22.599,-3.09847 22.599,-5.15223 0,-2.09716 13.353,-3.42991 30.4596,-3.04011 l 30.4597,0.69401 -27.5119,2.54222 -27.512,2.54222 22.7224,0.694 c 22.8486,0.6979 29.8461,5.50777 25.122,17.26805 -1.1141,2.77336 -2.1653,1.0631 -2.3359,-3.80061 z m -196.824,-0.98257 c 0,-2.16165 1.873,-3.93027 4.1622,-3.93027 2.2893,0 3.0692,1.76862 1.7332,3.93027 -1.336,2.16165 -3.209,3.93028 -4.1622,3.93028 -0.9533,0 -1.7332,-1.76863 -1.7332,-3.93028 z m 27.5119,0 c 0,-2.16165 1.873,-3.93027 4.1623,-3.93027 2.2892,0 3.0691,1.76862 1.7331,3.93027 -1.336,2.16165 -3.209,3.93028 -4.1622,3.93028 -0.9533,0 -1.7332,-1.76863 -1.7332,-3.93028 z m 134.5411,-55.02383 c 0,-7.56578 0.8089,-10.66087 1.7975,-6.87798 0.9885,3.78289 0.9885,9.97307 0,13.75596 -0.9886,3.78289 -1.7975,0.6878 -1.7975,-6.87798 z m 18.0027,-6.61508 c 2.8371,-1.13534 6.227,-0.99574 7.533,0.31009 1.306,1.306 -1.0153,2.23492 -5.1585,2.06426 -4.5786,-0.18865 -5.5098,-1.11989 -2.3745,-2.37451 z m -184.5288,-29.68992 c 2.9439,-3.75534 4.3258,-9.50336 3.071,-12.77339 -2.4967,-6.50633 -14.319,-8.27197 -14.319,-2.1385 0,2.09377 2.6529,2.78888 5.8954,1.54464 7.7667,-2.98037 7.5673,4.08925 -0.2995,10.6181 -5.1217,4.25067 -6.7764,4.20052 -9.5514,-0.28966 -3.5875,-5.80442 1.8352,-19.6103 7.7026,-19.6103 15.7223,0 21.177,14.55373 9.0263,24.08299 -6.2226,4.88006 -6.368,4.74345 -1.5254,-1.43388 z m -5.7574,-6.27295 c 1.1133,-1.8014 -0.4732,-3.27526 -3.5255,-3.27526 -3.0522,0 -4.6387,1.47386 -3.5254,3.27526 1.1133,1.80136 2.6998,3.27521 3.5254,3.27521 0.8257,0 2.4122,-1.47385 3.5255,-3.27521 z m 53.4635,3.22993 c 0,-1.8916 3.9794,-6.39424 8.8431,-10.0058 l 8.8431,-6.56659 -9.4092,2.19353 c -7.1915,1.6765 -8.324,1.10822 -4.8047,-2.41107 6.0589,-6.05891 18.1442,1.22141 18.1442,10.93025 0,4.7306 -3.498,7.36726 -10.8082,8.14663 -5.9446,0.6338 -10.8083,-0.3953 -10.8083,-2.28695 z m 18.4059,-8.55219 c -1.2546,-3.1353 -2.1859,-2.20402 -2.3745,2.37455 -0.1706,4.14314 0.7582,6.46448 2.0643,5.15849 1.306,-1.30603 1.4456,-4.6959 0.3101,-7.53304 z m 88.6941,-45.385 c 10.2678,-0.80963 27.0697,-0.80963 37.3376,0 10.2678,0.80964 1.8668,1.47205 -18.6688,1.47205 -20.5357,0 -28.9367,-0.66241 -18.6688,-1.47205 z m -228.9385,-40.56997 0,-27.28604 141.4899,0 141.4898,0 0,26.97496 0,26.97496 -141.4898,0.31088 -141.4899,0.31089 0,-27.28604 z m 263.3267,1.20844 0,-18.6688 -123.8019,-0.57244 -123.802,-0.57241 0,19.24121 0,19.24124 123.8036,0 123.8037,0 0,-18.6688 z m 292.8071,186.69437 c 0,-14.58764 -1.3265,-26.52585 -2.9478,-26.52935 -1.6212,-0.003 -2.9477,-1.87938 -2.9477,-4.1686 0,-2.28923 2.2108,-2.83404 4.9129,-1.21068 3.7164,2.23274 3.6765,1.42519 -0.1639,-3.31613 -4.149,-5.12213 -4.149,-6.69668 0,-8.61497 4.0113,-1.85465 4.0457,-2.82858 0.1639,-4.64 -6.2394,-2.91174 -6.3491,-14.35041 -0.1965,-20.50294 3.6682,-3.66824 3.6682,-4.71633 0,-4.71633 -3.1027,0 -4.7164,-7.47538 -4.7164,-21.84847 0,-12.01665 1.4149,-20.97402 3.1441,-19.9053 1.7292,1.06872 3.563,-4.2774 4.0751,-11.88028 0.5884,-8.73731 -0.5684,-12.8968 -3.1441,-11.30492 -2.4169,1.49366 -4.0751,-1.66848 -4.0751,-7.77109 0,-5.65928 1.7175,-9.22813 3.8167,-7.93075 2.2263,1.37587 3.5987,-3.44075 3.2935,-11.55889 -0.2878,-7.65472 -2.0675,-13.91769 -3.955,-13.91769 -1.8875,0 -1.4986,-3.61212 0.8642,-8.02696 2.3627,-4.41479 3.7514,-14.58438 3.0859,-22.59905 l -1.2098,-14.57214 -44.2156,-1.11129 c -25.0929,-0.63067 -44.2156,-2.75542 -44.2156,-4.91284 0,-2.09085 4.8637,-3.98259 10.8082,-4.20386 9.9111,-0.3689 9.6824,-0.66738 -2.7556,-3.59557 -7.4602,-1.75629 -15.8612,-6.33485 -18.6688,-10.17457 -2.8077,-3.83972 -5.1049,-5.45606 -5.1049,-3.59188 0,1.86418 2.8262,6.51233 6.2804,10.32922 3.4543,3.81688 5.2213,8.65346 3.9269,10.74795 -1.3757,2.22588 -34.4906,3.97508 -79.6989,4.20988 -90.6867,0.471 -91.1389,0.63688 -89.7018,32.90337 0.502,11.27123 2.2709,27.31917 3.9309,35.66208 2.2321,11.21838 1.6037,16.06472 -2.4129,18.60859 -3.922,2.48401 -4.0659,3.45644 -0.5181,3.49991 3.5959,0.044 4.9128,10.50751 4.9128,39.0354 0,27.61108 -1.4324,39.49394 -4.9128,40.75434 -3.9303,1.42335 -3.9303,3.44332 0,10.0999 5.3624,9.08216 6.6917,28.07741 1.9651,28.08094 -2.3603,0.002 -3.3627,31.13449 -1.4253,44.26636 0.2433,1.65036 59.2495,2.53468 131.1244,1.96514 l 130.6816,-1.03555 0,-26.52298 z m -150.333,21.78413 c -17.7957,-3.42763 -8.1763,-8.1045 15.7211,-7.64344 24.6983,0.47647 73.6926,-13.82053 73.6926,-21.50425 0,-4.90609 -1.8309,-4.42459 -16.8327,4.42666 -17.5839,10.37479 -52.1391,16.34833 -69.6333,12.03761 -11.959,-2.94684 -10.1621,-3.44717 13.7559,-3.83033 27.1895,-0.43551 63.7635,-12.64927 70.4953,-23.54159 1.4733,-2.38383 4.5595,-4.33423 6.8583,-4.33423 2.8543,0 2.7915,1.67245 -0.1977,5.27447 -2.4076,2.90093 -3.2245,6.42737 -1.8155,7.83645 5.5937,5.59368 -13.1218,18.8281 -37.0986,26.23375 -24.4645,7.55635 -36.2757,8.64079 -54.9453,5.0449 z m -31.8908,-9.30555 c -8.1639,-3.26881 -8.641,-4.55059 -3.9303,-10.55911 4.8223,-6.151 4.6871,-6.31065 -1.3444,-1.58748 -7.3564,5.76072 -16.6151,2.65152 -12.4023,-4.16491 1.45,-2.34626 1.0367,-3.46713 -0.9185,-2.49077 -24.9772,12.47229 -24.8665,12.44576 -30.9329,7.41108 -6.7355,-5.58995 -7.9175,-14.20149 -2.416,-17.60157 1.9874,-1.22829 6.4089,0.5623 9.8257,3.97904 3.4167,3.41675 6.2123,4.40517 6.2123,2.19656 0,-2.20866 -2.2248,-5.43007 -4.9439,-7.15872 -2.7191,-1.72866 -10.2188,-12.87043 -16.6659,-24.75951 -10.5663,-19.4852 -11.7258,-25.16032 -11.7598,-57.5589 -0.031,-28.76905 1.3367,-37.46113 6.8488,-43.55195 3.7876,-4.18527 5.7144,-8.78169 4.2819,-10.21423 -1.4326,-1.43259 0.5653,-6.10745 4.4397,-10.38862 6.5982,-7.29085 6.6324,-8.41267 0.5403,-17.71032 -6.1811,-9.43364 -5.3406,-11.84852 3.5029,-10.0643 2.1617,0.43615 2.6191,-0.51816 1.0167,-2.12065 -1.6025,-1.60249 -0.9708,-5.25462 1.4038,-8.11582 3.5695,-4.30094 5.7117,-4.22575 12.3644,0.43402 6.338,4.43928 9.7959,4.66394 16.2824,1.05791 4.5295,-2.51809 9.5619,-4.2026 11.1831,-3.74335 1.6213,0.45925 2.9478,-0.79647 2.9478,-2.79049 0,-1.99401 5.748,-5.51179 12.7733,-7.8173 18.595,-6.1023 54.0413,-9.41196 54.0413,-5.04588 0,2.03376 -8.401,4.7155 -18.6688,5.95942 -29.4826,3.57174 -34.2613,4.48331 -36.355,6.93484 -1.0809,1.26559 -5.5024,4.49423 -9.8257,7.17476 -7.8606,4.87369 -7.8606,4.87369 0,2.05923 17.3166,-6.20017 47.4074,-13.50014 55.6484,-13.50014 4.8054,0 9.8303,-1.76862 11.1662,-3.93027 1.336,-2.16166 5.862,-3.93028 10.0577,-3.93028 10.7331,0 9.5665,7.80293 -1.2145,8.12347 -5.709,0.16975 -2.5749,2.37829 8.8431,6.23158 9.7274,3.2828 20.8195,5.92446 24.6491,5.87038 4.0543,-0.0574 5.8529,1.69784 4.3056,4.20134 -1.7039,2.75705 -0.8158,3.16151 2.4756,1.12736 7.0612,-4.3641 -6.2311,-14.13732 -14.7708,-10.86033 -3.8185,1.46529 -5.1646,0.7554 -3.5429,-1.86853 1.6954,-2.74313 -0.4973,-3.48125 -6.2332,-2.09836 -7.426,1.79031 -8.022,1.25748 -3.7075,-3.31424 4.3562,-4.61595 8.1697,-3.76225 24.9813,5.59241 18.0979,10.0705 20.4342,10.50244 26.6041,4.91874 6.1733,-5.58681 7.521,-5.31538 15.4349,3.10865 7.7477,8.24709 8.0199,9.77034 2.556,14.30498 -3.9273,3.25937 -5.1774,8.02931 -3.4942,13.33247 2.403,7.57132 2.0022,7.78587 -4.8241,2.58238 -6.5031,-4.95713 -6.7986,-4.95324 -2.3356,0.0315 2.8101,3.1382 7.2317,5.736 9.8257,5.77286 2.594,0.0354 4.5853,3.92831 4.4252,8.6477 -0.1599,4.71936 0.9941,7.78643 2.5649,6.81565 1.5708,-0.97078 4.7048,3.5387 6.9646,10.0211 2.4949,7.15702 2.6453,11.78614 0.3828,11.78614 -2.0492,0 -3.7258,1.87301 -3.7258,4.16224 0,2.28923 1.7686,3.06915 3.9303,1.73317 5.3381,-3.29919 5.0707,35.03725 -0.3813,54.67412 -3.2877,11.84124 -5.1662,14.09777 -8.1796,9.82568 -3.003,-4.25747 -3.4978,-3.63039 -2.1299,2.69951 0.98,4.53491 -0.5189,12.49371 -3.3309,17.68623 -4.267,7.87934 -4.1653,10.90384 0.6149,18.28415 5.3286,8.22716 4.4042,10.59967 -3.5889,9.21114 -1.7819,-0.30931 -2.2435,1.04927 -1.0258,3.01955 1.2177,1.97025 -0.7506,5.99348 -4.374,8.94047 -5.7429,4.67078 -6.2626,4.48963 -4.0517,-1.41222 1.6576,-4.42459 -0.3006,-8.75748 -5.6513,-12.50531 l -8.1876,-5.7349 10.2535,-9.50265 c 9.7694,-9.05406 10.2801,-18.75546 0.5627,-10.69074 -2.5555,2.12089 0.3769,-6.1025 6.5164,-18.2742 44.7977,-88.81287 -45.2327,-182.80666 -138.1877,-144.27166 -21.7283,9.00756 -50.0268,39.40268 -57.4265,61.68116 -16.8237,50.6516 7.6257,110.24336 53.6726,130.81838 8.334,3.72389 14.1581,9.2229 14.4942,13.68525 0.6138,8.14856 -3.8229,8.94452 -18.0669,3.24114 z m 8.4907,-7.98007 c -2.9894,-2.98944 -5.0802,-2.7947 -7.2232,0.67279 -1.9441,3.14571 -1.4034,3.88334 1.5215,2.07561 2.4957,-1.54239 4.5376,-0.63658 4.5376,2.01293 0,2.64952 1.2085,3.6087 2.6856,2.13159 1.4772,-1.47712 0.7925,-4.57893 -1.5215,-6.89292 z m 137.8017,-26.84192 c -3.3969,-3.76343 -9.9396,7.26055 -7.0673,11.90802 2.2802,3.68935 3.8077,3.00855 5.8457,-2.60526 1.5174,-4.1798 2.0671,-8.36606 1.2216,-9.30276 z m -192.3859,-14.01799 c -3.541,-5.40413 -7.2233,-9.82568 -8.1832,-9.82568 -1.9261,0 1.7804,7.11992 7.6726,14.73852 6.7673,8.75017 7.1364,5.1994 0.5106,-4.91284 z m 196.4096,-8.06468 c 1.3421,-3.49763 0.6832,-5.07525 -1.5447,-3.69831 -2.1369,1.32065 -3.8852,4.06547 -3.8852,6.09955 0,5.65342 2.8171,4.40764 5.4299,-2.40124 z m 12.976,-92.89423 c -1.2547,-3.13529 -2.186,-2.20401 -2.3746,2.37456 -0.1705,4.14314 0.7583,6.46447 2.0643,5.15848 1.306,-1.30603 1.4456,-4.69589 0.3101,-7.53304 z M 1771.0686,383.7587 c 4.3146,-2.30911 6.6898,-6.06708 5.2782,-8.35108 -1.7457,-2.82465 -3.4926,-2.65423 -5.4623,0.5329 -1.5927,2.57704 -4.0246,4.53452 -5.4041,4.34987 -7.94,-1.06263 -10.5898,0.2028 -9.5852,4.57716 0.6204,2.70206 -0.3369,4.91284 -2.1278,4.91284 -1.7907,0 -5.6727,5.74803 -8.6267,12.77339 -2.9539,7.02537 -7.3292,12.77339 -9.7227,12.77339 -2.3936,0 -3.2188,1.83363 -1.8337,4.07475 1.3934,2.2546 8.5757,-3.85831 16.079,-13.68505 7.4583,-9.76791 17.0907,-19.64905 21.4053,-21.95817 z m 155.2173,8.32251 c -1.2219,-1.977 -0.8841,-4.34008 0.7506,-5.25123 1.6347,-0.9112 0.7614,-1.11777 -1.9406,-0.45906 -2.7021,0.65871 -4.9129,-0.32621 -4.9129,-2.18881 0,-1.86252 -3.0534,-4.55813 -6.7855,-5.99025 -4.9312,-1.89227 -4.2069,0.1411 2.6503,7.44005 9.4595,10.06924 14.398,13.18013 10.2381,6.4493 z m -175.1046,-8.19623 c 0,-2.16165 -0.78,-3.93027 -1.7332,-3.93027 -0.9533,0 -2.8263,1.76862 -4.1622,3.93027 -1.336,2.16165 -0.5561,3.93028 1.7331,3.93028 2.2893,0 4.1623,-1.76863 4.1623,-3.93028 z m 68.0541,121.81105 c -10.8944,-4.38944 -17.6632,-16.96321 -18.1374,-33.69219 -0.8308,-29.31143 46.1213,-50.77929 61.8732,-28.29023 3.365,4.80425 6.0922,11.43659 6.0603,14.73853 -0.035,3.54224 -2.0483,2.1025 -4.9128,-3.51186 -2.6702,-5.23343 -9.8085,-11.15879 -15.8629,-13.16748 -24.1303,-8.00584 -45.8836,13.97079 -40.0625,40.47392 3.3671,15.33059 23.4211,25.57587 38.695,19.76873 11.1316,-4.2322 22.2012,-18.49657 22.2012,-28.6087 0,-3.84231 1.7686,-6.98602 3.9302,-6.98602 5.6519,0 4.9196,4.33659 -3.769,22.31991 -5.9224,12.25797 -10.5711,16.51013 -20.1427,18.42445 -15.3708,3.07414 -19.045,2.89347 -29.8726,-1.46906 z m 3.5653,-13.95137 c -12.0353,-8.42988 -12.0353,-30.42715 0,-38.85704 18.7193,-13.11151 38.4282,-2.59874 38.4282,20.49771 0,12.66016 -11.3849,24.47759 -23.5816,24.47759 -3.3613,0 -10.0423,-2.75323 -14.8466,-6.11826 z m 25.7629,-3.93027 c 5.5519,-3.88869 8.622,-9.97574 8.4248,-16.70366 l -0.3101,-10.58541 -3.9502,10.81623 c -4.5194,12.37478 -19.9952,18.13806 -28.8877,10.75791 -3.2145,-2.66772 -5.8445,-3.50235 -5.8445,-1.85474 0,3.85222 12.5264,13.39988 17.7943,13.56294 2.2211,0.0688 7.9691,-2.62825 12.7734,-5.99327 z m -363.6584,70.08975 c -7.0253,-0.87181 -18.5214,-0.87181 -25.5468,0 -7.0253,0.87185 -1.2773,1.5852 12.7734,1.5852 14.0508,0 19.7988,-0.71335 12.7734,-1.5852 z m 52.9711,-0.0236 c -8.1544,-0.85079 -20.5348,-0.83652 -27.5119,0.0314 -6.9772,0.86824 -0.3054,1.56437 14.8261,1.54692 15.1316,-0.0157 20.8401,-0.72781 12.6858,-1.57864 z m 39.3904,0.15917 c -3.7829,-0.98854 -9.9731,-0.98854 -13.756,0 -3.7829,0.98859 -0.6878,1.79744 6.878,1.79744 7.5658,0 10.6608,-0.80885 6.878,-1.79744 z m -124.7862,-75.8979 c 0,-30.91817 -0.1638,-31.44219 -9.8257,-31.44219 -9.0933,0 -9.8302,1.39163 -9.8859,18.6688 -0.039,12.16875 -1.2546,16.78293 -3.4908,13.25241 -4.1228,-6.50897 -12.1701,-2.47097 -12.1701,6.10674 0,4.00212 2.4958,5.46917 7.208,4.23691 4.8316,-1.26346 9.6907,1.82106 14.7385,9.35598 4.1418,6.18252 8.857,11.24601 10.4783,11.25222 1.6212,0.006 2.9477,-14.13767 2.9477,-31.43087 z m 141.4024,-8.84312 c 0.077,-20.00804 -0.8138,-22.59907 -7.7731,-22.59907 -7.2324,0 -7.8536,2.59103 -7.7732,32.42475 l 0.087,32.42476 7.6859,-9.82568 c 5.5639,-7.11305 7.7099,-16.06476 7.7731,-32.42476 z m 17.9853,16.36122 c 4.0502,-6.55342 -5.0591,-14.06846 -10.4809,-8.6466 -4.5353,4.53522 -1.6968,12.91932 4.3738,12.91932 1.9065,0 4.6547,-1.92273 6.1071,-4.27272 z m -199.8057,-30.11718 c -0.9005,-5.94454 -1.6373,-1.08082 -1.6373,10.80825 0,11.88908 0.7368,16.7528 1.6373,10.80826 0.9006,-5.94454 0.9006,-15.67197 0,-21.61651 z m 294.6403,-17.44059 c -1.2546,-3.1353 -2.186,-2.20402 -2.3745,2.37456 -0.1706,4.14313 0.7582,6.46447 2.0642,5.15848 1.306,-1.30603 1.4456,-4.69589 0.3101,-7.53304 z m 213.4802,-132.0513 c 0,-13.62191 -14.325,-32.28327 -24.7816,-32.28327 -10.3657,0 -30.2422,8.6326 -30.2958,13.15787 -0.032,2.4906 -1.0109,8.94992 -2.1808,14.35405 -1.7326,8.00365 -1.0749,7.56612 3.5469,-2.3595 3.1207,-6.70185 8.5402,-13.28506 12.0434,-14.62936 5.006,-1.92099 4.5953,-0.0446 -1.9187,8.76606 -6.7674,9.15343 -7.4745,12.7304 -3.8538,19.49578 6.3026,11.77652 22.3133,14.92561 31.8777,6.26993 7.3189,-6.62356 10.9986,-25.92395 4.7545,-24.93803 -6.6067,1.04315 -9.1662,-0.6934 -6.7601,-4.58655 4.1439,-6.70488 13.6381,3.80785 13.6381,15.10114 0,5.50965 -3.0951,13.50242 -6.878,17.76173 -6.6938,7.53679 -6.6412,7.59871 1.9651,2.31176 6.291,-3.86461 8.8431,-9.18113 8.8431,-18.42161 z m 43.1174,-10.32784 c -2.3763,-5.87516 -3.273,-2.07183 -3.1632,13.41703 0.1387,19.56144 0.4539,20.34096 3.3164,8.19947 1.7397,-7.37937 1.6709,-17.10679 -0.1533,-21.6165 z m -812.4514,16.36474 c 2.3826,-16.08783 -0.5197,-25.74086 -5.4166,-18.01577 -4.4152,6.96502 -4.3837,30.78916 0.041,30.78916 1.9163,0 4.3355,-5.74803 5.376,-12.77339 z m 497.0807,10.39885 c -1.306,-1.306 -4.6959,-1.44563 -7.533,-0.3103 -3.1353,1.25465 -2.204,2.18595 2.3745,2.37454 4.1432,0.17066 6.4645,-0.75826 5.1585,-2.06425 z m 69.9516,-5.31225 c -1.0923,-1.76736 0.4649,-5.24743 3.4605,-7.73349 3.0044,-2.49347 4.5032,-8.1267 3.3428,-12.56409 -3.6447,-13.9374 -28.5272,-18.09841 -28.5272,-4.77051 0,3.13878 -1.7686,4.6138 -3.9302,3.27783 -5.718,-3.53393 -4.8242,0.87748 2.4171,11.9291 3.4911,5.32807 9.7857,9.6874 13.9879,9.6874 4.7745,0 6.5886,1.70204 4.8362,4.53753 -1.7515,2.83389 -1.0767,3.46975 1.7972,1.69357 2.5309,-1.56419 3.708,-4.28999 2.6157,-6.05734 z m 218.0228,1.79138 c 0,-0.61828 -2.3581,-2.02906 -5.2403,-3.13506 -2.8823,-1.10601 -5.2404,0.30479 -5.2404,3.13506 0,2.83029 2.3581,4.24107 5.2404,3.13506 2.8822,-1.106 5.2403,-2.51678 5.2403,-3.13506 z m -699.5887,-5.89541 c 0,-8.93682 -9.8566,-10.70931 -13.0646,-2.34939 -2.4666,6.42771 0.4319,10.20994 7.8243,10.20994 2.8822,0 5.2403,-3.53725 5.2403,-7.86055 z m 61.9745,1.23607 c 5.9081,1.49823 5.0153,-16.22056 -1.1268,-22.36268 -7.4223,-7.42228 -21.9124,-8.37597 -28.418,-1.87038 -3.3998,3.39971 -3.1472,7.15982 1.0223,15.22279 3.0455,5.88934 4.4833,11.76185 3.1951,13.05004 -1.2882,1.28819 3.2366,0.74219 10.0551,-1.21333 6.8185,-1.95553 13.6911,-3.22742 15.2723,-2.82644 z m 46.108,2.6942 c -1.3359,-2.16165 -0.556,-3.93027 1.7332,-3.93027 2.2892,0 4.1623,-6.33757 4.1623,-14.08348 0,-9.50697 -1.5965,-13.55927 -4.9129,-12.47029 -8.0687,2.64945 -8.8754,34.41432 -0.874,34.41432 1.2763,0 1.2274,-1.76863 -0.1086,-3.93028 z m 44.4616,-15.45351 c 0.9137,-12.50039 -0.093,-16.37329 -3.9303,-15.11253 -6.2426,2.05132 -9.3852,22.70549 -3.4547,22.70549 2.3052,0 4.1913,1.87301 4.1913,4.16223 0,2.28922 -1.7686,3.06916 -3.9303,1.73318 -2.1616,-1.33597 -3.9302,-0.40865 -3.9302,2.06071 0,2.46936 2.2107,3.76275 4.9128,2.8742 2.7021,-0.88856 5.4657,-9.17903 6.1414,-18.42328 z m 55.7604,15.45351 c 0,-2.16165 -0.7799,-3.93027 -1.7332,-3.93027 -0.9532,0 -2.8262,1.76862 -4.1622,3.93027 -1.336,2.16165 -0.556,3.93028 1.7332,3.93028 2.2892,0 4.1622,-1.76863 4.1622,-3.93028 z m 23.5817,-13.75596 c 0,-13.10091 -1.5285,-17.68623 -5.8955,-17.68623 -3.2424,0 -5.8954,1.87301 -5.8954,4.16223 0,2.28922 1.7687,3.06916 3.9303,1.73318 2.1617,-1.33597 3.9303,-0.55604 3.9303,1.73319 0,2.28922 -1.7686,4.16222 -3.9303,4.16222 -2.1616,0 -3.9303,3.53725 -3.9303,7.86055 0,4.3233 2.2108,7.88763 4.9129,7.92073 3.2752,0.0401 2.9477,1.33015 -0.9826,3.87009 -5.0382,3.25594 -4.8953,3.81866 0.9826,3.87009 5.5404,0.0485 6.878,-3.37927 6.878,-17.62605 z m 64.3326,5.4406 c 2.8337,-4.04565 6.5596,-6.04051 8.2798,-4.43303 1.7201,1.60749 1.0036,-1.1566 -1.5922,-6.14242 -5.7369,-11.01867 -12.9761,-14.16158 -25.4232,-11.03756 -8.4767,2.12751 -9.1055,3.70807 -6.3449,15.9482 1.6854,7.47265 2.325,14.32594 1.4214,15.22953 -0.9036,0.90359 2.8909,0.77621 8.4321,-0.28306 5.5412,-1.05927 12.3934,-5.23602 15.227,-9.28167 z m 60.4535,7.33279 c -0.5404,-2.70206 0.8666,-4.59124 3.1266,-4.19817 4.7808,0.83149 5.1638,-14.15391 0.5456,-21.34861 -3.9639,-6.17545 -24.8576,-6.44952 -28.6117,-0.3753 -1.5514,2.51035 -1.0949,3.48103 1.0221,2.17271 2.2647,-1.39971 3.1597,2.17719 2.1929,8.76441 -1.5828,10.78413 0.8807,13.00526 21.7245,19.58753 0.5405,0.17065 0.5405,-1.9005 0,-4.60256 z m 69.4893,-17.62446 c -2.9311,-8.38633 -6.7015,-11.15143 -16.5015,-12.1016 -9.6028,-0.93106 -12.7024,0.32437 -12.7024,5.14479 0,3.50701 -1.3265,5.55658 -2.9478,4.55459 -1.6212,-1.00198 -2.9477,2.26201 -2.9477,7.25329 0,4.99129 1.2043,8.3308 2.6762,7.42113 1.4719,-0.90966 3.8756,0.28684 5.3416,2.65891 1.4981,2.42397 6.9252,3.24371 12.3917,1.87171 7.2489,-1.81936 9.0008,-1.14968 6.8781,2.62925 -1.5664,2.7887 0.4052,2.00308 4.3814,-1.74583 5.8108,-5.47863 6.484,-8.9493 3.4304,-17.68624 z m 104.4254,4.52355 c 0,-23.19653 -9.306,-21.83402 -11.0343,1.61556 -0.9391,12.74235 0.1562,16.3982 4.9129,16.3982 4.6512,0 6.1214,-4.32616 6.1214,-18.01376 z m -7.24,-5.56789 c 0,-5.40412 0.8921,-7.6149 1.9824,-4.91284 1.0902,2.70206 1.0902,7.12362 0,9.82569 -1.0903,2.70206 -1.9824,0.49128 -1.9824,-4.91285 z m -562.6497,13.75596 c 0,-3.24247 -1.7686,-5.89541 -3.9303,-5.89541 -2.1616,0 -3.9303,2.65294 -3.9303,5.89541 0,3.24248 1.7687,5.89541 3.9303,5.89541 2.1617,0 3.9303,-2.65293 3.9303,-5.89541 z m 231.8861,-1.96514 c 0,-4.36697 -2.6202,-7.86054 -5.8954,-7.86054 -3.2752,0 -5.8954,3.49357 -5.8954,7.86054 0,4.36697 2.6202,7.86055 5.8954,7.86055 3.2752,0 5.8954,-3.49358 5.8954,-7.86055 z m 389.0971,-7.86054 c 0,-6.48495 -1.603,-11.79082 -3.5623,-11.79082 -1.9593,0 -2.6902,3.9794 -1.6242,8.84311 1.5571,7.10456 1.1102,7.68408 -2.2729,2.94771 -4.6829,-6.55601 -5.5964,-3.93928 -1.9458,5.57396 3.939,10.26485 9.4052,7.02532 9.4052,-5.57396 z m -252.783,-0.73693 c -1.2546,-3.13531 -2.1859,-2.204 -2.3745,2.37454 -0.1706,4.14316 0.7583,6.46448 2.0643,5.15849 1.306,-1.306 1.4456,-4.69586 0.3101,-7.53303 z m -368.2002,-5.15848 c 0,-3.24248 -1.7686,-5.89541 -3.9303,-5.89541 -2.1616,0 -3.9303,2.65293 -3.9303,5.89541 0,3.24247 1.7687,5.89541 3.9303,5.89541 2.1617,0 3.9303,-2.65294 3.9303,-5.89541 z m 39.3027,-1.96514 c 0,-4.98426 -2.5167,-7.74701 -6.878,-7.55026 -4.1088,0.18535 -4.9,1.1084 -1.9651,2.29266 2.7021,1.0903 4.9128,4.48792 4.9128,7.55026 0,3.06234 0.8844,5.56789 1.9652,5.56789 1.0808,0 1.9651,-3.53725 1.9651,-7.86055 z m 189.0687,0.53785 c 2.6564,4.19279 3.4074,3.86224 3.4545,-1.52042 0.033,-3.78289 -2.5927,-6.87798 -5.8352,-6.87798 -3.2425,0 -5.7558,3.09509 -5.5851,6.87798 0.2163,4.79542 0.9554,5.25578 2.4409,1.52042 1.7988,-4.52324 2.6592,-4.52324 5.5249,0 z m -299.1163,317.58236 c 0,-2.28923 1.7686,-3.06915 3.9302,-1.73317 2.1617,1.33597 3.9303,3.20899 3.9303,4.16223 0,0.95325 -1.7686,1.73318 -3.9303,1.73318 -2.1616,0 -3.9302,-1.87301 -3.9302,-4.16224 z m 848.2021,1.47743 c 2.8372,-1.13534 6.227,-0.99574 7.5331,0.3101 1.306,1.30599 -1.0154,2.23491 -5.1585,2.06425 -4.5786,-0.18865 -5.5099,-1.11989 -2.3746,-2.37451 z m 5.9886,-32.68766 c 0,-16.21238 0.6938,-22.84471 1.5417,-14.73852 0.8479,8.10619 0.8479,21.37086 0,29.47705 -0.8479,8.10619 -1.5417,1.47385 -1.5417,-14.73853 z m -853.8805,5.5679 c 0.1886,-4.57857 1.1199,-5.50985 2.3746,-2.37455 1.1353,2.83715 0.9957,6.22701 -0.3103,7.53304 -1.306,1.30599 -2.2349,-1.01535 -2.0643,-5.15849 z m 853.1797,-60.59173 c 0,-5.40413 0.8921,-7.6149 1.9824,-4.91284 1.0903,2.70206 1.0903,7.12362 0,9.82568 -1.0903,2.70207 -1.9824,0.49129 -1.9824,-4.91284 z m 0.1458,-37.3376 c 0.08,-6.48495 0.961,-8.66209 1.9574,-4.83805 0.9965,3.82404 0.931,9.12991 -0.1458,11.79082 -1.0766,2.66092 -1.8919,-0.46782 -1.8118,-6.95277 z m -853.0152,-9.82568 c 0,-5.40413 0.8921,-7.61491 1.9824,-4.91285 1.0903,2.70207 1.0903,7.12362 0,9.82569 -1.0903,2.70206 -1.9824,0.49128 -1.9824,-4.91284 z m -0.3103,-18.01375 c 0.1886,-4.57857 1.1199,-5.50985 2.3746,-2.37455 1.1353,2.83715 0.9957,6.22701 -0.3103,7.53304 -1.306,1.30599 -2.2349,-1.01535 -2.0643,-5.15849 z m 853.471,-13.42844 c 0,-7.56578 0.8088,-10.66087 1.7974,-6.87798 0.9885,3.78288 0.9885,9.97307 0,13.75595 -0.9886,3.78289 -1.7974,0.6878 -1.7974,-6.87797 z M 1127.5257,411.3969 c 0,-14.05073 0.7134,-19.79876 1.5852,-12.77339 0.8718,7.02536 0.8718,18.52141 0,25.54678 -0.8718,7.02536 -1.5852,1.27734 -1.5852,-12.77339 z m 852.232,3.93027 c 0,-5.40412 0.8921,-7.6149 1.9824,-4.91284 1.0903,2.70206 1.0903,7.12362 0,9.82568 -1.0903,2.70207 -1.9824,0.49129 -1.9824,-4.91284 z m 0.1458,-25.54678 c 0.08,-6.48495 0.961,-8.66209 1.9574,-4.83805 0.9965,3.82404 0.931,9.12991 -0.1458,11.79082 -1.0766,2.66092 -1.8919,-0.46782 -1.8118,-6.95277 z m -0.4559,-19.97888 c 0.1886,-4.57857 1.1199,-5.50985 2.3745,-2.37455 1.1353,2.83715 0.9957,6.22701 -0.3101,7.53304 -1.306,1.30599 -2.2349,-1.01535 -2.0643,-5.15849 z m 1.1436,-52.73118 c 0,-22.69733 0.6496,-31.9826 1.4435,-20.63394 0.7939,11.34867 0.7939,29.91921 0,41.26788 -0.7939,11.34866 -1.4435,2.06339 -1.4435,-20.63394 z m -854.0132,5.56789 c 0.1886,-4.57855 1.1199,-5.50985 2.3746,-2.37454 1.1353,2.83716 0.9957,6.22702 -0.3103,7.53302 -1.306,1.306 -2.2349,-1.01532 -2.0643,-5.15848 z m 0,-15.7211 c 0.1886,-4.57854 1.1199,-5.50985 2.3746,-2.37454 1.1353,2.83717 0.9957,6.22703 -0.3103,7.53303 -1.306,1.30599 -2.2349,-1.01533 -2.0643,-5.15849 z m 0.8139,-46.83576 c 0.029,-10.80825 0.7928,-14.76334 1.6961,-8.78908 0.9034,5.97426 0.8793,14.81738 -0.054,19.65137 -0.9329,4.83399 -1.672,-0.054 -1.6425,-10.86229 z m 13.6144,2.96626 c -5.919,-1.35754 -6.878,-6.46931 -6.878,-36.66177 l 0,-35.08428 49.1284,0 c 30.1321,0 49.1284,1.51971 49.1284,3.93027 0,4.01317 -14.396,4.9988 -57.9715,3.96904 l -24.5642,-0.58049 -0.01,28.76535 -0.01,28.76534 49.1356,-1.20719 49.1355,-1.2072 0,-27.28729 c 0,-21.63518 -1.2211,-27.28728 -5.8954,-27.28728 -3.2425,0 -5.8954,-1.76863 -5.8954,-3.93028 0,-2.16165 6.1902,-3.93027 13.756,-3.93027 13.6447,0 13.7559,0.14035 13.7559,17.35871 0,10.20951 -2.0233,18.17515 -4.9128,19.34108 -3.9303,1.5859 -3.9303,2.04443 0,2.29266 2.9354,0.18539 4.9128,5.84715 4.9128,14.06624 0,7.86055 1.9652,13.75596 4.5854,13.75596 2.5219,0 3.4902,1.09502 2.1519,2.43338 -3.6958,3.69583 -34.3989,4.43439 -36.5954,0.8803 -1.0593,-1.71403 -9.3658,-2.28636 -18.4587,-1.27182 -27.1243,3.02634 -67.141,4.57833 -74.5042,2.88954 z m 1.942,-29.49561 c 1.1029,-10.26784 0.4539,-18.6688 -1.4422,-18.6688 -1.8962,0 -3.4475,9.13789 -3.4475,20.30642 0,24.51941 2.1576,23.79678 4.8897,-1.63762 z m 116.9488,-21.41999 c 0,-7.29905 -1.2672,-9.3446 -4.0592,-6.55262 -2.2325,2.23251 -2.9276,7.0078 -1.5446,10.61174 3.6406,9.48722 5.6038,8.06518 5.6038,-4.05912 z m -116.7695,-9.03963 c 1.1306,-4.3233 0.4526,-7.86055 -1.5067,-7.86055 -1.9593,0 -3.5623,3.53725 -3.5623,7.86055 0,4.3233 0.678,7.86055 1.5067,7.86055 0.8287,0 2.4318,-3.53725 3.5623,-7.86055 z m 607.0711,59.94115 c -78.2683,-1.10034 -81.5532,-1.45992 -81.5532,-8.92733 0,-7.38527 2.8089,-7.78081 55.2558,-7.78081 35.8364,0 54.4021,1.38128 52.8267,3.93027 -1.3359,2.16165 -0.556,3.93028 1.7332,3.93028 2.2892,0 4.1623,-1.76863 4.1623,-3.93028 0,-2.16165 8.7387,-3.93027 19.4194,-3.93027 10.6806,0 20.5124,-1.76862 21.8484,-3.93027 1.5414,-2.49394 -10.9418,-4.2017 -34.1579,-4.67298 l -36.587,-0.74271 35.3725,-2.205 35.3724,-2.205 -0.1945,-20.63393 c -0.1069,-11.34867 1.2195,-20.63394 2.9477,-20.63394 1.7281,0 3.142,15.77022 3.142,35.04494 0,24.3585 1.4981,35.64943 4.9129,37.02731 2.702,1.09031 3.1442,1.71775 0.9825,1.39432 -2.1616,-0.32343 -40.6292,-1.10401 -85.4834,-1.7346 z m 97.2743,-1.20457 c -7.3793,-2.96677 -7.0526,-4.00158 1.6376,-5.1866 6.9275,-0.94465 9.4391,-6.3867 2.9477,-6.3867 -5.4833,0 -6.5505,-4.43509 -6.5505,-27.22373 0,-22.62245 -1.1625,-27.52752 -6.8779,-29.02113 -3.7829,-0.98858 25.3993,-2.00257 64.8495,-2.25333 l 71.7275,-0.45591 0,37.53289 c 0,33.57343 -0.6774,37.15384 -6.4207,33.9397 -3.5314,-1.97626 -12.1381,-2.30371 -19.1261,-0.72766 -6.988,1.57604 -15.5947,1.24859 -19.1261,-0.72767 -4.2406,-2.37314 -6.4207,-2.11362 -6.4207,0.76432 0,2.39664 -1.7975,3.24663 -3.9944,1.88886 -6.292,-3.88871 -0.063,-10.31939 9.2826,-9.58309 30.1622,2.37631 30.0836,2.45125 30.0914,-28.69746 l 0.01,-28.49448 -49.1356,1.20719 -49.1363,1.2072 0,27.28729 0,27.28729 14.7386,0.45336 c 8.1061,0.24933 16.5071,0.86427 18.6688,1.36649 2.1616,0.50223 7.1297,1.18254 11.0402,1.51179 3.9104,0.32924 6.2231,2.03351 5.1392,3.78725 -2.1684,3.50852 -25.2004,2.85645 -28.8744,-0.81748 -1.2666,-1.26661 -4.6764,-0.33309 -7.5774,2.07448 -3.8958,3.23325 -5.2744,3.1882 -5.2744,-0.17238 0,-3.07479 -2.2298,-3.39088 -6.878,-0.97501 -3.7829,1.96613 -10.4152,2.15267 -14.7385,0.41452 z m 123.8036,-19.6658 c 0,-2.03407 -1.7686,-3.69832 -3.9303,-3.69832 -2.1616,0 -3.9303,2.75732 -3.9303,6.12737 0,3.37005 1.7687,5.03429 3.9303,3.69832 2.1617,-1.33598 3.9303,-4.09329 3.9303,-6.12737 z m -116.6518,-10.59851 c 1.1276,-7.23204 0.4338,-11.83064 -1.5958,-10.5763 -1.975,1.22062 -3.5909,7.71556 -3.5909,14.43322 0,15.0894 2.5252,13.21157 5.1867,-3.85692 z m 116.5916,-19.86111 c -0.031,-3.65531 -1.5786,-9.04227 -3.4344,-11.97101 -2.2147,-3.49522 -3.2069,-0.58777 -2.8875,8.4612 0.4741,13.42832 6.4417,16.74148 6.3219,3.50981 z m -119.0935,-5.41781 c -1.2546,-3.13531 -2.1859,-2.20401 -2.3745,2.37454 -0.1706,4.14316 0.7582,6.46448 2.0643,5.15848 1.3059,-1.306 1.4456,-4.69586 0.3101,-7.53302 z m 127.0142,16.45802 0,-43.23301 -12.7734,-0.13528 c -7.0253,-0.0744 -52.8692,-0.0161 -101.8752,0.12934 -57.3376,0.17026 -89.9963,-1.18262 -91.6108,-3.795 -1.6591,-2.68449 10.2171,-4.05961 35.0606,-4.05961 20.7455,0 37.5695,-1.64934 37.5695,-3.68313 0,-5.28468 75.9397,-4.01637 79.5881,1.32924 2.0398,2.98884 4.0715,2.57216 6.5965,-1.35292 2.975,-4.62454 5.5494,-4.80599 13.9409,-0.98257 5.6606,2.57916 16.399,4.68938 23.8631,4.68938 l 13.571,0 0,47.16328 c 0,25.93981 -0.8843,47.16329 -1.9651,47.16329 -1.0809,0 -1.9652,-19.45486 -1.9652,-43.23301 z m -699.5887,6.22293 c 0,-22.78639 -1.5287,-33.69666 -4.9128,-35.06218 -2.9349,-1.18425 -2.1437,-2.1073 1.9651,-2.29266 5.5114,-0.24863 6.89,3.00859 6.9382,16.39338 0.033,9.18702 1.4551,18.90016 3.16,21.58477 2.3994,3.77803 55.4555,5.11757 234.7737,5.92744 l 231.6738,1.04633 -234.8339,0.95054 c -153.302,0.62053 -234.8338,2.31509 -234.8338,4.88082 0,2.55031 51.7486,3.93027 147.3853,3.93027 144.765,0 147.3852,0.13976 147.3852,7.86055 0,7.72264 -2.6202,7.86055 -149.3504,7.86055 l -149.3504,0 0,-33.07981 z m 139.5247,25.21926 c 1.336,-2.16165 -0.4326,-3.93028 -3.9302,-3.93028 -3.4977,0 -5.2663,1.76863 -3.9303,3.93028 1.336,2.16165 3.1046,3.93027 3.9303,3.93027 0.8256,0 2.5943,-1.76862 3.9302,-3.93027 z m 167.0367,-1.96514 c 0,-4.58532 5.2403,-5.89541 23.5816,-5.89541 16.2131,0 23.6004,1.53513 23.6418,4.91284 0.046,3.72251 0.7805,3.78002 3.033,0.23735 4.1408,-6.51247 28.349,-5.36536 28.349,1.34333 0,4.08973 -8.9594,5.2973 -39.3027,5.2973 -32.3156,0 -39.3027,-1.04807 -39.3027,-5.89541 z m -396.3927,-14.07315 c -9.7901,-9.12089 -10.0415,-10.97766 -2.7824,-20.55194 3.4739,-4.58188 6.3233,-5.60803 8.0071,-2.88359 1.4377,2.32627 4.3795,3.13846 6.5373,1.80488 2.1577,-1.33358 4.8948,1.2905 6.0822,5.8313 1.1874,4.5408 3.8257,8.256 5.8628,8.256 5.2326,0 0.2126,7.10077 -8.2048,11.6056 -5.2877,2.8299 -9.2066,1.80298 -15.5022,-4.06225 z m 710.4634,0.8231 c -8.5487,-6.92227 -8.6898,-7.74748 -2.4006,-14.03669 8.2545,-8.25452 8.8392,-12.8036 0.7866,-6.12059 -4.0732,3.38045 -5.8954,3.5292 -5.8954,0.48125 0,-4.60032 1.1353,-4.94593 18.3644,-5.5906 14.8986,-0.55747 20.1756,9.51544 11.7342,22.39866 -7.9799,12.17883 -10.6692,12.52026 -22.5892,2.86797 z m 20.0025,-20.15728 c 0,-2.16165 -0.7799,-3.93027 -1.7331,-3.93027 -0.9533,0 -2.8263,1.76862 -4.1623,3.93027 -1.336,2.16165 -0.556,3.93028 1.7332,3.93028 2.2892,0 4.1622,-1.76863 4.1622,-3.93028 z m -793.605,9.49817 c 0.1886,-4.57855 1.1199,-5.50985 2.3746,-2.37454 1.1353,2.83716 0.9957,6.22702 -0.3103,7.53302 -1.306,1.306 -2.2349,-1.01532 -2.0643,-5.15848 z m 266.2114,-8.25272 c 2.8372,-1.13534 6.2271,-0.99571 7.5331,0.3103 1.306,1.306 -1.0154,2.23491 -5.1585,2.06426 -4.5786,-0.18858 -5.5099,-1.1199 -2.3746,-2.37455 z m -266.2114,-7.46838 c 0.1886,-4.57854 1.1199,-5.50985 2.3746,-2.37454 1.1353,2.83717 0.9957,6.22703 -0.3103,7.53303 -1.306,1.30599 -2.2349,-1.01533 -2.0643,-5.15849 z m 0,-15.72109 c 0.1886,-4.57855 1.1199,-5.50985 2.3746,-2.37454 1.1353,2.83716 0.9957,6.22702 -0.3103,7.53302 -1.306,1.306 -2.2349,-1.01532 -2.0643,-5.15848 z m -0.3102,-19.0919 c 0,-4.38702 3.9222,-6.12736 13.8092,-6.12736 7.5951,0 17.3765,-2.21078 21.7365,-4.91284 6.5339,-4.04938 8.5862,-3.87668 11.6773,0.98257 2.3328,3.66723 3.7729,4.09569 3.8103,1.13362 0.042,-3.31444 7.7053,-4.50905 25.2125,-3.93027 15.4964,0.5123 24.2596,2.34031 22.8272,4.76178 -1.2788,2.16165 0.8021,1.39107 4.6243,-1.71241 6.0389,-4.9034 7.4172,-4.9034 10.52,0 3.0627,4.84025 3.5876,4.80431 3.6909,-0.25272 0.099,-4.82994 0.7338,-4.92715 3.5147,-0.53785 2.8657,4.52323 3.6944,4.52323 5.3217,0 1.5764,-4.38184 3.4548,-4.45534 10.314,-0.40357 6.5085,3.84459 63.833,4.9492 255.9813,4.93258 165.5819,-0.0141 247.5947,1.30558 247.5947,3.98471 0,2.69084 -103.876,3.89882 -316.3882,3.67929 -174.0135,-0.17977 -318.1563,0.76593 -320.3173,2.10151 -2.161,1.33558 -3.9291,-0.32899 -3.9291,-3.69904 z m 16.0486,-15.10005 c 0.9007,-0.61168 5.1748,-3.70677 9.4981,-6.87798 7.2711,-5.33342 7.456,-5.25001 2.4665,1.11214 -2.9667,3.78289 -7.2409,6.87798 -9.4982,6.87798 -2.2572,0 -3.3671,-0.50046 -2.4664,-1.11214 z m 813.2391,-2.81813 c -3.5423,-2.28923 -4.0271,-3.83393 -1.2145,-3.87009 2.5744,-0.033 5.7739,1.70844 7.1099,3.87009 3.0157,4.87953 1.6551,4.87953 -5.8954,0 z M 1260.2073,145.7759 c 0.1886,-4.57855 1.1199,-5.50985 2.3746,-2.37454 1.1353,2.83716 0.9957,6.22702 -0.3103,7.53302 -1.306,1.306 -2.2349,-1.01532 -2.0643,-5.15848 z m 573.82,-2.62019 c 0.2075,-5.90893 1.0549,-6.88699 2.5544,-2.9477 1.2343,3.24248 4.1898,7.19479 6.5677,8.78293 2.6669,1.78108 1.688,2.91058 -2.5544,2.94771 -4.6209,0.0404 -6.7762,-2.84177 -6.5677,-8.78294 z m -562.0291,-9.17063 c 0.1885,-4.57855 1.1199,-5.50985 2.3745,-2.37454 1.1353,2.83716 0.9957,6.22702 -0.3103,7.53302 -1.306,1.306 -2.2349,-1.01532 -2.0643,-5.15848 z m 573.8199,0 c 0.1887,-4.57855 1.1199,-5.50985 2.3745,-2.37454 1.1354,2.83716 0.9958,6.22702 -0.3101,7.53302 -1.306,1.306 -2.2349,-1.01532 -2.0642,-5.15848 z m -11.7908,-7.86055 c 0.1887,-4.57855 1.1199,-5.50985 2.3745,-2.37454 1.1354,2.83716 0.9958,6.22703 -0.3101,7.53302 -1.306,1.306 -2.2349,-1.01532 -2.0642,-5.15848 z M 1279.5484,91.545384 c 0,-7.461692 -2.2108,-14.428644 -4.9128,-15.482119 -2.7021,-1.053474 84.4026,-1.682212 193.566,-1.397193 l 198.4788,0.518211 -178.8275,2.052244 -178.8274,2.052239 98.2568,3.511802 c 115.1827,4.116745 388.447,0.236209 390.4072,-5.544032 1.647,-4.856687 42.6438,-5.125742 45.6267,-0.299448 1.2113,1.960059 -1.3372,2.638094 -5.6635,1.506745 -7.6031,-1.98827 -10.2264,4.698843 -8.2548,21.043008 0.4021,3.333519 -70.6567,4.640349 -274.6535,5.051109 l -275.196,0.55414 0,-13.566706 z m 429.5621,-17.146393 c 16.8515,-0.738514 43.3809,-0.73401 58.9541,0.0098 15.5731,0.744017 1.7855,1.348257 -30.6393,1.342751 -32.4248,-0.0055 -45.1664,-0.614251 -28.3148,-1.352761 z"
         id="path4178"
         style="fill:#e10000;fill-opacity:1" />
    </g>
  </g>
</svg>
