<?xml version="1.0" encoding="UTF-8" standalone="no"?>
<!-- Created with Inkscape (http://www.inkscape.org/) -->

<svg
   xmlns:dc="http://purl.org/dc/elements/1.1/"
   xmlns:cc="http://creativecommons.org/ns#"
   xmlns:rdf="http://www.w3.org/1999/02/22-rdf-syntax-ns#"
   xmlns:svg="http://www.w3.org/2000/svg"
   xmlns="http://www.w3.org/2000/svg"
   version="1.1"
   width="1054.4554"
   height="786.52179"
   id="svg2">
  <defs
     id="defs4">
    <marker
       refX="0"
       refY="0"
       orient="auto"
       id="DotS"
       style="overflow:visible">
      <path
         d="m -2.5,-1 c 0,2.76 -2.24,5 -5,5 -2.76,0 -5,-2.24 -5,-5 0,-2.76 2.24,-5 5,-5 2.76,0 5,2.24 5,5 z"
         transform="matrix(0.2,0,0,0.2,1.48,0.2)"
         id="path8449"
         style="fill-rule:evenodd;stroke:#000000;stroke-width:1pt;marker-start:none;marker-end:none" />
    </marker>
    <marker
       refX="0"
       refY="0"
       orient="auto"
       id="InfiniteLineEnd"
       style="overflow:visible">
      <g
         id="g8617">
        <circle
           cx="3"
           cy="0"
           r="0.80000001"
           id="circle8619" />
        <circle
           cx="6.5"
           cy="0"
           r="0.80000001"
           id="circle8621" />
        <circle
           cx="10"
           cy="0"
           r="0.80000001"
           id="circle8623" />
      </g>
    </marker>
    <marker
       refX="0"
       refY="0"
       orient="auto"
       id="RazorWire">
       style=&quot;overflow:visible&quot;&gt;
      <path
   d="m 0.02272727,-0.74009011 0,1.4375 -7.78124997,2.31250001 18.4374997,0 -7.1874997,-2.31250001 0,-1.4375 7.2499997,-2.15624999 -18.4687497,0 7.74999997,2.15624999 z"
   transform="scale(0.8,0.8)"
   id="path8614"
   style="fill:#808080;fill-opacity:1;fill-rule:evenodd;stroke:#000000;stroke-width:0.1pt" />
</marker>
    <marker
       refX="0"
       refY="0"
       orient="auto"
       id="Torso"
       style="overflow:visible">
      <g
         transform="scale(0.7,0.7)"
         id="g8594">
        <path
           d="m -4.7792281,-3.239542 c 2.350374,0.3659393 5.30026732,1.9375477 5.03715532,3.62748546 C -0.00518779,2.0778819 -2.2126741,2.6176539 -4.5630471,2.2517169 -6.9134221,1.8857769 -8.521035,0.75201414 -8.257922,-0.93792336 -7.994809,-2.6278615 -7.1296041,-3.6054813 -4.7792281,-3.239542 z"
           id="path8596"
           style="fill:none;stroke:#000000;stroke-width:1.25;marker-start:none;marker-mid:none;marker-end:none" />
        <path
           d="M 4.4598789,0.08866574 C -2.5564571,-4.378332 5.2248769,-3.9061806 -0.84829578,-8.7197331"
           id="path8598"
           style="fill:none;stroke:#000000;stroke-width:1pt;marker-end:none" />
        <path
           d="M 4.9298719,0.05752074 C -1.3872731,1.7494689 1.8027579,5.4782079 -4.9448731,7.5462725"
           id="path8600"
           style="fill:none;stroke:#000000;stroke-width:1pt;marker-start:none;marker-end:none" />
        <rect
           width="2.6366582"
           height="2.7608147"
           x="-10.391706"
           y="-1.7408575"
           transform="matrix(0.527536,-0.849533,0.887668,0.460484,0,0)"
           id="rect8602"
           style="fill-rule:evenodd;stroke-width:1pt;marker-end:none" />
        <rect
           width="2.7327356"
           height="2.8614161"
           x="4.9587269"
           y="-7.9629307"
           transform="matrix(0.671205,-0.741272,0.790802,0.612072,0,0)"
           id="rect8604"
           style="fill-rule:evenodd;stroke-width:1pt;marker-end:none" />
        <path
           d="m 16.779951,-28.685045 a 0.60731727,0.60731727 0 1 1 -1.214634,0 0.60731727,0.60731727 0 1 1 1.214634,0 z"
           transform="matrix(0,-1.109517,1.109517,0,25.96648,19.71619)"
           id="path8606"
           style="fill:#ff0000;fill-opacity:0.75;fill-rule:evenodd;stroke:#000000;stroke-width:1pt;marker-start:none;marker-end:none" />
        <path
           d="m 16.779951,-28.685045 a 0.60731727,0.60731727 0 1 1 -1.214634,0 0.60731727,0.60731727 0 1 1 1.214634,0 z"
           transform="matrix(0,-1.109517,1.109517,0,26.8245,16.99126)"
           id="path8608"
           style="fill:#ff0000;fill-opacity:0.75;fill-rule:evenodd;stroke:#000000;stroke-width:1pt;marker-start:none;marker-end:none" />
      </g>
    </marker>
    <marker
       refX="0"
       refY="0"
       orient="auto"
       id="EmptyTriangleOutL"
       style="overflow:visible">
      <path
         d="m 5.77,0 -8.65,5 0,-10 8.65,5 z"
         transform="matrix(0.8,0,0,0.8,-4.8,0)"
         id="path8542"
         style="fill:#ffffff;fill-rule:evenodd;stroke:#000000;stroke-width:1pt;marker-start:none" />
    </marker>
    <marker
       refX="0"
       refY="0"
       orient="auto"
       id="SquareS"
       style="overflow:visible">
      <path
         d="M -5,-5 -5,5 5,5 5,-5 -5,-5 z"
         transform="scale(0.2,0.2)"
         id="path8458"
         style="fill-rule:evenodd;stroke:#000000;stroke-width:1pt;marker-start:none" />
    </marker>
    <marker
       refX="0"
       refY="0"
       orient="auto"
       id="SquareM"
       style="overflow:visible">
      <path
         d="M -5,-5 -5,5 5,5 5,-5 -5,-5 z"
         transform="scale(0.4,0.4)"
         id="path8455"
         style="fill-rule:evenodd;stroke:#000000;stroke-width:1pt;marker-start:none" />
    </marker>
    <marker
       refX="0"
       refY="0"
       orient="auto"
       id="Tail"
       style="overflow:visible">
      <g
         transform="scale(-1.2,-1.2)"
         id="g8417">
        <path
           d="M -3.8048674,-3.9585227 0.54352094,0"
           id="path8419"
           style="fill:none;stroke:#000000;stroke-width:0.80000001;stroke-linecap:round;marker-start:none;marker-end:none" />
        <path
           d="M -1.2866832,-3.9585227 3.0617053,0"
           id="path8421"
           style="fill:none;stroke:#000000;stroke-width:0.80000001;stroke-linecap:round;marker-start:none;marker-end:none" />
        <path
           d="M 1.3053582,-3.9585227 5.6537466,0"
           id="path8423"
           style="fill:none;stroke:#000000;stroke-width:0.80000001;stroke-linecap:round;marker-start:none;marker-end:none" />
        <path
           d="M -3.8048674,4.1775838 0.54352094,0.21974226"
           id="path8425"
           style="fill:none;stroke:#000000;stroke-width:0.80000001;stroke-linecap:round;marker-start:none;marker-end:none" />
        <path
           d="M -1.2866832,4.1775838 3.0617053,0.21974226"
           id="path8427"
           style="fill:none;stroke:#000000;stroke-width:0.80000001;stroke-linecap:round;marker-start:none;marker-end:none" />
        <path
           d="M 1.3053582,4.1775838 5.6537466,0.21974226"
           id="path8429"
           style="fill:none;stroke:#000000;stroke-width:0.80000001;stroke-linecap:round;marker-start:none;marker-end:none" />
      </g>
    </marker>
    <marker
       refX="0"
       refY="0"
       orient="auto"
       id="Arrow1Send"
       style="overflow:visible">
      <path
         d="M 0,0 5,-5 -12.5,0 5,5 0,0 z"
         transform="matrix(-0.2,0,0,-0.2,-1.2,0)"
         id="path8396"
         style="fill-rule:evenodd;stroke:#000000;stroke-width:1pt;marker-start:none" />
    </marker>
    <marker
       refX="0"
       refY="0"
       orient="auto"
       id="Arrow1Lstart"
       style="overflow:visible">
      <path
         d="M 0,0 5,-5 -12.5,0 5,5 0,0 z"
         transform="matrix(0.8,0,0,0.8,10,0)"
         id="path8381"
         style="fill-rule:evenodd;stroke:#000000;stroke-width:1pt;marker-start:none" />
    </marker>
  </defs>
  <metadata
     id="metadata7">
    <rdf:RDF>
      <cc:Work
         rdf:about="">
        <dc:format>image/svg+xml</dc:format>
        <dc:type
           rdf:resource="http://purl.org/dc/dcmitype/StillImage" />
        <dc:title></dc:title>
      </cc:Work>
    </rdf:RDF>
  </metadata>
  <g
     transform="translate(0,0.46704771)"
     id="layer3"
     style="display:none">
    <path
       d="m 131.442,231.36102 c -4.19809,3.6657 -7.35677,8.23445 -10.54299,12.75343 -3.13441,5.15002 -6.8693,9.88634 -10.24871,14.8643 -2.64227,4.58698 -5.20988,9.20122 -8.0256,13.68402 -3.447627,5.24337 -7.128648,10.32111 -11.012895,15.24807 -3.729707,4.22805 -6.539628,9.09151 -9.000432,14.13489 -2.993573,6.6352 -5.458129,13.49953 -7.673883,20.42864 -2.870537,9.29297 -4.753448,18.81399 -6.00189,28.44649 -1.627248,9.5645 -2.183349,19.24819 -2.54129,28.92773 -0.700533,8.66537 0.0194,17.13371 2.124373,25.54583 2.622629,9.21728 6.54109,17.19477 12.384801,24.78255 5.398518,5.98627 12.032955,10.59811 18.112941,15.84089 4.182895,3.56111 8.905555,6.29373 13.639075,9.03411 5.09036,1.96733 7.98399,3.82476 11.89756,7.60921 2.58565,2.27192 5.22938,4.50075 7.99729,6.54253 1.86291,1.32769 3.69606,2.60575 5.413,4.12897 0,0 -22.68306,14.14927 -22.68306,14.14927 l 0,0 c -1.73446,-1.41552 -3.57666,-2.66137 -5.3773,-3.98883 -2.75102,-2.18815 -5.46499,-4.39504 -7.9445,-6.89735 -3.412279,-3.14092 -7.297895,-5.20538 -11.471361,-7.17945 -4.800694,-2.89465 -9.736379,-5.58633 -13.80919,-9.51173 -6.040558,-5.41917 -12.534226,-10.37462 -17.796753,-16.60214 -6.203005,-7.85899 -10.456172,-15.91213 -13.154134,-25.58052 -2.156469,-8.5788 -3.3734,-17.31176 -2.562875,-26.17396 0.551941,-9.72921 1.346114,-19.4503 2.44052,-29.13365 1.378185,-9.70695 3.474051,-19.28575 5.836392,-28.79771 1.869354,-7.04228 4.49691,-13.87407 7.225872,-20.62573 2.218941,-5.2949 4.917519,-10.51837 8.815202,-14.77906 3.893075,-4.74002 7.50731,-9.68058 10.795733,-14.86061 2.977176,-4.44609 5.768597,-8.98014 8.271327,-13.71435 2.912303,-5.29064 7.347592,-9.60827 10.175801,-14.99426 3.05608,-4.50731 6.074656,-9.07474 9.881236,-12.99428 0,0 24.83574,-10.2873 24.83574,-10.2873 z"
       id="path4370"
       style="fill:#007180;fill-opacity:1;fill-rule:evenodd;stroke:#007180;stroke-width:11.5;stroke-miterlimit:4;stroke-opacity:1;stroke-dasharray:none" />
    <path
       d="m 289.92945,254.22556 c -0.12845,4.15141 -0.9465,8.2323 -1.39689,12.35314 -0.39953,3.76868 -0.39647,7.56043 -0.53646,11.3427 -0.18274,5.89058 -0.20834,11.78001 -0.14364,17.67264 -0.0256,5.28538 0.0874,10.57024 0.0988,15.85499 0.001,4.86909 -0.0118,9.73846 -0.0441,14.60751 0.16144,7.65724 -0.51893,15.27117 -1.05127,22.90043 -0.53929,8.18269 -0.73201,16.38398 -0.8642,24.58186 -0.0779,6.80078 0.0214,13.6017 0.0178,20.40266 -0.008,6.09452 0.0483,12.18866 0.0273,18.28321 0.0182,4.91924 0.0895,9.83806 0.12896,14.75715 0.37114,5.56499 0.79887,11.10994 1.80956,16.59775 0.90141,4.19476 1.43854,8.44317 1.70782,12.72115 0.17435,2.78793 0.17815,5.58638 0.20287,8.37956 0,0 -23.86376,12.16373 -23.86376,12.16373 l 0,0 c 0.0161,-2.76826 0.0222,-5.53487 -0.0564,-8.30255 -0.17337,-4.21224 -0.55503,-8.40996 -1.32931,-12.55922 -0.92208,-5.61588 -1.40435,-11.27557 -2.19952,-16.90998 0.0393,-4.962 0.10981,-9.92374 0.12545,-14.8859 -0.0251,-6.10031 0.0238,-12.20034 0.007,-18.30063 -0.009,-6.84657 0.0836,-13.69214 0.16128,-20.53815 0.11081,-8.27622 0.42388,-16.54244 1.00366,-24.80071 0.46407,-7.48705 0.91098,-14.97212 0.59414,-22.47654 -0.0324,-4.85367 -0.045,-9.70764 -0.0453,-14.56135 0.009,-5.31541 0.11823,-10.63096 0.0847,-15.94697 0.0553,-5.85849 0.008,-11.71307 -0.12192,-17.57006 -0.0651,-3.8658 0.12751,-7.72783 0.45733,-11.57995 0.39112,-3.99135 1.24433,-7.96629 1.23595,-11.96297 0,0 23.98996,-12.2235 23.98996,-12.2235 z"
       id="path4372"
       style="fill:#007180;fill-opacity:1;fill-rule:evenodd;stroke:#007180;stroke-width:11.5;stroke-miterlimit:4;stroke-opacity:1;stroke-dasharray:none" />
    <path
       d="m 382.54542,278.07291 c -0.20913,4.54708 -0.19272,9.10541 -0.095,13.65566 0.0133,4.24143 -0.0312,8.48246 -0.0244,12.72384 0.0952,4.07482 0.1406,8.13312 -0.42953,12.17379 -0.6279,3.82743 -0.94564,7.69008 -1.16371,11.55898 0,0 -23.90511,12.0217 -23.90511,12.0217 l 0,0 c 0.19591,-3.96185 0.65578,-7.90557 1.19994,-11.83376 0.54724,-3.94909 0.72014,-7.85324 0.60494,-11.84828 0.007,-4.23311 -0.0376,-8.46586 -0.0244,-12.69901 0.0949,-4.5179 0.11917,-9.04432 -0.095,-13.55884 0,0 23.93224,-12.19408 23.93224,-12.19408 z"
       id="path4374"
       style="fill:#007180;fill-opacity:1;fill-rule:evenodd;stroke:#007180;stroke-width:11.5;stroke-miterlimit:4;stroke-opacity:1;stroke-dasharray:none" />
    <path
       d="m 373.64474,376.97686 c 1.92218,4.07656 3.38026,8.25121 4.28981,12.66236 0.80224,4.36374 0.82079,8.81541 0.89195,13.2369 -0.0625,4.28277 0.0467,8.56608 0.0167,12.84838 -0.0157,3.82094 -0.008,7.64194 -0.004,11.4629 0.0581,3.86493 -0.0375,7.72875 -0.0419,11.59396 0.008,4.00375 0.0278,8.00745 0.0379,12.01119 0.23688,3.26789 -0.66468,6.42152 -1.15473,9.61769 -0.30599,2.0576 -0.17509,1.00428 -0.38626,3.16074 0,0 -23.91927,11.96533 -23.91927,11.96533 l 0,0 c 0.11573,-2.25549 0.0465,-1.14605 0.20528,-3.32848 0.52423,-3.09647 1.41541,-6.16943 1.47808,-9.30032 0.01,-4.01654 0.0293,-8.03304 0.0375,-12.04958 -0.005,-3.85152 -0.10108,-7.70162 -0.0408,-11.55288 0.006,-3.8263 0.018,-7.6526 0.0218,-11.47891 -0.007,-4.28233 0.14689,-8.56518 0.053,-12.84808 -0.01,-4.2804 -0.0347,-8.57768 -0.64737,-12.82337 -0.73808,-4.17492 -1.93286,-8.24545 -4.26447,-11.83865 0,0 23.42737,-13.33918 23.42737,-13.33918 z"
       id="path4376"
       style="fill:#007180;fill-opacity:1;fill-rule:evenodd;stroke:#007180;stroke-width:11.5;stroke-miterlimit:4;stroke-opacity:1;stroke-dasharray:none" />
    <path
       d="m 438.8878,214.26113 c 0.0495,4.02002 1.45673,7.86982 2.73246,11.63646 1.18605,4.03778 2.55938,8.01335 3.84135,12.0189 1.47701,4.18946 3.05019,8.34988 4.39441,12.58446 1.15866,4.88412 1.83288,9.89373 2.53528,14.86584 0.34362,4.55239 1.23162,9.02105 1.88824,13.53077 0.44003,4.52975 0.87426,9.04087 1.49985,13.55158 0.79655,4.57385 0.94563,9.22326 1.02207,13.85485 0.13434,5.00828 0.19919,10.0165 -0.1467,15.01646 -0.36907,5.88232 -1.58072,11.64862 -2.48753,17.4572 -0.91293,5.1441 -1.6448,10.32186 -2.76243,15.42655 -1.41614,5.93729 -3.53755,11.66603 -5.20835,17.52808 -1.86202,5.84477 -3.17621,11.83945 -4.68901,17.7775 -1.46205,4.40365 -2.05863,8.99687 -2.97618,13.52545 -0.8797,4.27829 -2.07737,8.4596 -2.7439,12.7825 -0.44542,3.34993 -0.55017,6.7329 -0.61187,10.10796 -0.0242,3.39525 -0.0635,6.79162 0.003,10.18654 0,0 -23.85723,12.16275 -23.85723,12.16275 l 0,0 c 0.0499,-3.40872 -0.018,-6.81779 -0.006,-10.22676 0.0181,-3.50776 0.12283,-7.01097 0.59294,-10.49285 0.59711,-4.39122 1.62606,-8.66188 2.69851,-12.94885 1.00406,-4.59227 1.41605,-9.31583 3.04587,-13.74647 1.77762,-5.87648 2.93201,-11.92854 4.67539,-17.81635 1.75544,-5.75978 3.87194,-11.42075 5.13301,-17.3174 1.23456,-5.06064 2.05886,-10.18939 3.07945,-15.29816 0.63065,-5.81154 2.22384,-11.45005 2.51278,-17.30685 0.40945,-4.89933 0.0933,-9.82184 0.16373,-14.73526 -0.12372,-4.53575 -0.27275,-9.07616 -0.89205,-13.57763 -0.61905,-4.50041 -1.34543,-8.96667 -1.57147,-13.51099 -0.60122,-4.54055 -1.61068,-9.01906 -1.79019,-13.60878 -0.57531,-4.84098 -1.42916,-9.63762 -2.47427,-14.39675 -1.23987,-4.24986 -2.78865,-8.41221 -4.31028,-12.56688 -1.33951,-3.98247 -2.80806,-7.91759 -3.81527,-12.00512 -1.35914,-4.0225 -2.82987,-8.01755 -3.46515,-12.23526 0,0 23.98996,-12.22349 23.98996,-12.22349 z"
       id="path4378"
       style="fill:#007180;fill-opacity:1;fill-rule:evenodd;stroke:#007180;stroke-width:11.5;stroke-miterlimit:4;stroke-opacity:1;stroke-dasharray:none" />
    <path
       d="m 547.88171,314.17221 c -0.31134,5.34002 0.96374,10.60366 1.73389,15.85487 0.84358,5.25725 3.26125,10.0377 5.51937,14.80153 1.59689,3.56145 2.93734,7.25804 3.99356,11.0169 0.7487,1.99553 1.58598,3.93818 2.16603,5.98914 0,0 -23.53055,12.79551 -23.53055,12.79551 l 0,0 c -0.54733,-2.06276 -1.3267,-4.04011 -2.08466,-6.03424 -0.97168,-3.63257 -2.26421,-7.19856 -3.67057,-10.68046 -2.31497,-5.0208 -4.66611,-10.13244 -5.57281,-15.62399 -0.87041,-5.29256 -2.18027,-10.53787 -2.54422,-15.89576 0,0 23.98996,-12.2235 23.98996,-12.2235 z"
       id="path4380"
       style="fill:#007180;fill-opacity:1;fill-rule:evenodd;stroke:#007180;stroke-width:11.5;stroke-miterlimit:4;stroke-opacity:1;stroke-dasharray:none" />
    <path
       d="m 606.01179,370.48573 c -0.19188,4.34143 -0.17045,8.69134 -0.17599,13.03656 0.0387,4.14616 0.0914,8.29055 0.0288,12.43675 -0.0388,4.37034 0.039,8.74057 -8.7e-4,13.11079 -0.13907,4.97273 0.062,9.94514 -0.0686,14.9178 0.34336,5.93799 -1.23501,11.64137 -2.30745,17.41246 -0.96928,5.20841 -1.0919,10.5109 -1.26288,15.78978 -0.18554,5.32193 -0.0773,10.64586 -0.037,15.96895 0.0412,4.06769 0.0693,8.13547 0.0839,12.20334 -0.0318,3.55553 0.21507,7.11597 -0.35367,10.63793 -0.446,2.80933 -1.13207,5.54566 -1.92087,8.27361 -0.25921,1.18321 -0.71489,2.28819 -1.21597,3.38386 0,0 -24.43081,11.21177 -24.43081,11.21177 l 0,0 c 0.44148,-1.07078 1.07086,-1.99838 1.37651,-3.11937 0.85006,-2.66091 1.66328,-5.28695 2.08831,-8.05776 0.80721,-3.3794 0.76347,-6.73837 0.67742,-10.21217 0.01,-4.0898 0.0282,-8.17957 0.0522,-12.26932 0.0218,-5.34959 0.0936,-10.69831 0.0525,-16.04815 0.0661,-5.41123 0.41008,-10.8257 1.1274,-16.19138 1.01675,-5.64282 2.91708,-11.1884 2.51384,-16.98083 -0.13354,-4.94928 0.0731,-9.89855 -0.0686,-14.84791 -0.0403,-4.36992 0.0382,-8.73987 -8.7e-4,-13.10991 -0.0637,-4.15596 -0.009,-8.31015 0.0288,-12.46609 -0.005,-4.28537 0.0185,-8.57583 -0.17599,-12.85721 0,0 23.98996,-12.2235 23.98996,-12.2235 z"
       id="path4382"
       style="fill:#007180;fill-opacity:1;fill-rule:evenodd;stroke:#007180;stroke-width:11.5;stroke-miterlimit:4;stroke-opacity:1;stroke-dasharray:none" />
    <path
       d="m 687.79174,287.64495 c 2.03369,-1.61803 -7.00122,3.91408 -4.68393,2.60387 36.24921,-20.49563 24.72781,-16.06042 18.17552,-9.51817 -2.17709,2.77862 -3.23718,6.03248 -3.94367,9.43463 -0.57849,3.30254 -0.59146,6.666 -0.62219,10.00816 0.0356,3.4695 -0.0328,6.93914 0.0366,10.40866 0.0239,1.66411 -0.009,3.32677 0.007,4.99099 0,0 -23.83687,12.14852 -23.83687,12.14852 l 0,0 c 0.013,-1.66263 -0.0225,-3.32343 -0.008,-4.98601 0.0505,-3.48074 -0.0476,-6.9607 -0.0153,-10.44106 2e-5,-3.47685 -0.0339,-6.96813 0.3923,-10.42516 0.60812,-3.71729 1.49032,-7.35913 3.48452,-10.59909 0.81617,-1.38082 1.11644,-2.28191 2.54326,-3.15963 7.56228,-4.65195 19.37481,-13.4925 29.90349,-16.8549 0,0 -21.43336,16.38919 -21.43336,16.38919 z"
       id="path4384"
       style="fill:#007180;fill-opacity:1;fill-rule:evenodd;stroke:#007180;stroke-width:11.5;stroke-miterlimit:4;stroke-opacity:1;stroke-dasharray:none" />
    <path
       d="m 736.80449,319.62191 c -0.2951,6.50034 -1.66777,12.87911 -2.52942,19.3165 -1.3734,8.04748 -1.98201,16.19102 -3.00995,24.28065 -0.70078,6.25232 -2.16233,12.37901 -2.99884,18.61064 -0.34128,4.65766 -0.98785,9.27477 -1.7013,13.8875 -0.66486,4.29506 -0.581,8.64919 -0.97245,12.96543 -0.48011,3.71077 -0.98721,7.41464 -1.30886,11.14284 0,0 -23.99197,11.97221 -23.99197,11.97221 l 0,0 c 0.31116,-3.79842 0.95852,-7.54945 1.52632,-11.31494 0.52753,-4.32113 0.23424,-8.6944 0.84862,-13.01399 0.6151,-4.65335 1.73993,-9.23061 1.87566,-13.94499 0.83611,-6.29778 2.48136,-12.4258 3.26258,-18.72775 1.0642,-8.12608 1.96538,-16.27404 3.26095,-24.37074 0.62015,-6.17854 1.78624,-12.37526 1.74869,-18.57987 0,0 23.98997,-12.22349 23.98997,-12.22349 z"
       id="path4386"
       style="fill:#007180;fill-opacity:1;fill-rule:evenodd;stroke:#007180;stroke-width:11.5;stroke-miterlimit:4;stroke-opacity:1;stroke-dasharray:none" />
    <path
       d="m 860.41989,79.312514 c 0.83847,5.510496 1.00934,11.084567 1.18008,16.646351 0.106,7.975825 0.18742,15.954235 0.16159,23.931385 -0.0365,9.08777 -0.77193,18.17868 -1.81946,27.20368 -1.04008,8.30774 -1.34307,16.67411 -2.12044,25.00509 -0.59777,7.98757 -1.49215,15.91805 -2.72388,23.83196 -0.92131,7.41209 -2.22731,14.76749 -3.18234,22.17462 -0.6395,5.30007 -0.74948,10.6364 -0.85321,15.96677 -0.0432,5.11561 -0.0573,10.23123 -0.0164,15.34689 0.0449,4.16475 0.0773,8.32959 0.094,12.49454 -0.12991,3.76808 0.0651,7.53649 0.0411,11.3035 -0.003,0.55435 -0.006,1.10869 -0.009,1.66304 0,0 -23.83799,12.14601 -23.83799,12.14601 l 0,0 c -0.003,-0.55141 -0.006,-1.10282 -0.009,-1.65423 -0.0241,-3.78022 0.17076,-7.56182 0.0391,-11.34303 0.0132,-4.19108 0.0387,-8.38208 0.0677,-12.57307 0.023,-5.12902 -0.031,-10.25784 0.005,-15.38674 0.0419,-5.45516 0.235,-10.91789 0.9205,-16.33493 0.94688,-7.49839 2.52802,-14.89525 3.46362,-22.39678 1.24383,-7.85444 1.9298,-15.71355 2.60222,-23.63276 1.0275,-8.3561 1.23105,-16.76071 2.27925,-25.11481 1.08748,-8.92097 2.01895,-17.87383 1.86407,-26.87859 -0.0433,-7.92541 0.0429,-15.8527 -0.27127,-23.77411 -0.21417,-5.2788 -0.3733,-10.631764 -1.60972,-15.790291 0,0 23.73332,-12.834495 23.73332,-12.834495 z"
       id="path4388"
       style="fill:#007180;fill-opacity:1;fill-rule:evenodd;stroke:#007180;stroke-width:11.5;stroke-miterlimit:4;stroke-opacity:1;stroke-dasharray:none" />
    <path
       d="m 955.02634,106.10779 c 2.55777,4.11192 5.29389,8.09864 7.0355,12.6412 1.33085,4.29114 1.60154,8.83905 1.71487,13.30699 0.31217,3.10789 -0.50756,6.10515 -1.24361,9.09037 -0.3691,1.31078 -1.07181,2.48653 -1.70434,3.68076 0,0 -24.50363,10.95714 -24.50363,10.95714 l 0,0 c 0.63439,-1.08711 1.2448,-2.18717 1.88484,-3.27092 1.21836,-2.45977 1.64136,-5.61099 1.85463,-8.30894 -0.08,-4.20683 -0.0646,-8.47491 -1.25111,-12.5526 -1.54619,-4.3583 -3.92404,-8.29218 -6.94142,-11.80311 0,0 23.15427,-13.74089 23.15427,-13.74089 z"
       id="path4390"
       style="fill:#007180;fill-opacity:1;fill-rule:evenodd;stroke:#007180;stroke-width:11.5;stroke-miterlimit:4;stroke-opacity:1;stroke-dasharray:none" />
    <path
       d="m 947.67933,224.38539 c 2.19413,3.66419 4.74337,7.044 6.55176,10.95355 1.92516,4.41515 2.03917,9.18769 2.15246,13.91892 0.27708,4.83151 0.0771,9.60314 -0.60781,14.38584 -0.16789,1.77033 -0.54624,3.49702 -1.00887,5.20877 0,0 -24.29458,11.36196 -24.29458,11.36196 l 0,0 c 0.6926,-1.5664 1.36908,-3.08621 1.39629,-4.84363 0.76166,-4.66758 1.36184,-9.28711 0.98434,-14.03886 -0.14494,-4.35959 -0.22538,-8.79838 -1.77713,-12.93583 -1.71519,-3.94932 -4.30925,-7.21248 -6.82382,-10.67155 0,0 23.42736,-13.33917 23.42736,-13.33917 z"
       id="path4392"
       style="fill:#007180;fill-opacity:1;fill-rule:evenodd;stroke:#007180;stroke-width:11.5;stroke-miterlimit:4;stroke-opacity:1;stroke-dasharray:none" />
    <path
       d="m 844.01635,347.5916 c -3.80867,1.47489 -7.27942,3.61991 -10.94675,5.39039 50.30774,-28.79981 1.74918,-1.03209 -4.04544,2.42643 -6.96176,4.15513 14.03855,-8.11499 21.09805,-12.1018 0.51978,-0.29353 -0.98084,0.68064 -1.47288,1.01861 -2.25302,1.54753 -0.74387,0.47561 -3.01981,2.12588 -3.06826,2.29716 -6.32142,4.33766 -9.53659,6.42123 -3.1637,1.97052 -6.20472,4.06206 -8.82503,6.72116 -2.50872,2.55161 -4.43099,5.57241 -6.81199,8.23711 -2.38216,2.78611 -3.77115,6.24789 -5.11722,9.61637 -1.09102,3.83148 -2.41531,7.5771 -3.73675,11.33439 -1.44642,4.94256 -2.61766,9.94529 -3.66235,14.9845 -1.57032,5.61128 -2.79521,11.29101 -3.52106,17.07169 -0.32542,3.86452 -0.89136,7.78808 0.0264,11.59847 0.96976,3.52246 2.5222,6.8367 3.706,10.28301 0.82231,3.65954 1.58458,7.32155 2.99403,10.80403 1.6277,3.76181 3.20043,7.60206 5.78176,10.81818 2.02758,3.02884 4.64944,5.40651 7.42049,7.71551 1.7449,1.8799 4.09334,2.74924 6.28981,3.93921 0,0 -22.31483,14.58965 -22.31483,14.58965 l 0,0 c -2.35541,-1.25266 -4.7082,-2.47484 -6.6384,-4.36265 -2.9015,-2.43717 -5.49954,-5.11038 -7.63691,-8.25975 -2.6013,-3.4815 -4.43839,-7.39824 -6.14429,-11.38311 -1.5823,-3.49446 -2.33449,-7.24485 -3.21755,-10.96554 -1.06617,-3.5385 -2.63293,-6.89033 -3.67734,-10.43711 -1.24454,-4.14619 -0.84528,-8.34169 -0.35954,-12.60522 0.75416,-5.84072 1.94428,-11.61275 3.51669,-17.28973 1.02426,-5.09557 2.08422,-10.13987 3.41655,-15.1646 1.06262,-3.86745 2.71976,-7.53038 3.63974,-11.44313 1.238,-3.59997 2.62194,-7.20438 4.63497,-10.4444 0.39346,-0.47036 0.78693,-0.94072 1.18039,-1.41108 0.44169,-0.42195 0.91957,-0.80902 1.32508,-1.26585 1.57006,-1.7688 2.50604,-4.01601 4.22496,-5.65841 2.62384,-2.87482 5.34679,-5.40181 8.69452,-7.43052 3.28935,-1.88065 6.31392,-4.17512 9.56578,-6.12232 8.72591,-7.11728 19.63758,-11.62565 28.84393,-17.64951 1.29107,-0.84477 -63.85865,37.02204 4.04612,-2.24798 3.79099,-1.97713 7.54916,-4.13849 11.71284,-5.2423 0,0 -21.43336,16.38919 -21.43336,16.38919 z"
       id="path4394"
       style="fill:#007180;fill-opacity:1;fill-rule:evenodd;stroke:#007180;stroke-width:11.5;stroke-miterlimit:4;stroke-opacity:1;stroke-dasharray:none" />
    <path
       d="m 940.39452,383.06909 c 3.05301,1.9835 5.55654,4.32806 7.80621,7.17752 3.0002,4.10652 5.12618,8.72122 7.15327,13.3589 2.13315,5.81074 2.38197,12.06611 2.69132,18.18527 0.17156,4.62053 0.54219,9.25388 -0.0914,13.8509 -0.32693,3.82105 -3.05449,6.36621 -5.63924,8.89817 -1.69837,1.73739 -3.59063,3.24114 -5.54952,4.66757 0,0 -24.86773,9.85283 -24.86773,9.85283 l 0,0 c 1.93588,-1.41776 4.05851,-2.60913 5.7239,-4.36128 1.4984,-1.38922 5.07866,-4.1869 5.94755,-5.90803 0.22262,-0.44097 0.24995,-0.95582 0.37493,-1.43373 0.95483,-4.46305 0.77873,-8.96563 0.70045,-13.51957 -0.19125,-5.805 -0.41591,-11.73534 -2.39287,-17.25746 -1.8585,-4.43114 -3.91173,-8.84387 -6.92307,-12.62426 -2.12142,-2.48159 -4.44725,-4.67871 -7.45488,-6.06876 0,0 22.52109,-14.81807 22.52109,-14.81807 z"
       id="path4396"
       style="fill:#007180;fill-opacity:1;fill-rule:evenodd;stroke:#007180;stroke-width:11.5;stroke-miterlimit:4;stroke-opacity:1;stroke-dasharray:none" />
    <path
       d="m 764.20926,512.6247 c 4.081,3.79351 7.73197,8.0253 10.91123,12.59406 4.4937,6.42053 8.71303,13.02 12.97294,19.59498 3.50621,6.54457 7.87009,12.54865 12.13226,18.60709 3.07497,4.27128 5.7739,8.74608 9.19017,12.76152 3.16131,3.54027 6.18797,7.1401 8.97829,10.98226 2.20671,2.64891 4.73464,4.98716 7.02977,7.55368 2.03803,2.54087 3.717,5.29444 5.33358,8.11376 0,0 -23.23886,13.39649 -23.23886,13.39649 l 0,0 c -1.49656,-2.65649 -3.00633,-5.28456 -4.93653,-7.65988 -2.40753,-2.59364 -5.04774,-4.98112 -7.11213,-7.88318 -2.64375,-3.82695 -5.74482,-7.2827 -8.66111,-10.89848 -3.4711,-4.07984 -6.46185,-8.47965 -9.28063,-13.03373 -4.09715,-6.19591 -8.29919,-12.33126 -12.00525,-18.77439 -4.14424,-6.59237 -8.3144,-13.17844 -12.96937,-19.42756 -3.2762,-4.39254 -6.88535,-8.58826 -11.34316,-11.83293 0,0 22.9988,-14.09369 22.9988,-14.09369 z"
       id="path4398"
       style="fill:#007180;fill-opacity:1;fill-rule:evenodd;stroke:#007180;stroke-width:11.5;stroke-miterlimit:4;stroke-opacity:1;stroke-dasharray:none" />
    <path
       d="m 860.48721,647.05053 c 2.37548,3.49762 5.15517,6.68547 7.98315,9.81833 3.01444,3.26354 5.66161,6.87809 8.31581,10.44526 2.54365,3.96014 5.3312,7.74756 8.32077,11.37982 1.71234,2.46464 3.73853,4.67637 5.62186,6.99676 1.77179,2.40138 4.1442,4.21503 6.20597,6.33888 1.57423,1.89545 2.66831,4.13272 4.16124,6.12523 0,0 -22.9757,13.66982 -22.9757,13.66982 l 0,0 c -1.47009,-1.87341 -2.61542,-3.93008 -4.05732,-5.79636 -2.14363,-2.12135 -4.45098,-4.09341 -6.29954,-6.49369 -2.05025,-2.22374 -3.74777,-4.72488 -5.55205,-7.14914 -2.91568,-3.7109 -5.44427,-7.69787 -8.25958,-11.48361 -2.72677,-3.43113 -5.17786,-7.06352 -8.14155,-10.29625 -2.83456,-3.1025 -5.54823,-6.3074 -8.32186,-9.46137 0,0 22.9988,-14.09368 22.9988,-14.09368 z"
       id="path4400"
       style="fill:#007180;fill-opacity:1;fill-rule:evenodd;stroke:#007180;stroke-width:11.5;stroke-miterlimit:4;stroke-opacity:1;stroke-dasharray:none" />
    <path
       d="m 93.829382,538.9035 c 0.640602,4.40584 1.610334,8.74703 2.327263,13.13965 1.084458,4.49123 2.012561,8.97866 2.480052,13.57677 0.189071,4.04582 1.024624,8.01302 2.260593,11.85798 1.67966,3.99378 2.58253,8.16947 3.24931,12.42951 0.0569,0.65037 0.11384,1.30074 0.17075,1.9511 0,0 -23.676071,12.30526 -23.676071,12.30526 l 0,0 c -0.04505,-0.61027 -0.09009,-1.22054 -0.135138,-1.83081 -0.404146,-4.12761 -1.253817,-8.14919 -2.868708,-11.99019 -1.526318,-3.97883 -2.379967,-8.16904 -2.56637,-12.43538 -0.394008,-4.55668 -1.221527,-9.03378 -2.324015,-13.47344 -0.645432,-4.28313 -1.616287,-8.4942 -2.650979,-12.69595 0,0 23.733313,-12.8345 23.733313,-12.8345 z"
       id="path4402"
       style="fill:#007180;fill-opacity:1;fill-rule:evenodd;stroke:#007180;stroke-width:11.5;stroke-miterlimit:4;stroke-opacity:1;stroke-dasharray:none" />
    <path
       d="m 755.16432,633.74296 c 2.6353,8.13862 5.59491,16.20109 8.95119,24.0741 2.61214,6.15441 6.23497,11.79793 9.9183,17.35181 0,0 -22.64319,13.22265 -22.64319,13.22265 l 0,0 c -3.62223,-5.76892 -7.11152,-11.66337 -9.82194,-17.92392 -3.3312,-7.9124 -5.9855,-16.11764 -9.91352,-23.77712 0,0 23.50916,-12.94752 23.50916,-12.94752 z"
       id="path4622"
       style="fill:#007180;fill-opacity:1;fill-rule:evenodd;stroke:#007180;stroke-width:11.5;stroke-miterlimit:4;stroke-opacity:1;stroke-dasharray:none" />
  </g>
  <g
     transform="translate(0,-281.44274)"
     id="layer1"
     style="opacity:0.92000002;display:inline">
    <path
       d="m 279.30721,579.23181 c -3.65545,16.6992 -5.52647,33.64115 -5.29591,50.60585 -2.53628,35.13202 0.10879,70.3482 -2.01951,105.48993 -0.21353,7.63902 -0.74953,15.376 -3.43519,22.72959 7.08649,8.03189 21.3127,-0.76136 31.31455,2.16753 10.10747,3.03245 19.7825,-2.61721 15.82737,-11.70989 0.44115,-12.40381 0.74046,-24.84649 3.57291,-37.03113 0.36392,-14.91217 -1.09296,-29.92821 0.7093,-44.7852 5.34807,-12.51 23.70946,-4.20204 34.85498,-5.28494 5.97678,-2.51228 17.36347,-4.66576 13.42021,4.55864 -0.46947,15.07646 0.50501,30.16384 3.05646,45.07986 0.89017,11.63669 -1.65195,23.28308 -6.25157,34.21876 -4.26216,9.00785 0.13672,19.40782 13.34447,18.63571 12.15769,4.75522 31.46851,5.41859 31.34512,-9.75587 2.85868,-16.34585 4.57471,-32.82819 8.5207,-49.04686 3.65187,-33.14836 1.3837,-66.50138 2.01871,-99.73953 4.4211,-12.28844 6.23414,-25.18568 8.26738,-37.82377 -7.33474,-9.17225 -25.21493,-3.20214 -36.18693,-8.91389 -11.79978,-4.8082 -21.68824,2.56658 -20.32973,12.67737 -2.20368,12.69811 -3.93917,25.58569 -4.07967,38.3842 2.89997,8.15673 -2.82048,16.18941 -13.75404,12.75254 -11.45136,-0.57658 -37.91487,1.79598 -30.5947,-13.35131 3.53388,-24.49293 3.46808,-49.28263 3.60712,-73.85514 -7.19299,-4.60975 -19.92137,-1.01604 -29.01878,-5.04333 -19.1003,-2.07149 -14.62925,19.89079 -16.86441,30.04611 -0.29684,6.33398 1.41347,13.02918 -2.02884,18.99477 z"
       id="path2987"
       style="fill:#e10000;fill-opacity:1;stroke:#e10000;stroke-width:3.51200008;stroke-linecap:butt;stroke-linejoin:miter;stroke-miterlimit:4;stroke-opacity:1;stroke-dasharray:none" />
    <path
       d="m 437.982,526.36248 c 4.05565,20.25189 14.71799,39.31989 11.96871,60.64493 1.84118,20.86402 -2.17631,41.1819 -8.86158,60.78201 -7.51786,25.91182 -1.85021,53.68377 -10.8539,79.19343 12.8683,11.32195 42.16567,-5.40816 61.45342,-1.94907 21.80193,1.86749 43.58384,-3.29156 65.33888,0.19922 13.63236,2.38545 31.77274,-10e-4 16.97972,-16.73453 -5.24673,-19.00008 -19.63337,-22.20458 -37.30392,-19.4021 -18.01768,0.0737 -36.34575,-0.20706 -54.13543,0.25627 -6.01298,-16.85995 -0.97699,-37.76285 -2.43714,-56.31117 -3.31981,-23.58019 19.15921,-18.10749 34.05449,-14.21119 7.64002,-9.2536 15.45191,-42.8268 -6.61939,-41.22911 -13.20926,-4.89982 -36.31126,1.70278 -28.77845,-19.00699 -5.18574,-19.10006 9.01696,-34.44347 28.10014,-27.62431 19.49754,1.66156 38.68671,6.32744 58.30873,6.61508 15.29781,-5.59845 24.94105,-42.48181 1.22388,-39.36824 -37.87123,-3.59965 -75.0786,-16.93411 -113.38732,-13.4017 -19.97935,0.67084 -32.41867,28.89822 -15.05084,41.54747 z"
       id="path2992"
       style="fill:#e10000;fill-opacity:1;stroke:#e10000;stroke-width:3.51200008;stroke-linecap:butt;stroke-linejoin:miter;stroke-miterlimit:4;stroke-opacity:1;stroke-dasharray:none" />
    <path
       d="m 606.05939,657.32746 c -7.69512,29.2642 0.68599,60.6881 -11.89518,89.14586 -2.12092,17.95498 -19.30646,56.177 11.93025,51.58919 22.86676,5.08143 39.59233,-9.82961 35.45036,-33.27698 2.12759,-32.38435 1.40621,-64.91268 1.54035,-97.36144 16.0901,-3.25736 42.11462,9.66649 48.6597,-12.57435 12.40156,-18.66593 3.47256,-43.00696 -21.30682,-39.79914 -39.54584,-6.75363 -78.07885,-20.84448 -118.45252,-22.0881 -26.79566,2.02567 -6.94206,33.25694 -6.36138,48.55455 4.31262,24.35905 35.1209,12.78098 52.10991,15.56228 4.72074,0.23657 9.45555,0.76037 14.02163,2.02988"
       id="path2994"
       style="fill:#e10000;fill-opacity:1;stroke:#e10000;stroke-width:3.51200008;stroke-linecap:butt;stroke-linejoin:miter;stroke-miterlimit:4;stroke-opacity:1;stroke-dasharray:none" />
    <path
       d="m 728.96459,604.12549 c -13.66502,-2.01092 -39.70911,3.91976 -41.82454,-15.02227 -3.7483,-21.00869 17.12755,-28.05999 33.35084,-20.61449 29.79528,4.4731 59.98654,5.33359 89.789,9.0441 19.07061,-0.19187 45.25624,-3.4798 35.35081,22.49438 -1.54181,24.4656 -28.48821,8.58497 -43.24223,8.86117 -14.02028,-2.68475 -50.93507,-17.03128 -44.10741,10.10692 8.04655,30.41231 5.07606,62.20622 1.75979,93.00023 -5.11606,20.42561 -30.83383,-5.00578 -45.28906,-6.03008 -7.46826,-9.02228 0.46709,-30.36648 1.77844,-43.98981 4.40553,-17.698 1.25937,-37.10542 10.91449,-53.40883 l 0.81131,-2.20108 0.70856,-2.24024 0,0 z"
       id="path2998"
       style="fill:#e10000;fill-opacity:1;stroke:#e10000;stroke-width:3.51200008;stroke-linecap:butt;stroke-linejoin:miter;stroke-miterlimit:4;stroke-opacity:1;stroke-dasharray:none" />
    <path
       d="m 934.64975,669.50517 c -16.09758,-7.3836 -36.50741,-6.43573 -52.74251,0.0353 -12.41448,7.49382 -20.7412,19.79195 -22.44671,32.41415 0.27025,12.4731 9.04255,24.67096 21.71337,31.08569 13.6816,3.98189 28.21701,5.91148 42.61012,6.77727 13.25546,-0.61917 22.13152,-11.434 23.173,-21.7377 3.92247,-13.11332 8.38031,-28.76564 -2.81294,-40.37336 -2.80992,-3.00779 -6.30193,-5.49198 -9.49433,-8.20129 z m -30.28014,-48.57634 c -23.19889,-1.64259 -49.10408,1.60835 -65.67547,16.52029 -24.47074,18.2722 -41.79697,44.91764 -40.03763,72.8529 -0.67251,15.98044 5.2211,33.63362 21.97725,42.92093 24.37932,15.27563 55.66628,18.46451 84.9022,22.35638 18.7583,2.03929 37.65707,5.60558 56.64071,4.29334 19.37369,-2.18572 37.76221,-13.60947 42.42133,-29.91138 7.6257,-18.77286 6.8208,-39.66025 -0.112,-58.4345 -12.3209,-18.66461 -22.00635,-40.25241 -44.41754,-52.32913 -10.89101,-6.20606 -23.61246,-10.12099 -36.29743,-12.78037 -6.74667,-0.62475 -14.94485,-0.36609 -19.40142,-5.48846 z"
       id="path3002"
       style="fill:#e10000;fill-opacity:1;fill-rule:evenodd;stroke:#e10000;stroke-width:3.51200008;stroke-linecap:butt;stroke-linejoin:miter;stroke-miterlimit:4;stroke-opacity:1;stroke-dasharray:none" />
    <path
       d="m 881.60951,542.08434 c -0.16293,-6.36072 3.27993,-12.15169 4.41562,-18.31158 3.3768,-5.15422 2.1651,-14.12314 8.7133,-16.42323 7.72937,-1.05954 15.57592,-1.50865 23.03768,-4.06211 6.77819,-0.044 15.29487,-0.22688 18.92513,6.75226 4.4005,4.77951 8.95858,9.42933 13.064,14.45518 3.55682,5.92133 0.3502,13.04938 -2.9224,18.35337 -2.47348,5.81386 -9.35073,6.80598 -14.37704,9.35544 -5.02028,0.87773 -10.56985,3.60573 -15.42019,0.74277 -5.97356,-3.48042 -12.74064,-5.21211 -19.10997,-7.82879 -5.16787,-2.1874 -10.75877,-2.87235 -16.32613,-3.03331 z M 893.4907,428.22295 c 3.45069,-14.01327 1.85801,-32.32758 16.91276,-40.04497 13.80623,-7.10882 34.01555,-2.98075 43.3051,9.48097 5.87198,11.5874 5.52553,33.19719 -10.60164,35.70825 -11.15774,-0.1633 -22.33277,6.93215 -33.16166,2.09686 -5.18535,-3.52067 -10.18018,-6.0658 -16.45456,-7.24111 z M 854.87683,371.7873 c 0.004,46.57326 2.23025,93.68303 -8.08494,139.42208 2.33896,20.12189 -12.83317,51.56608 9.60145,62.27947 21.93718,1.88318 44.06855,2.00891 66.06657,4.36187 30.05235,1.11127 69.29973,-1.42431 84.06529,-32.39019 8.8273,-21.22898 -5.5566,-45.07042 -19.88636,-60.27247 -12.22235,-7.25014 -22.43584,-9.08074 -3.95197,-15.12594 24.38413,-8.41341 40.51913,-33.73729 43.00883,-58.66064 4.0608,-36.50877 -35.83399,-46.4907 -62.55799,-56.06651 -24.70186,-6.3754 -53.97481,-15.35665 -77.96843,-2.62614 -8.77076,8.04001 -18.26598,16.4934 -30.29245,19.07847 z"
       id="path3801"
       style="fill:#e10000;fill-opacity:1;stroke:#e10000;stroke-width:3.51200008;stroke-linecap:butt;stroke-linejoin:miter;stroke-miterlimit:4;stroke-opacity:1;stroke-dasharray:none" />
    <path
       d="m 759.82733,795.54968 c 19.5234,-10.50103 48.05858,-43.75681 59.97566,-6.19515 20.31347,17.99872 36.65489,52.73606 58.0191,61.27984 23.46853,-13.81194 47.4476,-27.24865 69.63963,-42.83736 16.43214,-15.76503 40.98689,-32.93216 53.02148,-3.54775 35.5741,27.14672 -7.86251,52.52714 -31.29487,66.17245 -17.74747,15.66669 -67.965,28.74217 -36.37932,57.37301 11.13205,16.862 45.92225,37.9459 36.89415,55.70085 -23.88261,3.0084 -48.2303,-2.1668 -71.66571,-1.5206 -25.91745,-10.56005 -18.94854,-61.7766 -52.14796,-55.11985 -21.84397,11.4672 -43.30586,23.9032 -66.13331,33.7845 -21.31212,7.1827 -43.80578,-54.86361 -7.20276,-51.13065 19.60521,-8.14081 76.44443,-10.11913 45.42182,-38.14088 -16.35311,-27.67449 -41.18341,-48.83173 -58.14791,-75.81841 z"
       id="path3820"
       style="fill:#e10000;fill-opacity:1;stroke:#e10000;stroke-width:3.51200008;stroke-linecap:butt;stroke-linejoin:miter;stroke-miterlimit:4;stroke-opacity:1;stroke-dasharray:none" />
    <path
       d="m 182.72303,657.83442 c 21.6383,-2.53383 44.00144,-4.90768 65.31487,-4.25323 8.43251,15.18415 2.94465,36.11075 2.24007,53.45059 -6.46703,15.79298 10.92057,40.03845 -3.77256,51.2383 -24.2877,10.23268 -60.61704,3.87133 -86.20317,3.81096 -27.08032,0.259 -57.04165,-11.3199 -69.301185,-36.91582 C 78.961766,706.65933 72.186536,684.961 67.009936,663.65416 c -1.33963,-23.59591 -9.661188,-16.84214 -1.769598,-39.7217 11.16996,-32.65284 48.950562,-94.16182 84.273892,-100.02564 23.50738,-5.83535 54.39977,-12.83346 74.4681,5.31098 12.21901,11.39631 35.23941,43.381 11.05198,52.66924 -15.90587,-3.16141 -47.81202,9.32671 -48.06,-15.82161 2.5,-25.57727 -40.33614,-4.12699 -55.47578,3.74605 -20.48608,6.05725 -25.14768,41.49595 -34.477478,59.52654 -10.274775,33.77057 -5.859527,39.58712 21.493638,65.9695 18.40064,19.14748 41.51896,48.758 68.92363,45.01258 21.45265,3.95264 52.64401,-47.90508 37.84132,-63.75047 -16.39871,-3.00771 -60.57473,-1.18793 -45.98031,-20.73051 3.61789,0.74383 7.75275,1.06451 11.03827,-1.05054"
       id="path4884"
       style="fill:#e10000;fill-opacity:1;stroke:#e10000;stroke-width:14.32600021;stroke-linecap:butt;stroke-linejoin:miter;stroke-miterlimit:4;stroke-opacity:1;stroke-dasharray:none" />
    <path
       d="m 103.09278,829.68177 c -8.265314,32.25299 -8.777874,57.1608 42.43065,45.3844 83.37163,-2.41071 145.33035,-6.61592 225.74909,14.10498 57.80783,12.88874 152.31904,-12.80523 210.97047,-9.83247 44.47627,6.28456 117.97609,42.82529 117.34468,-12.66532 19.70661,-40.84285 -68.39673,-35.23711 -109.34986,-28.56368 -82.57263,-11.5733 -156.0379,-4.55039 -239.19934,-6.36608 -55.70257,-0.50304 -111.53579,1.00736 -167.15651,-0.75702 -30.5479,-9.95263 -37.6968,-0.84712 -64.29433,-5.42855"
       id="path4909"
       style="fill:#e10000;fill-opacity:1;stroke:#e10000;stroke-width:1px;stroke-linecap:butt;stroke-linejoin:miter;stroke-opacity:1" />
  </g>
</svg>
